<svg width="60" height="60" viewBox="0 0 60 60" fill="none" xmlns="http://www.w3.org/2000/svg">
<circle cx="30" cy="30" r="30" fill="white"/>
<path d="M50 32.5C51.3807 32.5 52.5 31.3807 52.5 30C52.5 28.6193 51.3807 27.5 50 27.5V32.5ZM8.23223 28.2322C7.25592 29.2085 7.25592 30.7915 8.23223 31.7678L24.1421 47.6777C25.1184 48.654 26.7014 48.654 27.6777 47.6777C28.654 46.7014 28.654 45.1184 27.6777 44.1421L13.5355 30L27.6777 15.8579C28.654 14.8816 28.654 13.2986 27.6777 12.3223C26.7014 11.346 25.1184 11.346 24.1421 12.3223L8.23223 28.2322ZM50 27.5L10 27.5V32.5L50 32.5V27.5Z" fill="black"/>
</svg>
