<svg width="166" height="1024" viewBox="0 0 166 1024" fill="none" xmlns="http://www.w3.org/2000/svg">
<rect width="166" height="1025" fill="white"/>
<rect width="166" height="1025" fill="#FFCE6D" fill-opacity="0.7"/>
<path d="M85.688 112.144H72.632V72.72L57.016 79.504C55.9067 78.992 54.9253 78.224 54.072 77.2C53.2187 76.176 52.792 74.8533 52.792 73.232C52.792 70.16 54.712 67.8987 58.552 66.448L75.576 59.28H78.52C80.7387 59.28 82.488 59.92 83.768 61.2C85.048 62.48 85.688 64.2293 85.688 66.448V112.144ZM72.632 104.208H85.688V138.128C85.0907 138.299 84.2373 138.469 83.128 138.64C82.104 138.896 80.952 139.024 79.672 139.024C77.2827 139.024 75.4907 138.555 74.296 137.616C73.1867 136.677 72.632 135.141 72.632 133.008V104.208Z" fill="black"/>
<path d="M80.976 261.605H86.096V274.853C85.84 275.023 85.4773 275.173 85.008 275.301C84.5813 275.471 84.0907 275.557 83.536 275.557C82.6827 275.557 82.0427 275.343 81.616 274.917C81.1893 274.49 80.976 273.914 80.976 273.189V261.605ZM89.68 262.693H81.808V256.421H89.936C92.5387 256.421 94.6507 256.911 96.272 257.893C97.8933 258.917 99.088 260.325 99.856 262.117C100.624 263.951 101.008 266.085 101.008 268.517C101.008 271.119 100.667 273.125 99.984 274.533C99.3013 275.983 98.3627 276.709 97.168 276.709C96.6133 276.709 96.1013 276.581 95.632 276.325C95.2053 276.111 94.8213 275.813 94.48 275.429C94.864 274.661 95.1627 273.722 95.376 272.613C95.632 271.546 95.76 270.479 95.76 269.413C95.76 266.981 95.2693 265.253 94.288 264.229C93.3493 263.205 91.8133 262.693 89.68 262.693ZM84.304 256.421V262.885H58.128C58.0427 262.586 57.936 262.159 57.808 261.605C57.68 261.093 57.616 260.538 57.616 259.941C57.616 258.746 57.8293 257.85 58.256 257.253C58.7253 256.698 59.5147 256.421 60.624 256.421H84.304ZM57.104 291.93C57.104 287.791 57.8933 284.549 59.472 282.202C61.0933 279.898 63.4613 278.746 66.576 278.746C69.392 278.746 71.5467 279.663 73.04 281.498C74.5333 283.375 75.4507 285.978 75.792 289.306L76.688 298.266H78.16C80.08 298.266 81.4667 297.647 82.32 296.41C83.216 295.173 83.664 293.487 83.664 291.354C83.664 289.647 83.4293 287.983 82.96 286.362C82.4907 284.783 81.936 283.375 81.296 282.138C81.6373 281.754 82.0427 281.413 82.512 281.114C83.024 280.815 83.536 280.666 84.048 280.666C85.4133 280.666 86.416 281.391 87.056 282.842C87.6107 283.994 88.0373 285.338 88.336 286.874C88.6347 288.453 88.784 290.074 88.784 291.738C88.784 295.663 87.9307 298.778 86.224 301.082C84.5173 303.429 81.808 304.602 78.096 304.602H63.12C62.1387 304.602 61.3707 304.389 60.816 303.962C60.304 303.535 59.8133 302.959 59.344 302.234C58.7467 301.125 58.2347 299.674 57.808 297.882C57.3387 296.133 57.104 294.149 57.104 291.93ZM62.16 291.93C62.16 293.466 62.3093 294.789 62.608 295.898C62.9493 297.007 63.2693 297.797 63.568 298.266H71.888L71.184 291.098C71.0133 289.135 70.5653 287.642 69.84 286.618C69.1147 285.637 68.0693 285.146 66.704 285.146C65.296 285.146 64.1867 285.701 63.376 286.81C62.5653 287.962 62.16 289.669 62.16 291.93ZM74.896 313.803L74.32 320.267H58.128C58.0427 320.011 57.936 319.606 57.808 319.051C57.68 318.539 57.616 317.963 57.616 317.323C57.616 316.128 57.8293 315.232 58.256 314.635C58.7253 314.08 59.5147 313.803 60.624 313.803H74.896ZM71.12 320.267L71.632 313.803H99.536C99.6213 314.059 99.7067 314.464 99.792 315.019C99.92 315.574 99.984 316.15 99.984 316.747C99.984 317.984 99.7707 318.88 99.344 319.435C98.9173 319.99 98.1493 320.267 97.04 320.267H71.12ZM74.896 330.241L74.32 336.705H58.128C58.0427 336.449 57.936 336.043 57.808 335.489C57.68 334.977 57.616 334.4 57.616 333.76C57.616 332.566 57.8293 331.67 58.256 331.073C58.7253 330.518 59.5147 330.241 60.624 330.241H74.896ZM71.12 336.705L71.632 330.241H99.536C99.6213 330.497 99.7067 330.902 99.792 331.457C99.92 332.011 99.984 332.587 99.984 333.185C99.984 334.422 99.7707 335.318 99.344 335.873C98.9173 336.427 98.1493 336.705 97.04 336.705H71.12ZM74.896 358.982V365.446H66.704C65.1253 365.446 64.016 365.894 63.376 366.79C62.736 367.686 62.416 368.944 62.416 370.566C62.416 371.291 62.5227 372.059 62.736 372.87C62.9493 373.723 63.2053 374.448 63.504 375.046C63.2053 375.344 62.8427 375.6 62.416 375.814C61.9893 376.027 61.4773 376.134 60.88 376.134C59.7707 376.134 58.8747 375.558 58.192 374.406C57.5093 373.296 57.168 371.632 57.168 369.414C57.168 366.256 57.872 363.718 59.28 361.798C60.688 359.92 63.0133 358.982 66.256 358.982H74.896ZM82.064 362.63H87.248V375.43C87.0347 375.558 86.6933 375.707 86.224 375.878C85.7547 376.048 85.264 376.134 84.752 376.134C83.856 376.134 83.1733 375.92 82.704 375.494C82.2773 375.067 82.064 374.491 82.064 373.766V362.63ZM73.04 365.446V358.982H96.208C96.2933 359.238 96.3787 359.643 96.464 360.198C96.592 360.752 96.656 361.35 96.656 361.99C96.656 363.142 96.4213 363.995 95.952 364.55C95.5253 365.147 94.7787 365.446 93.712 365.446H73.04ZM69.328 384.979L74.064 384.723L76.688 402.963C78.6933 402.792 80.3573 402.067 81.68 400.787C83.0453 399.507 83.728 397.694 83.728 395.347C83.728 392.915 82.8747 390.91 81.168 389.331C79.4613 387.752 77.008 386.942 73.808 386.899L71.504 387.027C68.432 387.326 66.128 388.392 64.592 390.227C63.056 392.104 62.288 394.558 62.288 397.587C62.288 399.379 62.5653 401 63.12 402.451C63.6747 403.944 64.2933 405.139 64.976 406.035C64.6347 406.547 64.208 406.952 63.696 407.251C63.2267 407.592 62.6933 407.763 62.096 407.763C61.1573 407.763 60.304 407.294 59.536 406.355C58.768 405.416 58.1707 404.136 57.744 402.515C57.3173 400.936 57.104 399.166 57.104 397.203C57.104 393.875 57.7013 390.974 58.896 388.499C60.1333 386.067 61.9467 384.168 64.336 382.803C66.768 381.438 69.7333 380.755 73.232 380.755C75.7493 380.755 77.968 381.118 79.888 381.843C81.8507 382.611 83.472 383.656 84.752 384.979C86.0747 386.302 87.0773 387.859 87.76 389.651C88.4427 391.443 88.784 393.363 88.784 395.411C88.784 398.099 88.208 400.467 87.056 402.515C85.9467 404.563 84.3893 406.163 82.384 407.315C80.4213 408.51 78.1387 409.107 75.536 409.107C74.512 409.107 73.744 408.83 73.232 408.275C72.7627 407.763 72.464 407.059 72.336 406.163L69.328 384.979ZM81.552 422.507H72.144V416.043H81.68C82.704 416.043 83.536 416.256 84.176 416.683C84.8587 417.109 85.4987 417.771 86.096 418.667C86.864 419.861 87.504 421.419 88.016 423.339C88.528 425.301 88.784 427.435 88.784 429.739C88.784 433.451 87.7387 435.307 85.648 435.307C85.136 435.307 84.6667 435.221 84.24 435.051C83.8133 434.923 83.4507 434.731 83.152 434.475C83.2373 434.048 83.3013 433.493 83.344 432.811C83.4293 432.171 83.472 431.509 83.472 430.827C83.472 429.077 83.28 427.477 82.896 426.027C82.5547 424.619 82.1067 423.445 81.552 422.507ZM74.896 416.043L74.32 422.507H58.128C58.0427 422.208 57.936 421.781 57.808 421.227C57.68 420.715 57.616 420.16 57.616 419.562C57.616 418.368 57.8293 417.472 58.256 416.875C58.7253 416.32 59.5147 416.043 60.624 416.043H74.896ZM78.672 465.631H71.376V459.167H78.032C79.952 459.167 81.3387 458.612 82.192 457.503C83.088 456.393 83.536 454.943 83.536 453.151C83.536 451.956 83.344 450.804 82.96 449.695C82.576 448.628 82.1493 447.732 81.68 447.007H71.376V440.543H81.808C82.7467 440.543 83.5147 440.735 84.112 441.119C84.752 441.503 85.3707 442.143 85.968 443.039C86.736 444.233 87.3973 445.769 87.952 447.647C88.5067 449.524 88.784 451.423 88.784 453.343C88.784 455.476 88.464 457.396 87.824 459.103C87.184 460.809 86.2453 462.132 85.008 463.071C84.752 463.369 84.496 463.625 84.24 463.839C84.0267 464.052 83.7493 464.244 83.408 464.415C82.8533 464.756 82.1707 465.033 81.36 465.247C80.5493 465.503 79.6533 465.631 78.672 465.631ZM78.352 484.255H71.376V477.791H78.032C79.952 477.791 81.3387 477.257 82.192 476.191C83.088 475.124 83.536 473.695 83.536 471.903C83.536 470.58 83.2587 469.3 82.704 468.062C82.192 466.825 81.4453 465.716 80.464 464.735L84.752 461.791C85.8187 462.985 86.7573 464.479 87.568 466.271C88.3787 468.063 88.784 470.175 88.784 472.607C88.784 474.868 88.4213 476.873 87.696 478.623C86.9707 480.372 85.8187 481.737 84.24 482.719C82.704 483.743 80.7413 484.255 78.352 484.255ZM74.576 440.543V447.007H58.128C58.0427 446.708 57.936 446.281 57.808 445.727C57.68 445.215 57.616 444.66 57.616 444.062C57.616 442.868 57.8293 441.972 58.256 441.375C58.7253 440.82 59.5147 440.543 60.624 440.543H74.576ZM74.576 459.167V465.631H58.128C58.0427 465.375 57.936 464.969 57.808 464.415C57.68 463.86 57.616 463.284 57.616 462.687C57.616 461.492 57.8293 460.596 58.256 459.999C58.7253 459.444 59.5147 459.167 60.624 459.167H74.576ZM74.576 477.791V484.255H58.128C58.0427 483.999 57.936 483.593 57.808 483.039C57.68 482.484 57.616 481.908 57.616 481.311C57.616 480.116 57.8293 479.22 58.256 478.623C58.7253 478.068 59.5147 477.791 60.624 477.791H74.576Z" fill="black"/>
</svg>
