<svg width="166" height="1024" viewBox="0 0 166 1024" fill="none" xmlns="http://www.w3.org/2000/svg">
<rect width="166" height="1025" transform="matrix(-1 0 0 1 166 0)" fill="white"/>
<rect width="166" height="1025" transform="matrix(-1 0 0 1 166 0)" fill="#FFBD98" fill-opacity="0.8"/>
<path d="M58.424 69.008C58.424 67.1307 59.3627 65.424 61.24 63.888C63.2027 62.2667 65.848 60.9867 69.176 60.048C72.5893 59.024 76.344 58.512 80.44 58.512C86.2427 58.512 91.1493 59.4933 95.16 61.456C99.256 63.3333 102.371 65.9787 104.504 69.392C106.723 72.72 107.832 76.6453 107.832 81.168C107.832 85.8613 106.552 90.4267 103.992 94.864C101.432 99.3013 97.1227 104.208 91.064 109.584L71.096 127.504H107.448C107.789 128.016 108.131 128.741 108.472 129.68C108.813 130.533 108.984 131.515 108.984 132.624C108.984 134.416 108.515 135.781 107.576 136.72C106.723 137.573 105.571 138 104.12 138H59.192C58.0827 137.232 57.2293 136.293 56.632 135.184C56.0347 133.989 55.736 132.667 55.736 131.216C55.736 129.509 56.0773 128.016 56.76 126.736C57.4427 125.456 58.3387 124.304 59.448 123.28L81.208 102.8C86.328 98.1067 89.8267 94.224 91.704 91.152C93.5813 87.9947 94.52 84.7947 94.52 81.552C94.52 77.968 93.24 75.024 90.68 72.72C88.2053 70.416 84.408 69.264 79.288 69.264C75.6187 69.264 72.3333 69.904 69.432 71.184C66.616 72.3787 64.2267 73.6587 62.264 75.024C61.24 74.512 60.344 73.744 59.576 72.72C58.808 71.696 58.424 70.4587 58.424 69.008Z" fill="black"/>
<path d="M74.896 243.928L74.32 250.392H58.128C58.0427 250.136 57.936 249.731 57.808 249.176C57.68 248.664 57.616 248.088 57.616 247.448C57.616 246.253 57.8293 245.357 58.256 244.76C58.7253 244.205 59.5147 243.928 60.624 243.928H74.896ZM71.12 250.392L71.632 243.928H99.536C99.6213 244.184 99.7067 244.589 99.792 245.144C99.92 245.699 99.984 246.275 99.984 246.872C99.984 248.109 99.7707 249.005 99.344 249.56C98.9173 250.115 98.1493 250.392 97.04 250.392H71.12ZM69.328 262.417L74.064 262.161L76.688 280.401C78.6933 280.23 80.3573 279.505 81.68 278.225C83.0453 276.945 83.728 275.131 83.728 272.785C83.728 270.353 82.8747 268.347 81.168 266.769C79.4613 265.19 77.008 264.379 73.808 264.337L71.504 264.465C68.432 264.763 66.128 265.83 64.592 267.665C63.056 269.542 62.288 271.995 62.288 275.025C62.288 276.817 62.5653 278.438 63.12 279.889C63.6747 281.382 64.2933 282.577 64.976 283.473C64.6347 283.985 64.208 284.39 63.696 284.689C63.2267 285.03 62.6933 285.201 62.096 285.201C61.1573 285.201 60.304 284.731 59.536 283.793C58.768 282.854 58.1707 281.574 57.744 279.953C57.3173 278.374 57.104 276.603 57.104 274.641C57.104 271.313 57.7013 268.411 58.896 265.937C60.1333 263.505 61.9467 261.606 64.336 260.241C66.768 258.875 69.7333 258.193 73.232 258.193C75.7493 258.193 77.968 258.555 79.888 259.281C81.8507 260.049 83.472 261.094 84.752 262.417C86.0747 263.739 87.0773 265.297 87.76 267.089C88.4427 268.881 88.784 270.801 88.784 272.849C88.784 275.537 88.208 277.905 87.056 279.953C85.9467 282.001 84.3893 283.601 82.384 284.753C80.4213 285.947 78.1387 286.545 75.536 286.545C74.512 286.545 73.744 286.267 73.232 285.713C72.7627 285.201 72.464 284.497 72.336 283.601L69.328 262.417ZM88.528 315.95C88.528 316.846 88.2933 317.593 87.824 318.19C87.3973 318.787 86.7147 319.086 85.776 319.086C85.1787 319.086 84.0907 318.851 82.512 318.382C80.976 317.913 79.1413 317.294 77.008 316.526C74.8747 315.801 72.656 314.99 70.352 314.094C68.048 313.198 65.8507 312.281 63.76 311.342C61.6693 310.446 59.8987 309.614 58.448 308.846C58.192 308.547 57.9787 308.057 57.808 307.374C57.6373 306.691 57.552 305.945 57.552 305.134C57.552 304.195 57.7013 303.363 58 302.638C58.256 301.913 58.6613 301.422 59.216 301.166C60.0693 300.697 61.3067 300.099 62.928 299.374C64.592 298.649 66.4693 297.859 68.56 297.006C70.6507 296.195 72.8053 295.363 75.024 294.51C77.2427 293.699 79.376 292.931 81.424 292.206C83.5147 291.523 85.3493 290.969 86.928 290.542C87.3973 290.883 87.7813 291.374 88.08 292.014C88.3787 292.654 88.528 293.294 88.528 293.934C88.528 294.873 88.2933 295.619 87.824 296.174C87.3973 296.771 86.6507 297.219 85.584 297.518L74.512 301.166C73.488 301.507 72.272 301.913 70.864 302.382C69.4987 302.894 68.1547 303.385 66.832 303.854C65.5093 304.366 64.4 304.75 63.504 305.006V305.326C67.5573 306.819 71.632 308.227 75.728 309.55C79.8667 310.915 83.8987 312.089 87.824 313.07C88.2933 313.881 88.528 314.841 88.528 315.95ZM69.328 327.854L74.064 327.598L76.688 345.838C78.6933 345.667 80.3573 344.942 81.68 343.662C83.0453 342.382 83.728 340.569 83.728 338.222C83.728 335.79 82.8747 333.785 81.168 332.206C79.4613 330.627 77.008 329.817 73.808 329.774L71.504 329.902C68.432 330.201 66.128 331.267 64.592 333.102C63.056 334.979 62.288 337.433 62.288 340.462C62.288 342.254 62.5653 343.875 63.12 345.326C63.6747 346.819 64.2933 348.014 64.976 348.91C64.6347 349.422 64.208 349.827 63.696 350.126C63.2267 350.467 62.6933 350.638 62.096 350.638C61.1573 350.638 60.304 350.169 59.536 349.23C58.768 348.291 58.1707 347.011 57.744 345.39C57.3173 343.811 57.104 342.041 57.104 340.078C57.104 336.75 57.7013 333.849 58.896 331.374C60.1333 328.942 61.9467 327.043 64.336 325.678C66.768 324.313 69.7333 323.63 73.232 323.63C75.7493 323.63 77.968 323.993 79.888 324.718C81.8507 325.486 83.472 326.531 84.752 327.854C86.0747 329.177 87.0773 330.734 87.76 332.526C88.4427 334.318 88.784 336.238 88.784 338.286C88.784 340.974 88.208 343.342 87.056 345.39C85.9467 347.438 84.3893 349.038 82.384 350.19C80.4213 351.385 78.1387 351.982 75.536 351.982C74.512 351.982 73.744 351.705 73.232 351.15C72.7627 350.638 72.464 349.934 72.336 349.038L69.328 327.854ZM74.896 359.366L74.32 365.83H58.128C58.0427 365.574 57.936 365.168 57.808 364.614C57.68 364.102 57.616 363.525 57.616 362.885C57.616 361.691 57.8293 360.795 58.256 360.198C58.7253 359.643 59.5147 359.366 60.624 359.366H74.896ZM71.12 365.83L71.632 359.366H99.536C99.6213 359.622 99.7067 360.027 99.792 360.582C99.92 361.136 99.984 361.712 99.984 362.31C99.984 363.547 99.7707 364.443 99.344 364.998C98.9173 365.552 98.1493 365.83 97.04 365.83H71.12ZM72.976 416.587C69.7333 416.587 66.9173 415.968 64.528 414.731C62.1813 413.493 60.3467 411.744 59.024 409.483C57.744 407.221 57.104 404.576 57.104 401.547C57.104 398.475 57.744 395.808 59.024 393.547C60.3467 391.285 62.1813 389.536 64.528 388.299C66.9173 387.061 69.7333 386.443 72.976 386.443C76.2187 386.443 79.0133 387.061 81.36 388.299C83.7067 389.579 85.52 391.349 86.8 393.611C88.1227 395.872 88.784 398.517 88.784 401.547C88.784 404.533 88.1227 407.157 86.8 409.419C85.52 411.68 83.7067 413.429 81.36 414.667C79.0133 415.947 76.2187 416.587 72.976 416.587ZM83.536 401.547C83.536 398.944 82.5973 396.875 80.72 395.339C78.8427 393.803 76.2613 393.035 72.976 393.035C69.6053 393.035 66.9813 393.781 65.104 395.275C63.2693 396.768 62.352 398.859 62.352 401.547C62.352 404.192 63.2907 406.24 65.168 407.691C67.0453 409.184 69.648 409.931 72.976 409.931C76.2613 409.931 78.8427 409.184 80.72 407.691C82.5973 406.197 83.536 404.149 83.536 401.547ZM80.976 429.23H86.096V442.478C85.84 442.648 85.4773 442.798 85.008 442.926C84.5813 443.096 84.0907 443.182 83.536 443.182C82.6827 443.182 82.0427 442.968 81.616 442.542C81.1893 442.115 80.976 441.539 80.976 440.814V429.23ZM89.68 430.318H81.808V424.046H89.936C92.5387 424.046 94.6507 424.536 96.272 425.518C97.8933 426.542 99.088 427.95 99.856 429.742C100.624 431.576 101.008 433.71 101.008 436.142C101.008 438.744 100.667 440.75 99.984 442.158C99.3013 443.608 98.3627 444.334 97.168 444.334C96.6133 444.334 96.1013 444.206 95.632 443.95C95.2053 443.736 94.8213 443.438 94.48 443.054C94.864 442.286 95.1627 441.347 95.376 440.238C95.632 439.171 95.76 438.104 95.76 437.038C95.76 434.606 95.2693 432.878 94.288 431.854C93.3493 430.83 91.8133 430.318 89.68 430.318ZM84.304 424.046V430.51H58.128C58.0427 430.211 57.936 429.784 57.808 429.23C57.68 428.718 57.616 428.163 57.616 427.566C57.616 426.371 57.8293 425.475 58.256 424.878C58.7253 424.323 59.5147 424.046 60.624 424.046H84.304ZM78.928 482.186C76.4107 481.503 73.872 480.757 71.312 479.946C68.752 479.135 66.3627 478.346 64.144 477.578C61.9253 476.853 60.048 476.191 58.512 475.594C58.2133 475.21 57.9787 474.719 57.808 474.122C57.6373 473.567 57.552 472.842 57.552 471.946C57.552 471.007 57.7013 470.154 58 469.386C58.2987 468.661 58.7467 468.17 59.344 467.914C60.1973 467.53 61.4133 467.061 62.992 466.506C64.6133 465.994 66.4693 465.461 68.56 464.906C70.6507 464.351 72.8053 463.797 75.024 463.242C77.2427 462.687 79.3973 462.175 81.488 461.706C83.5787 461.237 85.4347 460.831 87.056 460.49C87.44 460.874 87.7813 461.343 88.08 461.898C88.3787 462.495 88.528 463.178 88.528 463.946C88.528 464.927 88.272 465.674 87.76 466.186C87.2907 466.741 86.48 467.103 85.328 467.274C83.1947 467.658 80.9973 468.063 78.736 468.49C76.5173 468.959 74.4053 469.429 72.4 469.898C70.4373 470.367 68.688 470.773 67.152 471.114C65.616 471.498 64.464 471.775 63.696 471.946V472.202C64.72 472.501 66.3413 472.991 68.56 473.674C70.8213 474.357 73.3813 475.146 76.24 476.042C79.1413 476.981 82.064 477.898 85.008 478.794C85.264 479.263 85.456 479.775 85.584 480.33C85.7547 480.885 85.84 481.525 85.84 482.25C85.84 483.189 85.6693 483.978 85.328 484.618C85.0293 485.258 84.5387 485.685 83.856 485.898C81.04 486.837 78.2667 487.711 75.536 488.522C72.848 489.333 70.4587 490.058 68.368 490.698C66.2773 491.338 64.72 491.786 63.696 492.042V492.362C67.3653 493.215 71.2693 494.133 75.408 495.114C79.5893 496.138 83.7067 496.97 87.76 497.61C88.272 498.421 88.528 499.359 88.528 500.426C88.528 501.322 88.3147 502.047 87.888 502.602C87.504 503.157 86.8427 503.434 85.904 503.434C85.392 503.434 84.4533 503.306 83.088 503.05C81.7653 502.794 80.208 502.431 78.416 501.962C76.6667 501.535 74.7893 501.045 72.784 500.49C70.8213 499.978 68.9013 499.423 67.024 498.826C65.1893 498.271 63.504 497.738 61.968 497.226C60.4747 496.757 59.3227 496.33 58.512 495.946C58.256 495.647 58.0427 495.157 57.872 494.474C57.6587 493.834 57.552 493.109 57.552 492.298C57.552 490.122 58.064 488.842 59.088 488.458C60.5387 487.903 62.3307 487.263 64.464 486.538C66.5973 485.855 68.9227 485.13 71.44 484.362C73.9573 483.637 76.4533 482.911 78.928 482.186ZM72.976 538.399C69.7333 538.399 66.9173 537.78 64.528 536.543C62.1813 535.306 60.3467 533.556 59.024 531.295C57.744 529.034 57.104 526.388 57.104 523.359C57.104 520.287 57.744 517.62 59.024 515.359C60.3467 513.098 62.1813 511.348 64.528 510.111C66.9173 508.874 69.7333 508.255 72.976 508.255C76.2187 508.255 79.0133 508.874 81.36 510.111C83.7067 511.391 85.52 513.162 86.8 515.423C88.1227 517.684 88.784 520.33 88.784 523.359C88.784 526.346 88.1227 528.97 86.8 531.231C85.52 533.492 83.7067 535.242 81.36 536.479C79.0133 537.759 76.2187 538.399 72.976 538.399ZM83.536 523.359C83.536 520.756 82.5973 518.687 80.72 517.151C78.8427 515.615 76.2613 514.847 72.976 514.847C69.6053 514.847 66.9813 515.594 65.104 517.087C63.2693 518.58 62.352 520.671 62.352 523.359C62.352 526.004 63.2907 528.052 65.168 529.503C67.0453 530.996 69.648 531.743 72.976 531.743C76.2613 531.743 78.8427 530.996 80.72 529.503C82.5973 528.01 83.536 525.962 83.536 523.359ZM81.552 552.194H72.144V545.73H81.68C82.704 545.73 83.536 545.943 84.176 546.37C84.8587 546.797 85.4987 547.458 86.096 548.354C86.864 549.549 87.504 551.106 88.016 553.026C88.528 554.989 88.784 557.122 88.784 559.426C88.784 563.138 87.7387 564.994 85.648 564.994C85.136 564.994 84.6667 564.909 84.24 564.738C83.8133 564.61 83.4507 564.418 83.152 564.162C83.2373 563.735 83.3013 563.181 83.344 562.498C83.4293 561.858 83.472 561.197 83.472 560.514C83.472 558.765 83.28 557.165 82.896 555.714C82.5547 554.306 82.1067 553.133 81.552 552.194ZM74.896 545.73L74.32 552.194H58.128C58.0427 551.895 57.936 551.469 57.808 550.914C57.68 550.402 57.616 549.847 57.616 549.25C57.616 548.055 57.8293 547.159 58.256 546.562C58.7253 546.007 59.5147 545.73 60.624 545.73H74.896ZM71.12 580.269L74.192 575.917L88.464 590.509C88.4213 591.789 88.1227 592.813 87.568 593.581C87.0133 594.349 86.2667 594.733 85.328 594.733C84.6027 594.733 83.9413 594.477 83.344 593.965C82.7467 593.496 82.0427 592.77 81.232 591.789L71.12 580.269ZM73.168 575.981L75.728 580.781L61.392 596.397C60.1973 596.269 59.2587 595.906 58.576 595.309C57.8933 594.712 57.552 593.88 57.552 592.813C57.552 592.002 57.7653 591.256 58.192 590.573C58.6187 589.933 59.216 589.272 59.984 588.589L73.168 575.981ZM75.088 570.733L74.512 577.197H58.128C58.0427 576.898 57.936 576.472 57.808 575.917C57.68 575.405 57.616 574.85 57.616 574.253C57.616 573.058 57.8293 572.162 58.256 571.565C58.7253 571.01 59.5147 570.733 60.624 570.733H75.088ZM71.248 577.197L71.824 570.733H99.536C99.6213 570.989 99.7067 571.394 99.792 571.949C99.92 572.504 99.984 573.101 99.984 573.741C99.984 574.893 99.7707 575.746 99.344 576.301C98.9173 576.898 98.1493 577.197 97.04 577.197H71.248ZM74.896 603.241L74.32 609.705H58.128C58.0427 609.449 57.936 609.043 57.808 608.489C57.68 607.977 57.616 607.4 57.616 606.76C57.616 605.566 57.8293 604.67 58.256 604.073C58.7253 603.518 59.5147 603.241 60.624 603.241H74.896ZM71.12 609.705L71.632 603.241H99.536C99.6213 603.497 99.7067 603.902 99.792 604.457C99.92 605.011 99.984 605.587 99.984 606.185C99.984 607.422 99.7707 608.318 99.344 608.873C98.9173 609.427 98.1493 609.705 97.04 609.705H71.12ZM72.976 647.649C69.7333 647.649 66.9173 647.03 64.528 645.793C62.1813 644.556 60.3467 642.806 59.024 640.545C57.744 638.284 57.104 635.638 57.104 632.609C57.104 629.537 57.744 626.87 59.024 624.609C60.3467 622.348 62.1813 620.598 64.528 619.361C66.9173 618.124 69.7333 617.505 72.976 617.505C76.2187 617.505 79.0133 618.124 81.36 619.361C83.7067 620.641 85.52 622.412 86.8 624.673C88.1227 626.934 88.784 629.58 88.784 632.609C88.784 635.596 88.1227 638.22 86.8 640.481C85.52 642.742 83.7067 644.492 81.36 645.729C79.0133 647.009 76.2187 647.649 72.976 647.649ZM83.536 632.609C83.536 630.006 82.5973 627.937 80.72 626.401C78.8427 624.865 76.2613 624.097 72.976 624.097C69.6053 624.097 66.9813 624.844 65.104 626.337C63.2693 627.83 62.352 629.921 62.352 632.609C62.352 635.254 63.2907 637.302 65.168 638.753C67.0453 640.246 69.648 640.993 72.976 640.993C76.2613 640.993 78.8427 640.246 80.72 638.753C82.5973 637.26 83.536 635.212 83.536 632.609ZM57.104 666.305C57.104 662.166 57.8933 658.924 59.472 656.577C61.0933 654.273 63.4613 653.121 66.576 653.121C69.392 653.121 71.5467 654.038 73.04 655.873C74.5333 657.75 75.4507 660.353 75.792 663.681L76.688 672.641H78.16C80.08 672.641 81.4667 672.022 82.32 670.785C83.216 669.548 83.664 667.862 83.664 665.729C83.664 664.022 83.4293 662.358 82.96 660.737C82.4907 659.158 81.936 657.75 81.296 656.513C81.6373 656.129 82.0427 655.788 82.512 655.489C83.024 655.19 83.536 655.041 84.048 655.041C85.4133 655.041 86.416 655.766 87.056 657.217C87.6107 658.369 88.0373 659.713 88.336 661.249C88.6347 662.828 88.784 664.449 88.784 666.113C88.784 670.038 87.9307 673.153 86.224 675.457C84.5173 677.804 81.808 678.977 78.096 678.977H63.12C62.1387 678.977 61.3707 678.764 60.816 678.337C60.304 677.91 59.8133 677.334 59.344 676.609C58.7467 675.5 58.2347 674.049 57.808 672.257C57.3387 670.508 57.104 668.524 57.104 666.305ZM62.16 666.305C62.16 667.841 62.3093 669.164 62.608 670.273C62.9493 671.382 63.2693 672.172 63.568 672.641H71.888L71.184 665.473C71.0133 663.51 70.5653 662.017 69.84 660.993C69.1147 660.012 68.0693 659.521 66.704 659.521C65.296 659.521 64.1867 660.076 63.376 661.185C62.5653 662.337 62.16 664.044 62.16 666.305ZM63.824 707.826H84.624L84.688 714.29H63.312C62.4587 714.29 61.7547 714.098 61.2 713.714C60.6453 713.33 60.112 712.711 59.6 711.858C59.0027 710.919 58.448 709.618 57.936 707.954C57.3813 706.29 57.104 704.391 57.104 702.258C57.104 699.015 57.6587 696.178 58.768 693.746C59.8773 691.357 61.584 689.479 63.888 688.114C66.2347 686.791 69.2213 686.13 72.848 686.13C76.56 686.13 79.5893 686.791 81.936 688.114C84.2827 689.437 86.0107 691.229 87.12 693.49C88.2293 695.794 88.784 698.333 88.784 701.106C88.784 702.727 88.5707 704.242 88.144 705.65C87.7173 707.058 87.2053 708.167 86.608 708.978H80.912C81.5947 708.21 82.192 707.229 82.704 706.034C83.2587 704.839 83.536 703.453 83.536 701.874C83.536 700.167 83.1733 698.61 82.448 697.202C81.7653 695.837 80.6347 694.749 79.056 693.938C77.4773 693.127 75.3653 692.722 72.72 692.722C69.136 692.722 66.512 693.575 64.848 695.282C63.184 696.989 62.352 699.293 62.352 702.194C62.352 703.517 62.5013 704.605 62.8 705.458C63.0987 706.354 63.44 707.143 63.824 707.826ZM83.216 714.29V707.762H99.536C99.6213 708.061 99.7067 708.487 99.792 709.042C99.92 709.597 99.984 710.173 99.984 710.77C99.984 711.965 99.7707 712.839 99.344 713.394C98.9173 713.991 98.1493 714.29 97.04 714.29H83.216Z" fill="black"/>
</svg>
