<svg width="698" height="86" viewBox="0 0 698 86" fill="none" xmlns="http://www.w3.org/2000/svg">
<path d="M25.68 26.272C25.68 26.784 25.52 27.248 25.2 27.664C24.912 28.048 24.56 28.352 24.144 28.576C23.344 28 22.4 27.472 21.312 26.992C20.224 26.512 18.848 26.272 17.184 26.272C15.296 26.272 13.616 26.704 12.144 27.568C10.704 28.4 9.568 29.648 8.736 31.312C7.904 32.976 7.488 35.024 7.488 37.456C7.488 41.136 8.4 43.904 10.224 45.76C12.048 47.616 14.432 48.544 17.376 48.544C18.976 48.544 20.352 48.32 21.504 47.872C22.688 47.424 23.68 46.912 24.48 46.336C24.864 46.528 25.2 46.832 25.488 47.248C25.776 47.664 25.92 48.144 25.92 48.688C25.92 49.104 25.808 49.504 25.584 49.888C25.36 50.24 24.976 50.576 24.432 50.896C23.728 51.344 22.768 51.744 21.552 52.096C20.336 52.48 18.784 52.672 16.896 52.672C14.176 52.672 11.712 52.112 9.504 50.992C7.328 49.872 5.6 48.192 4.32 45.952C3.04 43.68 2.4 40.848 2.4 37.456C2.4 34.096 3.04 31.28 4.32 29.008C5.632 26.736 7.376 25.024 9.552 23.872C11.728 22.72 14.096 22.144 16.656 22.144C18.48 22.144 20.064 22.352 21.408 22.768C22.752 23.152 23.792 23.664 24.528 24.304C25.296 24.944 25.68 25.6 25.68 26.272ZM31.7273 39.328L36.5753 39.76V51.904C36.3833 51.968 36.0793 52.048 35.6633 52.144C35.2793 52.24 34.8472 52.288 34.3672 52.288C33.4713 52.288 32.7993 52.128 32.3513 51.808C31.9353 51.456 31.7273 50.864 31.7273 50.032V39.328ZM36.5753 42.16L31.7273 41.776V20.848C31.9193 20.784 32.2233 20.72 32.6393 20.656C33.0553 20.56 33.4873 20.512 33.9353 20.512C34.8633 20.512 35.5353 20.672 35.9513 20.992C36.3673 21.312 36.5753 21.888 36.5753 22.72V42.16ZM43.3834 22.672C43.3834 21.872 43.6554 21.2 44.1994 20.656C44.7754 20.112 45.4954 19.84 46.3594 19.84C47.2234 19.84 47.9274 20.112 48.4714 20.656C49.0154 21.2 49.2874 21.872 49.2874 22.672C49.2874 23.472 49.0154 24.144 48.4714 24.688C47.9274 25.232 47.2234 25.504 46.3594 25.504C45.4954 25.504 44.7754 25.232 44.1994 24.688C43.6554 24.144 43.3834 23.472 43.3834 22.672ZM43.9114 39.328H48.8074V51.904C48.5834 51.968 48.2634 52.048 47.8474 52.144C47.4634 52.24 47.0314 52.288 46.5514 52.288C45.6874 52.288 45.0314 52.128 44.5834 51.808C44.1354 51.456 43.9114 50.864 43.9114 50.032V39.328ZM48.8074 41.776H43.9114V29.728C44.1354 29.632 44.4394 29.552 44.8234 29.488C45.2394 29.392 45.6874 29.344 46.1674 29.344C47.0634 29.344 47.7194 29.52 48.1354 29.872C48.5834 30.192 48.8074 30.768 48.8074 31.6V41.776ZM66.7103 32.896C64.6623 32.896 62.9503 33.584 61.5743 34.96C60.1983 36.304 59.5103 38.256 59.5103 40.816C59.5103 43.376 60.1663 45.328 61.4783 46.672C62.8223 48.016 64.5503 48.688 66.6623 48.688C67.9423 48.688 69.0143 48.528 69.8783 48.208C70.7423 47.856 71.4943 47.472 72.1343 47.056C72.5503 47.312 72.8703 47.616 73.0943 47.968C73.3503 48.288 73.4783 48.704 73.4783 49.216C73.4783 50.176 72.8223 50.992 71.5103 51.664C70.1983 52.304 68.5183 52.624 66.4703 52.624C64.1343 52.624 62.0703 52.192 60.2783 51.328C58.4863 50.464 57.0783 49.168 56.0543 47.44C55.0623 45.68 54.5663 43.472 54.5663 40.816C54.5663 38.192 55.0943 36 56.1503 34.24C57.2063 32.448 58.6303 31.12 60.4223 30.256C62.2143 29.36 64.1823 28.912 66.3263 28.912C68.3743 28.912 70.0383 29.264 71.3183 29.968C72.5983 30.672 73.2383 31.52 73.2383 32.512C73.2383 32.928 73.1263 33.312 72.9023 33.664C72.6783 34.016 72.3743 34.288 71.9903 34.48C71.3183 34.064 70.5663 33.696 69.7343 33.376C68.9343 33.056 67.9263 32.896 66.7103 32.896ZM86.1236 42.16L82.8596 39.856L93.8036 29.152C94.7636 29.184 95.5316 29.408 96.1076 29.824C96.6836 30.24 96.9716 30.8 96.9716 31.504C96.9716 32.048 96.7796 32.544 96.3956 32.992C96.0436 33.44 95.4996 33.968 94.7636 34.576L86.1236 42.16ZM82.9076 40.624L86.5076 38.704L98.2196 49.456C98.1236 50.352 97.8516 51.056 97.4036 51.568C96.9556 52.08 96.3316 52.336 95.5316 52.336C94.9236 52.336 94.3636 52.176 93.8516 51.856C93.3716 51.536 92.8756 51.088 92.3636 50.512L82.9076 40.624ZM78.9716 39.184L83.8196 39.616V51.904C83.5956 51.968 83.2756 52.048 82.8596 52.144C82.4756 52.24 82.0596 52.288 81.6116 52.288C80.7156 52.288 80.0436 52.128 79.5956 51.808C79.1796 51.456 78.9716 50.864 78.9716 50.032V39.184ZM83.8196 42.064L78.9716 41.632V20.848C79.1636 20.784 79.4676 20.72 79.8836 20.656C80.2996 20.56 80.7476 20.512 81.2276 20.512C82.0916 20.512 82.7316 20.672 83.1476 20.992C83.5956 21.312 83.8196 21.888 83.8196 22.72V42.064ZM132.738 42.4H127.89V37.984C127.89 36.224 127.394 34.928 126.402 34.096C125.442 33.264 124.21 32.848 122.706 32.848C121.522 32.848 120.434 33.072 119.442 33.52C118.45 33.968 117.602 34.496 116.898 35.104L116.37 31.168C117.106 30.656 118.082 30.16 119.298 29.68C120.514 29.168 121.89 28.912 123.426 28.912C126.21 28.912 128.45 29.648 130.146 31.12C131.874 32.592 132.738 34.816 132.738 37.792V42.4ZM112.722 39.328H117.57V51.904C117.346 51.968 117.026 52.048 116.61 52.144C116.226 52.24 115.81 52.288 115.362 52.288C114.466 52.288 113.794 52.128 113.346 51.808C112.93 51.456 112.722 50.864 112.722 50.032V39.328ZM127.89 39.376L132.738 39.424V51.904C132.546 51.968 132.242 52.048 131.826 52.144C131.41 52.24 130.978 52.288 130.53 52.288C129.634 52.288 128.962 52.128 128.514 51.808C128.098 51.456 127.89 50.864 127.89 50.032V39.376ZM117.57 41.776H112.722V20.848C112.914 20.784 113.218 20.72 113.634 20.656C114.05 20.56 114.498 20.512 114.978 20.512C115.842 20.512 116.482 20.672 116.898 20.992C117.346 21.312 117.57 21.888 117.57 22.72V41.776ZM141.406 43.504L141.214 39.952L154.894 37.984C154.766 36.48 154.222 35.232 153.262 34.24C152.302 33.216 150.942 32.704 149.182 32.704C147.358 32.704 145.854 33.344 144.67 34.624C143.486 35.904 142.878 37.744 142.846 40.144L142.942 41.872C143.166 44.176 143.966 45.904 145.342 47.056C146.75 48.208 148.59 48.784 150.862 48.784C152.206 48.784 153.422 48.576 154.51 48.16C155.63 47.744 156.526 47.28 157.198 46.768C157.582 47.024 157.886 47.344 158.11 47.728C158.366 48.08 158.494 48.48 158.494 48.928C158.494 49.632 158.142 50.272 157.438 50.848C156.734 51.424 155.774 51.872 154.558 52.192C153.374 52.512 152.046 52.672 150.574 52.672C148.078 52.672 145.902 52.224 144.046 51.328C142.222 50.4 140.798 49.04 139.774 47.248C138.75 45.424 138.238 43.2 138.238 40.576C138.238 38.688 138.51 37.024 139.054 35.584C139.63 34.112 140.414 32.896 141.406 31.936C142.398 30.944 143.566 30.192 144.91 29.68C146.254 29.168 147.694 28.912 149.23 28.912C151.246 28.912 153.022 29.344 154.558 30.208C156.094 31.04 157.294 32.208 158.158 33.712C159.054 35.184 159.502 36.896 159.502 38.848C159.502 39.616 159.294 40.192 158.878 40.576C158.494 40.928 157.966 41.152 157.294 41.248L141.406 43.504ZM169.552 34.336V41.392H164.704V34.24C164.704 33.472 164.864 32.848 165.184 32.368C165.504 31.856 166 31.376 166.672 30.928C167.568 30.352 168.736 29.872 170.176 29.488C171.648 29.104 173.248 28.912 174.976 28.912C177.76 28.912 179.152 29.696 179.152 31.264C179.152 31.648 179.088 32 178.96 32.32C178.864 32.64 178.72 32.912 178.528 33.136C178.208 33.072 177.792 33.024 177.28 32.992C176.8 32.928 176.304 32.896 175.792 32.896C174.48 32.896 173.28 33.04 172.192 33.328C171.136 33.584 170.256 33.92 169.552 34.336ZM164.704 39.328L169.552 39.76V51.904C169.328 51.968 169.008 52.048 168.592 52.144C168.208 52.24 167.792 52.288 167.344 52.288C166.448 52.288 165.776 52.128 165.328 51.808C164.912 51.456 164.704 50.864 164.704 50.032V39.328ZM184.766 43.504L184.574 39.952L198.254 37.984C198.126 36.48 197.582 35.232 196.622 34.24C195.662 33.216 194.302 32.704 192.542 32.704C190.718 32.704 189.214 33.344 188.03 34.624C186.846 35.904 186.238 37.744 186.206 40.144L186.302 41.872C186.526 44.176 187.326 45.904 188.702 47.056C190.11 48.208 191.95 48.784 194.222 48.784C195.566 48.784 196.782 48.576 197.87 48.16C198.99 47.744 199.886 47.28 200.558 46.768C200.942 47.024 201.246 47.344 201.47 47.728C201.726 48.08 201.854 48.48 201.854 48.928C201.854 49.632 201.502 50.272 200.798 50.848C200.094 51.424 199.134 51.872 197.918 52.192C196.734 52.512 195.406 52.672 193.934 52.672C191.438 52.672 189.262 52.224 187.406 51.328C185.582 50.4 184.158 49.04 183.134 47.248C182.11 45.424 181.598 43.2 181.598 40.576C181.598 38.688 181.87 37.024 182.414 35.584C182.99 34.112 183.774 32.896 184.766 31.936C185.758 30.944 186.926 30.192 188.27 29.68C189.614 29.168 191.054 28.912 192.59 28.912C194.606 28.912 196.382 29.344 197.918 30.208C199.454 31.04 200.654 32.208 201.518 33.712C202.414 35.184 202.862 36.896 202.862 38.848C202.862 39.616 202.654 40.192 202.238 40.576C201.854 40.928 201.326 41.152 200.654 41.248L184.766 43.504ZM217.721 39.328H222.569V45.472C222.569 46.656 222.905 47.488 223.577 47.968C224.249 48.448 225.193 48.688 226.409 48.688C226.953 48.688 227.529 48.608 228.137 48.448C228.777 48.288 229.321 48.096 229.769 47.872C229.993 48.096 230.185 48.368 230.345 48.688C230.505 49.008 230.585 49.392 230.585 49.84C230.585 50.672 230.153 51.344 229.289 51.856C228.457 52.368 227.209 52.624 225.545 52.624C223.177 52.624 221.273 52.096 219.833 51.04C218.425 49.984 217.721 48.24 217.721 45.808V39.328ZM220.457 33.952V30.064H230.057C230.153 30.224 230.265 30.48 230.393 30.832C230.521 31.184 230.585 31.552 230.585 31.936C230.585 32.608 230.425 33.12 230.105 33.472C229.785 33.792 229.353 33.952 228.809 33.952H220.457ZM222.569 40.72H217.721V23.344C217.913 23.28 218.217 23.216 218.633 23.152C219.049 23.056 219.497 23.008 219.977 23.008C220.841 23.008 221.481 23.184 221.897 23.536C222.345 23.856 222.569 24.416 222.569 25.216V40.72ZM256.659 40.768C256.659 43.2 256.195 45.312 255.267 47.104C254.339 48.864 253.027 50.24 251.331 51.232C249.635 52.192 247.651 52.672 245.379 52.672C243.075 52.672 241.075 52.192 239.379 51.232C237.683 50.24 236.371 48.864 235.443 47.104C234.515 45.312 234.051 43.2 234.051 40.768C234.051 38.336 234.515 36.24 235.443 34.48C236.403 32.72 237.731 31.36 239.427 30.4C241.123 29.408 243.107 28.912 245.379 28.912C247.619 28.912 249.587 29.408 251.283 30.4C252.979 31.36 254.291 32.72 255.219 34.48C256.179 36.24 256.659 38.336 256.659 40.768ZM245.379 32.848C243.427 32.848 241.875 33.552 240.723 34.96C239.571 36.368 238.995 38.304 238.995 40.768C238.995 43.296 239.555 45.264 240.675 46.672C241.795 48.048 243.363 48.736 245.379 48.736C247.363 48.736 248.899 48.032 249.987 46.624C251.107 45.216 251.667 43.264 251.667 40.768C251.667 38.304 251.107 36.368 249.987 34.96C248.867 33.552 247.331 32.848 245.379 32.848ZM288.326 45.856C288.326 48 287.526 49.68 285.926 50.896C284.358 52.08 282.07 52.672 279.062 52.672C276.566 52.672 274.518 52.288 272.918 51.52C271.35 50.752 270.566 49.84 270.566 48.784C270.566 48.304 270.678 47.856 270.902 47.44C271.158 47.024 271.494 46.704 271.91 46.48C272.806 47.056 273.83 47.584 274.982 48.064C276.134 48.544 277.462 48.784 278.966 48.784C282.006 48.784 283.526 47.808 283.526 45.856C283.526 45.056 283.254 44.4 282.71 43.888C282.198 43.376 281.43 42.992 280.406 42.736L276.998 41.872C274.854 41.392 273.27 40.624 272.246 39.568C271.254 38.512 270.758 37.152 270.758 35.488C270.758 33.632 271.51 32.08 273.014 30.832C274.55 29.552 276.758 28.912 279.638 28.912C281.142 28.912 282.47 29.072 283.622 29.392C284.806 29.68 285.718 30.096 286.358 30.64C287.03 31.152 287.366 31.744 287.366 32.416C287.366 32.896 287.254 33.328 287.03 33.712C286.806 34.096 286.518 34.384 286.166 34.576C285.782 34.32 285.27 34.064 284.63 33.808C284.022 33.52 283.302 33.28 282.47 33.088C281.67 32.864 280.822 32.752 279.926 32.752C278.582 32.752 277.51 32.992 276.71 33.472C275.942 33.952 275.558 34.624 275.558 35.488C275.558 36.128 275.782 36.672 276.23 37.12C276.678 37.568 277.43 37.92 278.486 38.176L281.366 38.848C283.734 39.424 285.478 40.288 286.598 41.44C287.75 42.56 288.326 44.032 288.326 45.856ZM295.953 43.504L295.761 39.952L309.441 37.984C309.313 36.48 308.769 35.232 307.809 34.24C306.849 33.216 305.489 32.704 303.729 32.704C301.905 32.704 300.401 33.344 299.217 34.624C298.033 35.904 297.425 37.744 297.393 40.144L297.489 41.872C297.713 44.176 298.513 45.904 299.889 47.056C301.297 48.208 303.137 48.784 305.409 48.784C306.753 48.784 307.969 48.576 309.057 48.16C310.177 47.744 311.073 47.28 311.745 46.768C312.129 47.024 312.433 47.344 312.657 47.728C312.913 48.08 313.041 48.48 313.041 48.928C313.041 49.632 312.689 50.272 311.985 50.848C311.281 51.424 310.321 51.872 309.105 52.192C307.921 52.512 306.593 52.672 305.121 52.672C302.625 52.672 300.449 52.224 298.593 51.328C296.769 50.4 295.345 49.04 294.321 47.248C293.297 45.424 292.785 43.2 292.785 40.576C292.785 38.688 293.057 37.024 293.601 35.584C294.177 34.112 294.961 32.896 295.953 31.936C296.945 30.944 298.113 30.192 299.457 29.68C300.801 29.168 302.241 28.912 303.777 28.912C305.793 28.912 307.569 29.344 309.105 30.208C310.641 31.04 311.841 32.208 312.705 33.712C313.601 35.184 314.049 36.896 314.049 38.848C314.049 39.616 313.841 40.192 313.425 40.576C313.041 40.928 312.513 41.152 311.841 41.248L295.953 43.504ZM321.219 43.504L321.027 39.952L334.707 37.984C334.579 36.48 334.035 35.232 333.075 34.24C332.115 33.216 330.755 32.704 328.995 32.704C327.171 32.704 325.667 33.344 324.483 34.624C323.299 35.904 322.691 37.744 322.659 40.144L322.755 41.872C322.979 44.176 323.779 45.904 325.155 47.056C326.563 48.208 328.403 48.784 330.675 48.784C332.019 48.784 333.235 48.576 334.323 48.16C335.443 47.744 336.339 47.28 337.011 46.768C337.395 47.024 337.699 47.344 337.923 47.728C338.179 48.08 338.307 48.48 338.307 48.928C338.307 49.632 337.955 50.272 337.251 50.848C336.547 51.424 335.587 51.872 334.371 52.192C333.187 52.512 331.859 52.672 330.387 52.672C327.891 52.672 325.715 52.224 323.859 51.328C322.035 50.4 320.611 49.04 319.587 47.248C318.563 45.424 318.051 43.2 318.051 40.576C318.051 38.688 318.323 37.024 318.867 35.584C319.443 34.112 320.227 32.896 321.219 31.936C322.211 30.944 323.379 30.192 324.723 29.68C326.067 29.168 327.507 28.912 329.043 28.912C331.059 28.912 332.835 29.344 334.371 30.208C335.907 31.04 337.107 32.208 337.971 33.712C338.867 35.184 339.315 36.896 339.315 38.848C339.315 39.616 339.107 40.192 338.691 40.576C338.307 40.928 337.779 41.152 337.107 41.248L321.219 43.504ZM358.398 46.816C357.886 45.792 357.262 44.448 356.526 42.784C355.822 41.088 355.086 39.184 354.318 37.072C353.55 34.96 352.814 32.704 352.11 30.304C352.366 29.952 352.718 29.664 353.166 29.44C353.646 29.216 354.142 29.104 354.654 29.104C355.358 29.104 355.918 29.28 356.334 29.632C356.782 29.952 357.134 30.512 357.39 31.312C358.286 33.904 359.214 36.48 360.174 39.04C361.134 41.568 362.174 44.176 363.294 46.864H363.486C364.126 45.488 364.782 43.824 365.454 41.872C366.126 39.92 366.766 37.872 367.374 35.728C368.014 33.584 368.526 31.552 368.91 29.632C369.23 29.472 369.55 29.344 369.87 29.248C370.222 29.152 370.606 29.104 371.022 29.104C371.694 29.104 372.254 29.264 372.702 29.584C373.182 29.904 373.422 30.416 373.422 31.12C373.422 31.76 373.278 32.704 372.99 33.952C372.702 35.168 372.318 36.56 371.838 38.128C371.358 39.696 370.798 41.344 370.158 43.072C369.518 44.768 368.83 46.432 368.094 48.064C367.39 49.696 366.67 51.168 365.934 52.48C364.398 55.296 362.974 57.44 361.662 58.912C360.382 60.384 359.166 61.12 358.014 61.12C357.15 61.12 356.462 60.88 355.95 60.4C355.438 59.92 355.134 59.328 355.038 58.624C355.71 58.016 356.462 57.248 357.294 56.32C358.126 55.392 358.926 54.384 359.694 53.296C360.494 52.24 361.15 51.232 361.662 50.272C361.118 50.112 360.59 49.808 360.078 49.36C359.598 48.88 359.038 48.032 358.398 46.816ZM399.393 40.768C399.393 43.2 398.929 45.312 398.001 47.104C397.073 48.864 395.761 50.24 394.065 51.232C392.369 52.192 390.385 52.672 388.113 52.672C385.809 52.672 383.809 52.192 382.113 51.232C380.417 50.24 379.105 48.864 378.177 47.104C377.249 45.312 376.785 43.2 376.785 40.768C376.785 38.336 377.249 36.24 378.177 34.48C379.137 32.72 380.465 31.36 382.161 30.4C383.857 29.408 385.841 28.912 388.113 28.912C390.353 28.912 392.321 29.408 394.017 30.4C395.713 31.36 397.025 32.72 397.953 34.48C398.913 36.24 399.393 38.336 399.393 40.768ZM388.113 32.848C386.161 32.848 384.609 33.552 383.457 34.96C382.305 36.368 381.729 38.304 381.729 40.768C381.729 43.296 382.289 45.264 383.409 46.672C384.529 48.048 386.097 48.736 388.113 48.736C390.097 48.736 391.633 48.032 392.721 46.624C393.841 45.216 394.401 43.264 394.401 40.768C394.401 38.304 393.841 36.368 392.721 34.96C391.601 33.552 390.065 32.848 388.113 32.848ZM404.891 43.6V39.52H409.739V43.456C409.739 45.344 410.219 46.704 411.179 47.536C412.171 48.336 413.547 48.736 415.307 48.736C416.459 48.736 417.435 48.624 418.235 48.4C419.035 48.144 419.659 47.888 420.107 47.632V39.52H424.955V47.824C424.955 48.528 424.843 49.104 424.619 49.552C424.427 50 423.995 50.416 423.323 50.8C422.523 51.28 421.435 51.712 420.059 52.096C418.683 52.48 417.083 52.672 415.259 52.672C413.115 52.672 411.259 52.352 409.691 51.712C408.123 51.072 406.923 50.08 406.091 48.736C405.291 47.392 404.891 45.68 404.891 43.6ZM424.955 41.92H420.107V29.632C420.299 29.568 420.603 29.504 421.019 29.44C421.435 29.344 421.867 29.296 422.315 29.296C423.243 29.296 423.915 29.472 424.331 29.824C424.747 30.144 424.955 30.72 424.955 31.552V41.92ZM409.739 41.92H404.891V29.632C405.083 29.568 405.387 29.504 405.803 29.44C406.219 29.344 406.667 29.296 407.147 29.296C408.011 29.296 408.651 29.472 409.067 29.824C409.515 30.144 409.739 30.72 409.739 31.552V41.92ZM436.505 34.336V41.392H431.657V34.24C431.657 33.472 431.817 32.848 432.137 32.368C432.457 31.856 432.953 31.376 433.625 30.928C434.521 30.352 435.689 29.872 437.129 29.488C438.601 29.104 440.201 28.912 441.929 28.912C444.713 28.912 446.105 29.696 446.105 31.264C446.105 31.648 446.041 32 445.913 32.32C445.817 32.64 445.673 32.912 445.481 33.136C445.161 33.072 444.745 33.024 444.233 32.992C443.753 32.928 443.257 32.896 442.745 32.896C441.433 32.896 440.233 33.04 439.145 33.328C438.089 33.584 437.209 33.92 436.505 34.336ZM431.657 39.328L436.505 39.76V51.904C436.281 51.968 435.961 52.048 435.545 52.144C435.161 52.24 434.745 52.288 434.297 52.288C433.401 52.288 432.729 52.128 432.281 51.808C431.865 51.456 431.657 50.864 431.657 50.032V39.328ZM481.331 40.768C481.331 43.2 480.867 45.312 479.939 47.104C479.011 48.864 477.699 50.24 476.003 51.232C474.307 52.192 472.323 52.672 470.051 52.672C467.747 52.672 465.747 52.192 464.051 51.232C462.355 50.24 461.043 48.864 460.115 47.104C459.187 45.312 458.723 43.2 458.723 40.768C458.723 38.336 459.187 36.24 460.115 34.48C461.075 32.72 462.403 31.36 464.099 30.4C465.795 29.408 467.779 28.912 470.051 28.912C472.291 28.912 474.259 29.408 475.955 30.4C477.651 31.36 478.963 32.72 479.891 34.48C480.851 36.24 481.331 38.336 481.331 40.768ZM470.051 32.848C468.099 32.848 466.547 33.552 465.395 34.96C464.243 36.368 463.667 38.304 463.667 40.768C463.667 43.296 464.227 45.264 465.347 46.672C466.467 48.048 468.035 48.736 470.051 48.736C472.035 48.736 473.571 48.032 474.659 46.624C475.779 45.216 476.339 43.264 476.339 40.768C476.339 38.304 475.779 36.368 474.659 34.96C473.539 33.552 472.003 32.848 470.051 32.848ZM496.861 52.624C495.549 52.624 494.333 52.448 493.213 52.096C492.093 51.744 491.229 51.344 490.621 50.896V46.576C491.229 47.12 491.981 47.616 492.877 48.064C493.805 48.48 494.909 48.688 496.189 48.688C498.269 48.688 499.933 48.048 501.181 46.768C502.429 45.488 503.053 43.472 503.053 40.72C503.053 38.768 502.733 37.232 502.093 36.112C501.485 34.96 500.669 34.128 499.645 33.616C498.621 33.104 497.485 32.848 496.237 32.848C495.213 32.848 494.333 32.976 493.597 33.232C492.861 33.488 492.221 33.76 491.677 34.048V49.6H486.829V33.856C486.829 33.152 486.957 32.592 487.213 32.176C487.469 31.728 487.933 31.296 488.605 30.88C489.501 30.368 490.589 29.92 491.869 29.536C493.181 29.12 494.637 28.912 496.237 28.912C498.477 28.912 500.477 29.328 502.237 30.16C503.997 30.96 505.389 32.24 506.413 34C507.437 35.728 507.949 37.968 507.949 40.72C507.949 43.344 507.469 45.552 506.509 47.344C505.581 49.104 504.285 50.432 502.621 51.328C500.957 52.192 499.037 52.624 496.861 52.624ZM489.469 60.976C488.573 60.976 487.901 60.8 487.453 60.448C487.037 60.096 486.829 59.52 486.829 58.72V48.112L491.677 48.16V60.64C491.453 60.704 491.133 60.768 490.717 60.832C490.333 60.928 489.917 60.976 489.469 60.976ZM513.502 39.328H518.35V45.472C518.35 46.656 518.686 47.488 519.358 47.968C520.03 48.448 520.974 48.688 522.19 48.688C522.734 48.688 523.31 48.608 523.918 48.448C524.558 48.288 525.102 48.096 525.55 47.872C525.774 48.096 525.966 48.368 526.126 48.688C526.286 49.008 526.366 49.392 526.366 49.84C526.366 50.672 525.934 51.344 525.07 51.856C524.238 52.368 522.99 52.624 521.326 52.624C518.958 52.624 517.054 52.096 515.614 51.04C514.206 49.984 513.502 48.24 513.502 45.808V39.328ZM516.238 33.952V30.064H525.838C525.934 30.224 526.046 30.48 526.174 30.832C526.302 31.184 526.366 31.552 526.366 31.936C526.366 32.608 526.206 33.12 525.886 33.472C525.566 33.792 525.134 33.952 524.59 33.952H516.238ZM518.35 40.72H513.502V23.344C513.694 23.28 513.998 23.216 514.414 23.152C514.83 23.056 515.278 23.008 515.758 23.008C516.622 23.008 517.262 23.184 517.678 23.536C518.126 23.856 518.35 24.416 518.35 25.216V40.72ZM531.258 22.672C531.258 21.872 531.53 21.2 532.074 20.656C532.65 20.112 533.37 19.84 534.234 19.84C535.098 19.84 535.802 20.112 536.346 20.656C536.89 21.2 537.162 21.872 537.162 22.672C537.162 23.472 536.89 24.144 536.346 24.688C535.802 25.232 535.098 25.504 534.234 25.504C533.37 25.504 532.65 25.232 532.074 24.688C531.53 24.144 531.258 23.472 531.258 22.672ZM531.786 39.328H536.682V51.904C536.458 51.968 536.138 52.048 535.722 52.144C535.338 52.24 534.906 52.288 534.426 52.288C533.562 52.288 532.906 52.128 532.458 51.808C532.01 51.456 531.786 50.864 531.786 50.032V39.328ZM536.682 41.776H531.786V29.728C532.01 29.632 532.314 29.552 532.698 29.488C533.114 29.392 533.562 29.344 534.042 29.344C534.938 29.344 535.594 29.52 536.01 29.872C536.458 30.192 536.682 30.768 536.682 31.6V41.776ZM565.049 40.768C565.049 43.2 564.585 45.312 563.657 47.104C562.729 48.864 561.417 50.24 559.721 51.232C558.025 52.192 556.041 52.672 553.769 52.672C551.465 52.672 549.465 52.192 547.769 51.232C546.073 50.24 544.761 48.864 543.833 47.104C542.905 45.312 542.441 43.2 542.441 40.768C542.441 38.336 542.905 36.24 543.833 34.48C544.793 32.72 546.121 31.36 547.817 30.4C549.513 29.408 551.497 28.912 553.769 28.912C556.009 28.912 557.977 29.408 559.673 30.4C561.369 31.36 562.681 32.72 563.609 34.48C564.569 36.24 565.049 38.336 565.049 40.768ZM553.769 32.848C551.817 32.848 550.265 33.552 549.113 34.96C547.961 36.368 547.385 38.304 547.385 40.768C547.385 43.296 547.945 45.264 549.065 46.672C550.185 48.048 551.753 48.736 553.769 48.736C555.753 48.736 557.289 48.032 558.377 46.624C559.497 45.216 560.057 43.264 560.057 40.768C560.057 38.304 559.497 36.368 558.377 34.96C557.257 33.552 555.721 32.848 553.769 32.848ZM590.612 37.264V42.064H585.764V37.456C585.764 35.856 585.3 34.688 584.372 33.952C583.476 33.216 582.26 32.848 580.724 32.848C579.604 32.848 578.596 32.992 577.7 33.28C576.804 33.536 576.036 33.856 575.396 34.24V42.064H570.548V34.144C570.548 33.408 570.692 32.816 570.98 32.368C571.268 31.92 571.748 31.472 572.42 31.024C573.316 30.48 574.484 30 575.924 29.584C577.364 29.136 578.98 28.912 580.772 28.912C583.844 28.912 586.244 29.616 587.972 31.024C589.732 32.4 590.612 34.48 590.612 37.264ZM570.548 39.568H575.396V51.904C575.172 51.968 574.852 52.048 574.436 52.144C574.052 52.24 573.636 52.288 573.188 52.288C572.292 52.288 571.62 52.128 571.172 51.808C570.756 51.456 570.548 50.864 570.548 50.032V39.568ZM585.764 39.568H590.612V51.904C590.42 51.968 590.116 52.048 589.7 52.144C589.284 52.24 588.852 52.288 588.404 52.288C587.476 52.288 586.804 52.128 586.388 51.808C585.972 51.456 585.764 50.864 585.764 50.032V39.568ZM613.873 45.856C613.873 48 613.073 49.68 611.473 50.896C609.905 52.08 607.617 52.672 604.609 52.672C602.113 52.672 600.065 52.288 598.465 51.52C596.897 50.752 596.113 49.84 596.113 48.784C596.113 48.304 596.225 47.856 596.449 47.44C596.705 47.024 597.041 46.704 597.457 46.48C598.353 47.056 599.377 47.584 600.529 48.064C601.681 48.544 603.009 48.784 604.513 48.784C607.553 48.784 609.073 47.808 609.073 45.856C609.073 45.056 608.801 44.4 608.257 43.888C607.745 43.376 606.977 42.992 605.953 42.736L602.545 41.872C600.401 41.392 598.817 40.624 597.793 39.568C596.801 38.512 596.305 37.152 596.305 35.488C596.305 33.632 597.057 32.08 598.561 30.832C600.097 29.552 602.305 28.912 605.185 28.912C606.689 28.912 608.017 29.072 609.169 29.392C610.353 29.68 611.265 30.096 611.905 30.64C612.577 31.152 612.913 31.744 612.913 32.416C612.913 32.896 612.801 33.328 612.577 33.712C612.353 34.096 612.065 34.384 611.713 34.576C611.329 34.32 610.817 34.064 610.177 33.808C609.569 33.52 608.849 33.28 608.017 33.088C607.217 32.864 606.369 32.752 605.473 32.752C604.129 32.752 603.057 32.992 602.257 33.472C601.489 33.952 601.105 34.624 601.105 35.488C601.105 36.128 601.329 36.672 601.777 37.12C602.225 37.568 602.977 37.92 604.033 38.176L606.913 38.848C609.281 39.424 611.025 40.288 612.145 41.44C613.297 42.56 613.873 44.032 613.873 45.856Z" fill="black"/>
<path d="M629 35C626.791 35 625 36.7909 625 39C625 41.2091 626.791 43 629 43V35ZM681.828 41.8284C683.391 40.2663 683.391 37.7337 681.828 36.1716L656.373 10.7157C654.81 9.15363 652.278 9.15363 650.716 10.7157C649.154 12.2778 649.154 14.8105 650.716 16.3726L673.343 39L650.716 61.6274C649.154 63.1895 649.154 65.7222 650.716 67.2843C652.278 68.8464 654.81 68.8464 656.373 67.2843L681.828 41.8284ZM629 43H679V35H629V43Z" fill="black"/>
<line x1="694" y1="65" x2="694" y2="13" stroke="black" stroke-width="8" stroke-linecap="round"/>
<path d="M220.5 53C220.5 61.2566 213.925 69.1153 202.425 74.9992C191.005 80.842 175.124 84.5 157.5 84.5C139.876 84.5 123.995 80.842 112.575 74.9992C101.075 69.1153 94.5 61.2566 94.5 53C94.5 44.7434 101.075 36.8847 112.575 31.0008C123.995 25.158 139.876 21.5 157.5 21.5C175.124 21.5 191.005 25.158 202.425 31.0008C213.925 36.8847 220.5 44.7434 220.5 53Z" stroke="#BA1616" stroke-width="3"/>
</svg>
