<svg width="60" height="60" viewBox="0 0 60 60" fill="none" xmlns="http://www.w3.org/2000/svg">
<circle cx="30" cy="30" r="30" fill="white"/>
<path d="M52 32.5C53.3807 32.5 54.5 31.3807 54.5 30C54.5 28.6193 53.3807 27.5 52 27.5V32.5ZM10.2322 28.2322C9.25592 29.2085 9.25592 30.7915 10.2322 31.7678L26.1421 47.6777C27.1184 48.654 28.7014 48.654 29.6777 47.6777C30.654 46.7014 30.654 45.1184 29.6777 44.1421L15.5355 30L29.6777 15.8579C30.654 14.8816 30.654 13.2986 29.6777 12.3223C28.7014 11.346 27.1184 11.346 26.1421 12.3223L10.2322 28.2322ZM52 27.5L12 27.5V32.5L52 32.5V27.5Z" fill="black"/>
</svg>
