<svg width="279" height="51" viewBox="0 0 279 51" fill="none" xmlns="http://www.w3.org/2000/svg">
<rect x="-1.5" y="1.5" width="276" height="47" rx="23.5" transform="matrix(-1 0 0 1 276 1)" stroke="#BA1616" stroke-width="3"/>
<path d="M34.784 24.664V28.312H31.552V24.984C31.552 24.024 31.2747 23.3307 30.72 22.904C30.1653 22.456 29.44 22.232 28.544 22.232C27.9467 22.232 27.3707 22.328 26.816 22.52C26.2827 22.712 25.8347 22.9253 25.472 23.16V28.312H22.24V23.096C22.24 22.6267 22.336 22.2427 22.528 21.944C22.72 21.624 23.04 21.3147 23.488 21.016C24.0853 20.632 24.8533 20.3013 25.792 20.024C26.7307 19.7467 27.68 19.608 28.64 19.608C29.7067 19.608 30.6667 19.768 31.52 20.088C32.3733 20.408 33.0347 20.8773 33.504 21.496C33.6533 21.624 33.7813 21.752 33.888 21.88C33.9947 21.9867 34.0907 22.1253 34.176 22.296C34.3467 22.5733 34.4853 22.9147 34.592 23.32C34.72 23.7253 34.784 24.1733 34.784 24.664ZM44.096 24.824V28.312H40.864V24.984C40.864 24.024 40.5973 23.3307 40.064 22.904C39.5307 22.456 38.816 22.232 37.92 22.232C37.2587 22.232 36.6187 22.3707 36 22.648C35.3813 22.904 34.8267 23.2773 34.336 23.768L32.864 21.624C33.4613 21.0907 34.208 20.6213 35.104 20.216C36 19.8107 37.056 19.608 38.272 19.608C39.4027 19.608 40.4053 19.7893 41.28 20.152C42.1547 20.5147 42.8373 21.0907 43.328 21.88C43.84 22.648 44.096 23.6293 44.096 24.824ZM22.24 26.712H25.472V34.936C25.3227 34.9787 25.1093 35.032 24.832 35.096C24.576 35.16 24.2987 35.192 24 35.192C23.4027 35.192 22.9547 35.0853 22.656 34.872C22.3787 34.6373 22.24 34.2427 22.24 33.688V26.712ZM31.552 26.712H34.784V34.936C34.656 34.9787 34.4533 35.032 34.176 35.096C33.8987 35.16 33.6107 35.192 33.312 35.192C32.7147 35.192 32.2667 35.0853 31.968 34.872C31.6907 34.6373 31.552 34.2427 31.552 33.688V26.712ZM40.864 26.712H44.096V34.936C43.968 34.9787 43.7653 35.032 43.488 35.096C43.2107 35.16 42.9227 35.192 42.624 35.192C42.0267 35.192 41.5787 35.0853 41.28 34.872C41.0027 34.6373 40.864 34.2427 40.864 33.688V26.712ZM54.1838 35.448C52.1144 35.448 50.4931 35.0533 49.3198 34.264C48.1678 33.4533 47.5918 32.2693 47.5918 30.712C47.5918 29.304 48.0504 28.2267 48.9678 27.48C49.9064 26.7333 51.2078 26.2747 52.8718 26.104L57.3518 25.656V24.92C57.3518 23.96 57.0424 23.2667 56.4238 22.84C55.8051 22.392 54.9624 22.168 53.8958 22.168C53.0424 22.168 52.2104 22.2853 51.3998 22.52C50.6104 22.7547 49.9064 23.032 49.2878 23.352C49.0958 23.1813 48.9251 22.9787 48.7758 22.744C48.6264 22.488 48.5518 22.232 48.5518 21.976C48.5518 21.2933 48.9144 20.792 49.6398 20.472C50.2158 20.1947 50.8878 19.9813 51.6558 19.832C52.4451 19.6827 53.2558 19.608 54.0878 19.608C56.0504 19.608 57.6078 20.0347 58.7598 20.888C59.9331 21.7413 60.5198 23.096 60.5198 24.952V32.44C60.5198 32.9307 60.4131 33.3147 60.1998 33.592C59.9864 33.848 59.6984 34.0933 59.3358 34.328C58.7811 34.6267 58.0558 34.8827 57.1598 35.096C56.2851 35.3307 55.2931 35.448 54.1838 35.448ZM54.1838 32.92C54.9518 32.92 55.6131 32.8453 56.1678 32.696C56.7224 32.5253 57.1171 32.3653 57.3518 32.216V28.056L53.7678 28.408C52.7864 28.4933 52.0398 28.7173 51.5278 29.08C51.0371 29.4427 50.7918 29.9653 50.7918 30.648C50.7918 31.352 51.0691 31.9067 51.6238 32.312C52.1998 32.7173 53.0531 32.92 54.1838 32.92ZM72.1923 22.264C70.8269 22.264 69.6856 22.7227 68.7683 23.64C67.8509 24.536 67.3923 25.8373 67.3923 27.544C67.3923 29.2507 67.8296 30.552 68.7043 31.448C69.6003 32.344 70.7523 32.792 72.1603 32.792C73.0136 32.792 73.7283 32.6853 74.3043 32.472C74.8803 32.2373 75.3816 31.9813 75.8083 31.704C76.0856 31.8747 76.2989 32.0773 76.4483 32.312C76.6189 32.5253 76.7043 32.8027 76.7043 33.144C76.7043 33.784 76.2669 34.328 75.3923 34.776C74.5176 35.2027 73.3976 35.416 72.0323 35.416C70.4749 35.416 69.0989 35.128 67.9043 34.552C66.7096 33.976 65.7709 33.112 65.0883 31.96C64.4269 30.7867 64.0963 29.3147 64.0963 27.544C64.0963 25.7947 64.4483 24.3333 65.1523 23.16C65.8563 21.9653 66.8056 21.08 68.0003 20.504C69.1949 19.9067 70.5069 19.608 71.9363 19.608C73.3016 19.608 74.4109 19.8427 75.2643 20.312C76.1176 20.7813 76.5443 21.3467 76.5443 22.008C76.5443 22.2853 76.4696 22.5413 76.3203 22.776C76.1709 23.0107 75.9683 23.192 75.7123 23.32C75.2643 23.0427 74.7629 22.7973 74.2083 22.584C73.6749 22.3707 73.0029 22.264 72.1923 22.264ZM93.7105 28.6H90.4785V25.656C90.4785 24.4827 90.1478 23.6187 89.4865 23.064C88.8465 22.5093 88.0252 22.232 87.0225 22.232C86.2332 22.232 85.5078 22.3813 84.8465 22.68C84.1852 22.9787 83.6198 23.3307 83.1505 23.736L82.7985 21.112C83.2892 20.7707 83.9398 20.44 84.7505 20.12C85.5612 19.7787 86.4785 19.608 87.5025 19.608C89.3585 19.608 90.8518 20.0987 91.9825 21.08C93.1345 22.0613 93.7105 23.544 93.7105 25.528V28.6ZM80.3665 26.552H83.5985V34.936C83.4492 34.9787 83.2358 35.032 82.9585 35.096C82.7025 35.16 82.4252 35.192 82.1265 35.192C81.5292 35.192 81.0812 35.0853 80.7825 34.872C80.5052 34.6373 80.3665 34.2427 80.3665 33.688V26.552ZM90.4785 26.584L93.7105 26.616V34.936C93.5825 34.9787 93.3798 35.032 93.1025 35.096C92.8252 35.16 92.5372 35.192 92.2385 35.192C91.6412 35.192 91.1932 35.0853 90.8945 34.872C90.6172 34.6373 90.4785 34.2427 90.4785 33.688V26.584ZM83.5985 28.184H80.3665V14.232C80.4945 14.1893 80.6972 14.1467 80.9745 14.104C81.2518 14.04 81.5505 14.008 81.8705 14.008C82.4465 14.008 82.8732 14.1147 83.1505 14.328C83.4492 14.5413 83.5985 14.9253 83.5985 15.48V28.184ZM97.9535 15.448C97.9535 14.9147 98.1348 14.4667 98.4975 14.104C98.8815 13.7413 99.3615 13.56 99.9375 13.56C100.514 13.56 100.983 13.7413 101.346 14.104C101.708 14.4667 101.89 14.9147 101.89 15.448C101.89 15.9813 101.708 16.4293 101.346 16.792C100.983 17.1547 100.514 17.336 99.9375 17.336C99.3615 17.336 98.8815 17.1547 98.4975 16.792C98.1348 16.4293 97.9535 15.9813 97.9535 15.448ZM98.3055 26.552H101.57V34.936C101.42 34.9787 101.207 35.032 100.93 35.096C100.674 35.16 100.386 35.192 100.066 35.192C99.4895 35.192 99.0522 35.0853 98.7535 34.872C98.4548 34.6373 98.3055 34.2427 98.3055 33.688V26.552ZM101.57 28.184H98.3055V20.152C98.4548 20.088 98.6575 20.0347 98.9135 19.992C99.1908 19.928 99.4895 19.896 99.8095 19.896C100.407 19.896 100.844 20.0133 101.122 20.248C101.42 20.4613 101.57 20.8453 101.57 21.4V28.184ZM119.585 25.176V28.376H116.353V25.304C116.353 24.2373 116.043 23.4587 115.425 22.968C114.827 22.4773 114.017 22.232 112.993 22.232C112.246 22.232 111.574 22.328 110.977 22.52C110.379 22.6907 109.867 22.904 109.441 23.16V28.376H106.209V23.096C106.209 22.6053 106.305 22.2107 106.497 21.912C106.689 21.6133 107.009 21.3147 107.457 21.016C108.054 20.6533 108.833 20.3333 109.793 20.056C110.753 19.7573 111.83 19.608 113.025 19.608C115.073 19.608 116.673 20.0773 117.825 21.016C118.998 21.9333 119.585 23.32 119.585 25.176ZM106.209 26.712H109.441V34.936C109.291 34.9787 109.078 35.032 108.801 35.096C108.545 35.16 108.267 35.192 107.969 35.192C107.371 35.192 106.923 35.0853 106.625 34.872C106.347 34.6373 106.209 34.2427 106.209 33.688V26.712ZM116.353 26.712H119.585V34.936C119.457 34.9787 119.254 35.032 118.977 35.096C118.699 35.16 118.411 35.192 118.113 35.192C117.494 35.192 117.046 35.0853 116.769 34.872C116.491 34.6373 116.353 34.2427 116.353 33.688V26.712ZM125.365 29.336L125.237 26.968L134.357 25.656C134.271 24.6533 133.909 23.8213 133.269 23.16C132.629 22.4773 131.722 22.136 130.549 22.136C129.333 22.136 128.33 22.5627 127.541 23.416C126.751 24.2693 126.346 25.496 126.325 27.096L126.389 28.248C126.538 29.784 127.071 30.936 127.989 31.704C128.927 32.472 130.154 32.856 131.669 32.856C132.565 32.856 133.375 32.7173 134.101 32.44C134.847 32.1627 135.445 31.8533 135.893 31.512C136.149 31.6827 136.351 31.896 136.501 32.152C136.671 32.3867 136.757 32.6533 136.757 32.952C136.757 33.4213 136.522 33.848 136.053 34.232C135.583 34.616 134.943 34.9147 134.133 35.128C133.343 35.3413 132.458 35.448 131.477 35.448C129.813 35.448 128.362 35.1493 127.125 34.552C125.909 33.9333 124.959 33.0267 124.277 31.832C123.594 30.616 123.253 29.1333 123.253 27.384C123.253 26.1253 123.434 25.016 123.797 24.056C124.181 23.0747 124.703 22.264 125.365 21.624C126.026 20.9627 126.805 20.4613 127.701 20.12C128.597 19.7787 129.557 19.608 130.581 19.608C131.925 19.608 133.109 19.896 134.133 20.472C135.157 21.0267 135.957 21.8053 136.533 22.808C137.13 23.7893 137.429 24.9307 137.429 26.232C137.429 26.744 137.29 27.128 137.013 27.384C136.757 27.6187 136.405 27.768 135.957 27.832L125.365 29.336ZM147.527 26.552L150.759 26.84V34.936C150.631 34.9787 150.428 35.032 150.151 35.096C149.895 35.16 149.606 35.192 149.286 35.192C148.689 35.192 148.241 35.0853 147.943 34.872C147.665 34.6373 147.527 34.2427 147.527 33.688V26.552ZM150.759 28.44L147.527 28.184V14.232C147.655 14.1893 147.857 14.1467 148.135 14.104C148.412 14.04 148.7 14.008 148.999 14.008C149.617 14.008 150.065 14.1147 150.343 14.328C150.62 14.5413 150.759 14.9253 150.759 15.48V28.44ZM156.771 29.336L156.643 26.968L165.763 25.656C165.677 24.6533 165.315 23.8213 164.675 23.16C164.035 22.4773 163.128 22.136 161.955 22.136C160.739 22.136 159.736 22.5627 158.947 23.416C158.157 24.2693 157.752 25.496 157.731 27.096L157.795 28.248C157.944 29.784 158.477 30.936 159.395 31.704C160.333 32.472 161.56 32.856 163.075 32.856C163.971 32.856 164.781 32.7173 165.507 32.44C166.253 32.1627 166.851 31.8533 167.299 31.512C167.555 31.6827 167.757 31.896 167.907 32.152C168.077 32.3867 168.163 32.6533 168.163 32.952C168.163 33.4213 167.928 33.848 167.459 34.232C166.989 34.616 166.349 34.9147 165.539 35.128C164.749 35.3413 163.864 35.448 162.883 35.448C161.219 35.448 159.768 35.1493 158.531 34.552C157.315 33.9333 156.365 33.0267 155.683 31.832C155 30.616 154.659 29.1333 154.659 27.384C154.659 26.1253 154.84 25.016 155.203 24.056C155.587 23.0747 156.109 22.264 156.771 21.624C157.432 20.9627 158.211 20.4613 159.107 20.12C160.003 19.7787 160.963 19.608 161.987 19.608C163.331 19.608 164.515 19.896 165.539 20.472C166.563 21.0267 167.363 21.8053 167.939 22.808C168.536 23.7893 168.835 24.9307 168.835 26.232C168.835 26.744 168.696 27.128 168.419 27.384C168.163 27.6187 167.811 27.768 167.363 27.832L156.771 29.336ZM177.903 35.448C175.833 35.448 174.212 35.0533 173.039 34.264C171.887 33.4533 171.311 32.2693 171.311 30.712C171.311 29.304 171.769 28.2267 172.687 27.48C173.625 26.7333 174.927 26.2747 176.591 26.104L181.071 25.656V24.92C181.071 23.96 180.761 23.2667 180.143 22.84C179.524 22.392 178.681 22.168 177.615 22.168C176.761 22.168 175.929 22.2853 175.119 22.52C174.329 22.7547 173.625 23.032 173.007 23.352C172.815 23.1813 172.644 22.9787 172.495 22.744C172.345 22.488 172.271 22.232 172.271 21.976C172.271 21.2933 172.633 20.792 173.359 20.472C173.935 20.1947 174.607 19.9813 175.375 19.832C176.164 19.6827 176.975 19.608 177.807 19.608C179.769 19.608 181.327 20.0347 182.479 20.888C183.652 21.7413 184.239 23.096 184.239 24.952V32.44C184.239 32.9307 184.132 33.3147 183.919 33.592C183.705 33.848 183.417 34.0933 183.055 34.328C182.5 34.6267 181.775 34.8827 180.879 35.096C180.004 35.3307 179.012 35.448 177.903 35.448ZM177.903 32.92C178.671 32.92 179.332 32.8453 179.887 32.696C180.441 32.5253 180.836 32.3653 181.071 32.216V28.056L177.487 28.408C176.505 28.4933 175.759 28.7173 175.247 29.08C174.756 29.4427 174.511 29.9653 174.511 30.648C174.511 31.352 174.788 31.9067 175.343 32.312C175.919 32.7173 176.772 32.92 177.903 32.92ZM191.847 23.224V27.928H188.615V23.16C188.615 22.648 188.722 22.232 188.935 21.912C189.148 21.5707 189.479 21.2507 189.927 20.952C190.524 20.568 191.303 20.248 192.263 19.992C193.244 19.736 194.311 19.608 195.463 19.608C197.319 19.608 198.247 20.1307 198.247 21.176C198.247 21.432 198.204 21.6667 198.119 21.88C198.055 22.0933 197.959 22.2747 197.831 22.424C197.618 22.3813 197.34 22.3493 196.999 22.328C196.679 22.2853 196.348 22.264 196.007 22.264C195.132 22.264 194.332 22.36 193.607 22.552C192.903 22.7227 192.316 22.9467 191.847 23.224ZM188.615 26.552L191.847 26.84V34.936C191.698 34.9787 191.484 35.032 191.207 35.096C190.951 35.16 190.674 35.192 190.375 35.192C189.778 35.192 189.33 35.0853 189.031 34.872C188.754 34.6373 188.615 34.2427 188.615 33.688V26.552ZM214.241 25.176V28.376H211.009V25.304C211.009 24.2373 210.7 23.4587 210.081 22.968C209.484 22.4773 208.673 22.232 207.649 22.232C206.902 22.232 206.23 22.328 205.633 22.52C205.036 22.6907 204.524 22.904 204.097 23.16V28.376H200.865V23.096C200.865 22.6053 200.961 22.2107 201.153 21.912C201.345 21.6133 201.665 21.3147 202.113 21.016C202.71 20.6533 203.489 20.3333 204.449 20.056C205.409 19.7573 206.486 19.608 207.681 19.608C209.729 19.608 211.329 20.0773 212.481 21.016C213.654 21.9333 214.241 23.32 214.241 25.176ZM200.865 26.712H204.097V34.936C203.948 34.9787 203.734 35.032 203.457 35.096C203.201 35.16 202.924 35.192 202.625 35.192C202.028 35.192 201.58 35.0853 201.281 34.872C201.004 34.6373 200.865 34.2427 200.865 33.688V26.712ZM211.009 26.712H214.241V34.936C214.113 34.9787 213.91 35.032 213.633 35.096C213.356 35.16 213.068 35.192 212.769 35.192C212.15 35.192 211.702 35.0853 211.425 34.872C211.148 34.6373 211.009 34.2427 211.009 33.688V26.712ZM218.485 15.448C218.485 14.9147 218.666 14.4667 219.029 14.104C219.413 13.7413 219.893 13.56 220.469 13.56C221.045 13.56 221.514 13.7413 221.877 14.104C222.239 14.4667 222.421 14.9147 222.421 15.448C222.421 15.9813 222.239 16.4293 221.877 16.792C221.514 17.1547 221.045 17.336 220.469 17.336C219.893 17.336 219.413 17.1547 219.029 16.792C218.666 16.4293 218.485 15.9813 218.485 15.448ZM218.837 26.552H222.101V34.936C221.951 34.9787 221.738 35.032 221.461 35.096C221.205 35.16 220.917 35.192 220.597 35.192C220.021 35.192 219.583 35.0853 219.285 34.872C218.986 34.6373 218.837 34.2427 218.837 33.688V26.552ZM222.101 28.184H218.837V20.152C218.986 20.088 219.189 20.0347 219.445 19.992C219.722 19.928 220.021 19.896 220.341 19.896C220.938 19.896 221.375 20.0133 221.653 20.248C221.951 20.4613 222.101 20.8453 222.101 21.4V28.184ZM240.116 25.176V28.376H236.884V25.304C236.884 24.2373 236.575 23.4587 235.956 22.968C235.359 22.4773 234.548 22.232 233.524 22.232C232.777 22.232 232.105 22.328 231.508 22.52C230.911 22.6907 230.399 22.904 229.972 23.16V28.376H226.74V23.096C226.74 22.6053 226.836 22.2107 227.028 21.912C227.22 21.6133 227.54 21.3147 227.988 21.016C228.585 20.6533 229.364 20.3333 230.324 20.056C231.284 19.7573 232.361 19.608 233.556 19.608C235.604 19.608 237.204 20.0773 238.356 21.016C239.529 21.9333 240.116 23.32 240.116 25.176ZM226.74 26.712H229.972V34.936C229.823 34.9787 229.609 35.032 229.332 35.096C229.076 35.16 228.799 35.192 228.5 35.192C227.903 35.192 227.455 35.0853 227.156 34.872C226.879 34.6373 226.74 34.2427 226.74 33.688V26.712ZM236.884 26.712H240.116V34.936C239.988 34.9787 239.785 35.032 239.508 35.096C239.231 35.16 238.943 35.192 238.644 35.192C238.025 35.192 237.577 35.0853 237.3 34.872C237.023 34.6373 236.884 34.2427 236.884 33.688V26.712ZM250.792 34.52C249.533 34.52 248.37 34.2747 247.304 33.784C246.258 33.2933 245.416 32.504 244.776 31.416C244.136 30.328 243.816 28.8773 243.816 27.064C243.816 25.4213 244.136 24.056 244.776 22.968C245.416 21.8587 246.301 21.0267 247.432 20.472C248.584 19.896 249.906 19.608 251.4 19.608C252.424 19.608 253.373 19.7467 254.248 20.024C255.122 20.28 255.837 20.5893 256.392 20.952C256.733 21.1653 257.01 21.4213 257.224 21.72C257.437 22.0187 257.544 22.3813 257.544 22.808V32.728H254.376V23C254.034 22.7867 253.629 22.6053 253.16 22.456C252.69 22.3067 252.125 22.232 251.464 22.232C250.141 22.232 249.074 22.6373 248.264 23.448C247.474 24.2373 247.08 25.4427 247.08 27.064C247.08 28.8347 247.474 30.0933 248.264 30.84C249.074 31.5653 250.066 31.928 251.24 31.928C252.114 31.928 252.818 31.7787 253.352 31.48C253.906 31.1813 254.354 30.8613 254.696 30.52L254.824 33.24C254.461 33.56 253.938 33.8587 253.256 34.136C252.573 34.392 251.752 34.52 250.792 34.52ZM254.376 35.288V32.024H257.544V35.448C257.544 36.8773 257.224 38.0293 256.584 38.904C255.965 39.7787 255.101 40.4187 253.992 40.824C252.904 41.2293 251.677 41.432 250.312 41.432C249.224 41.432 248.285 41.3147 247.496 41.08C246.706 40.8667 246.141 40.664 245.8 40.472C245.138 40.0667 244.808 39.544 244.808 38.904C244.808 38.5627 244.882 38.264 245.032 38.008C245.181 37.7733 245.362 37.592 245.576 37.464C246.066 37.8053 246.717 38.1147 247.528 38.392C248.338 38.6693 249.202 38.808 250.12 38.808C251.485 38.808 252.53 38.52 253.256 37.944C254.002 37.3893 254.376 36.504 254.376 35.288Z" fill="black"/>
</svg>
