<svg width="304" height="51" viewBox="0 0 304 51" fill="none" xmlns="http://www.w3.org/2000/svg">
<rect width="304" height="50" rx="25" transform="matrix(-1 0 0 1 304 1)" fill="#D9D9D9"/>
<path d="M29.536 22.264C28.1707 22.264 27.0293 22.7227 26.112 23.64C25.1947 24.536 24.736 25.8373 24.736 27.544C24.736 29.2507 25.1733 30.552 26.048 31.448C26.944 32.344 28.096 32.792 29.504 32.792C30.3573 32.792 31.072 32.6853 31.648 32.472C32.224 32.2373 32.7253 31.9813 33.152 31.704C33.4293 31.8747 33.6427 32.0773 33.792 32.312C33.9627 32.5253 34.048 32.8027 34.048 33.144C34.048 33.784 33.6107 34.328 32.736 34.776C31.8613 35.2027 30.7413 35.416 29.376 35.416C27.8187 35.416 26.4427 35.128 25.248 34.552C24.0533 33.976 23.1147 33.112 22.432 31.96C21.7707 30.7867 21.44 29.3147 21.44 27.544C21.44 25.7947 21.792 24.3333 22.496 23.16C23.2 21.9653 24.1493 21.08 25.344 20.504C26.5387 19.9067 27.8507 19.608 29.28 19.608C30.6453 19.608 31.7547 19.8427 32.608 20.312C33.4613 20.7813 33.888 21.3467 33.888 22.008C33.888 22.2853 33.8133 22.5413 33.664 22.776C33.5147 23.0107 33.312 23.192 33.056 23.32C32.608 23.0427 32.1067 22.7973 31.552 22.584C31.0187 22.3707 30.3467 22.264 29.536 22.264ZM51.512 27.512C51.512 29.1333 51.2027 30.5413 50.584 31.736C49.9653 32.9093 49.0907 33.8267 47.96 34.488C46.8293 35.128 45.5067 35.448 43.992 35.448C42.456 35.448 41.1227 35.128 39.992 34.488C38.8613 33.8267 37.9867 32.9093 37.368 31.736C36.7493 30.5413 36.44 29.1333 36.44 27.512C36.44 25.8907 36.7493 24.4933 37.368 23.32C38.008 22.1467 38.8933 21.24 40.024 20.6C41.1547 19.9387 42.4773 19.608 43.992 19.608C45.4853 19.608 46.7973 19.9387 47.928 20.6C49.0587 21.24 49.9333 22.1467 50.552 23.32C51.192 24.4933 51.512 25.8907 51.512 27.512ZM43.992 22.232C42.6907 22.232 41.656 22.7013 40.888 23.64C40.12 24.5787 39.736 25.8693 39.736 27.512C39.736 29.1973 40.1093 30.5093 40.856 31.448C41.6027 32.3653 42.648 32.824 43.992 32.824C45.3147 32.824 46.3387 32.3547 47.064 31.416C47.8107 30.4773 48.184 29.176 48.184 27.512C48.184 25.8693 47.8107 24.5787 47.064 23.64C46.3173 22.7013 45.2933 22.232 43.992 22.232ZM67.7215 24.664V28.312H64.4895V24.984C64.4895 24.024 64.2122 23.3307 63.6575 22.904C63.1028 22.456 62.3775 22.232 61.4815 22.232C60.8842 22.232 60.3082 22.328 59.7535 22.52C59.2202 22.712 58.7722 22.9253 58.4095 23.16V28.312H55.1775V23.096C55.1775 22.6267 55.2735 22.2427 55.4655 21.944C55.6575 21.624 55.9775 21.3147 56.4255 21.016C57.0228 20.632 57.7908 20.3013 58.7295 20.024C59.6682 19.7467 60.6175 19.608 61.5775 19.608C62.6442 19.608 63.6042 19.768 64.4575 20.088C65.3108 20.408 65.9722 20.8773 66.4415 21.496C66.5908 21.624 66.7188 21.752 66.8255 21.88C66.9322 21.9867 67.0282 22.1253 67.1135 22.296C67.2842 22.5733 67.4228 22.9147 67.5295 23.32C67.6575 23.7253 67.7215 24.1733 67.7215 24.664ZM77.0335 24.824V28.312H73.8015V24.984C73.8015 24.024 73.5348 23.3307 73.0015 22.904C72.4682 22.456 71.7535 22.232 70.8575 22.232C70.1962 22.232 69.5562 22.3707 68.9375 22.648C68.3188 22.904 67.7642 23.2773 67.2735 23.768L65.8015 21.624C66.3988 21.0907 67.1455 20.6213 68.0415 20.216C68.9375 19.8107 69.9935 19.608 71.2095 19.608C72.3402 19.608 73.3428 19.7893 74.2175 20.152C75.0922 20.5147 75.7748 21.0907 76.2655 21.88C76.7775 22.648 77.0335 23.6293 77.0335 24.824ZM55.1775 26.712H58.4095V34.936C58.2602 34.9787 58.0468 35.032 57.7695 35.096C57.5135 35.16 57.2362 35.192 56.9375 35.192C56.3402 35.192 55.8922 35.0853 55.5935 34.872C55.3162 34.6373 55.1775 34.2427 55.1775 33.688V26.712ZM64.4895 26.712H67.7215V34.936C67.5935 34.9787 67.3908 35.032 67.1135 35.096C66.8362 35.16 66.5482 35.192 66.2495 35.192C65.6522 35.192 65.2042 35.0853 64.9055 34.872C64.6282 34.6373 64.4895 34.2427 64.4895 33.688V26.712ZM73.8015 26.712H77.0335V34.936C76.9055 34.9787 76.7028 35.032 76.4255 35.096C76.1482 35.16 75.8602 35.192 75.5615 35.192C74.9642 35.192 74.5162 35.0853 74.2175 34.872C73.9402 34.6373 73.8015 34.2427 73.8015 33.688V26.712ZM88.2093 35.416C87.3346 35.416 86.5239 35.2987 85.7773 35.064C85.0306 34.8293 84.4546 34.5627 84.0493 34.264V31.384C84.4546 31.7467 84.9559 32.0773 85.5533 32.376C86.1719 32.6533 86.9079 32.792 87.7613 32.792C89.1479 32.792 90.2573 32.3653 91.0893 31.512C91.9213 30.6587 92.3373 29.3147 92.3373 27.48C92.3373 26.1787 92.1239 25.1547 91.6973 24.408C91.2919 23.64 90.7479 23.0853 90.0653 22.744C89.3826 22.4027 88.6253 22.232 87.7933 22.232C87.1106 22.232 86.5239 22.3173 86.0333 22.488C85.5426 22.6587 85.1159 22.84 84.7533 23.032V33.4H81.5213V22.904C81.5213 22.4347 81.6066 22.0613 81.7773 21.784C81.9479 21.4853 82.2573 21.1973 82.7053 20.92C83.3026 20.5787 84.0279 20.28 84.8813 20.024C85.7559 19.7467 86.7266 19.608 87.7933 19.608C89.2866 19.608 90.6199 19.8853 91.7933 20.44C92.9666 20.9733 93.8946 21.8267 94.5773 23C95.2599 24.152 95.6013 25.6453 95.6013 27.48C95.6013 29.2293 95.2813 30.7013 94.6413 31.896C94.0226 33.0693 93.1586 33.9547 92.0493 34.552C90.9399 35.128 89.6599 35.416 88.2093 35.416ZM83.2812 40.984C82.6839 40.984 82.2359 40.8667 81.9373 40.632C81.6599 40.3973 81.5213 40.0133 81.5213 39.48V32.408L84.7533 32.44V40.76C84.6039 40.8027 84.3906 40.8453 84.1133 40.888C83.8573 40.952 83.5799 40.984 83.2812 40.984ZM99.2713 29.4V26.68H102.503V29.304C102.503 30.5627 102.823 31.4693 103.463 32.024C104.125 32.5573 105.042 32.824 106.215 32.824C106.983 32.824 107.634 32.7493 108.167 32.6C108.701 32.4293 109.117 32.2587 109.415 32.088V26.68H112.647V32.216C112.647 32.6853 112.573 33.0693 112.423 33.368C112.295 33.6667 112.007 33.944 111.559 34.2C111.026 34.52 110.301 34.808 109.383 35.064C108.466 35.32 107.399 35.448 106.183 35.448C104.754 35.448 103.517 35.2347 102.471 34.808C101.426 34.3813 100.626 33.72 100.071 32.824C99.5379 31.928 99.2713 30.7867 99.2713 29.4ZM112.647 28.28H109.415V20.088C109.543 20.0453 109.746 20.0027 110.023 19.96C110.301 19.896 110.589 19.864 110.887 19.864C111.506 19.864 111.954 19.9813 112.231 20.216C112.509 20.4293 112.647 20.8133 112.647 21.368V28.28ZM102.503 28.28H99.2713V20.088C99.3993 20.0453 99.6019 20.0027 99.8793 19.96C100.157 19.896 100.455 19.864 100.775 19.864C101.351 19.864 101.778 19.9813 102.055 20.216C102.354 20.4293 102.503 20.8133 102.503 21.368V28.28ZM117.147 26.552H120.379V30.648C120.379 31.4373 120.603 31.992 121.051 32.312C121.499 32.632 122.128 32.792 122.939 32.792C123.302 32.792 123.686 32.7387 124.091 32.632C124.518 32.5253 124.88 32.3973 125.179 32.248C125.328 32.3973 125.456 32.5787 125.563 32.792C125.67 33.0053 125.723 33.2613 125.723 33.56C125.723 34.1147 125.435 34.5627 124.859 34.904C124.304 35.2453 123.472 35.416 122.363 35.416C120.784 35.416 119.515 35.064 118.555 34.36C117.616 33.656 117.147 32.4933 117.147 30.872V26.552ZM118.971 22.968V20.376H125.371C125.435 20.4827 125.51 20.6533 125.595 20.888C125.68 21.1227 125.723 21.368 125.723 21.624C125.723 22.072 125.616 22.4133 125.403 22.648C125.19 22.8613 124.902 22.968 124.539 22.968H118.971ZM120.379 27.48H117.147V15.896C117.275 15.8533 117.478 15.8107 117.755 15.768C118.032 15.704 118.331 15.672 118.651 15.672C119.227 15.672 119.654 15.7893 119.931 16.024C120.23 16.2373 120.379 16.6107 120.379 17.144V27.48ZM130.146 29.336L130.018 26.968L139.138 25.656C139.052 24.6533 138.69 23.8213 138.05 23.16C137.41 22.4773 136.503 22.136 135.33 22.136C134.114 22.136 133.111 22.5627 132.322 23.416C131.532 24.2693 131.127 25.496 131.106 27.096L131.17 28.248C131.319 29.784 131.852 30.936 132.77 31.704C133.708 32.472 134.935 32.856 136.45 32.856C137.346 32.856 138.156 32.7173 138.882 32.44C139.628 32.1627 140.226 31.8533 140.674 31.512C140.93 31.6827 141.132 31.896 141.282 32.152C141.452 32.3867 141.538 32.6533 141.538 32.952C141.538 33.4213 141.303 33.848 140.834 34.232C140.364 34.616 139.724 34.9147 138.914 35.128C138.124 35.3413 137.239 35.448 136.258 35.448C134.594 35.448 133.143 35.1493 131.906 34.552C130.69 33.9333 129.74 33.0267 129.058 31.832C128.375 30.616 128.034 29.1333 128.034 27.384C128.034 26.1253 128.215 25.016 128.578 24.056C128.962 23.0747 129.484 22.264 130.146 21.624C130.807 20.9627 131.586 20.4613 132.482 20.12C133.378 19.7787 134.338 19.608 135.362 19.608C136.706 19.608 137.89 19.896 138.914 20.472C139.938 21.0267 140.738 21.8053 141.314 22.808C141.911 23.7893 142.21 24.9307 142.21 26.232C142.21 26.744 142.071 27.128 141.794 27.384C141.538 27.6187 141.186 27.768 140.738 27.832L130.146 29.336ZM148.91 23.224V27.928H145.678V23.16C145.678 22.648 145.784 22.232 145.998 21.912C146.211 21.5707 146.542 21.2507 146.99 20.952C147.587 20.568 148.366 20.248 149.326 19.992C150.307 19.736 151.374 19.608 152.526 19.608C154.382 19.608 155.31 20.1307 155.31 21.176C155.31 21.432 155.267 21.6667 155.182 21.88C155.118 22.0933 155.022 22.2747 154.894 22.424C154.68 22.3813 154.403 22.3493 154.062 22.328C153.742 22.2853 153.411 22.264 153.07 22.264C152.195 22.264 151.395 22.36 150.67 22.552C149.966 22.7227 149.379 22.9467 148.91 23.224ZM145.678 26.552L148.91 26.84V34.936C148.76 34.9787 148.547 35.032 148.27 35.096C148.014 35.16 147.736 35.192 147.438 35.192C146.84 35.192 146.392 35.0853 146.094 34.872C145.816 34.6373 145.678 34.2427 145.678 33.688V26.552ZM170.729 34.52C169.471 34.52 168.308 34.2747 167.241 33.784C166.196 33.2933 165.353 32.504 164.713 31.416C164.073 30.328 163.753 28.8773 163.753 27.064C163.753 25.4213 164.073 24.056 164.713 22.968C165.353 21.8587 166.239 21.0267 167.369 20.472C168.521 19.896 169.844 19.608 171.337 19.608C172.361 19.608 173.311 19.7467 174.185 20.024C175.06 20.28 175.775 20.5893 176.329 20.952C176.671 21.1653 176.948 21.4213 177.161 21.72C177.375 22.0187 177.481 22.3813 177.481 22.808V32.728H174.313V23C173.972 22.7867 173.567 22.6053 173.097 22.456C172.628 22.3067 172.063 22.232 171.401 22.232C170.079 22.232 169.012 22.6373 168.201 23.448C167.412 24.2373 167.017 25.4427 167.017 27.064C167.017 28.8347 167.412 30.0933 168.201 30.84C169.012 31.5653 170.004 31.928 171.177 31.928C172.052 31.928 172.756 31.7787 173.289 31.48C173.844 31.1813 174.292 30.8613 174.633 30.52L174.761 33.24C174.399 33.56 173.876 33.8587 173.193 34.136C172.511 34.392 171.689 34.52 170.729 34.52ZM174.313 35.288V32.024H177.481V35.448C177.481 36.8773 177.161 38.0293 176.521 38.904C175.903 39.7787 175.039 40.4187 173.929 40.824C172.841 41.2293 171.615 41.432 170.249 41.432C169.161 41.432 168.223 41.3147 167.433 41.08C166.644 40.8667 166.079 40.664 165.737 40.472C165.076 40.0667 164.745 39.544 164.745 38.904C164.745 38.5627 164.82 38.264 164.969 38.008C165.119 37.7733 165.3 37.592 165.513 37.464C166.004 37.8053 166.655 38.1147 167.465 38.392C168.276 38.6693 169.14 38.808 170.057 38.808C171.423 38.808 172.468 38.52 173.193 37.944C173.94 37.3893 174.313 36.504 174.313 35.288ZM185.16 23.224V27.928H181.928V23.16C181.928 22.648 182.034 22.232 182.248 21.912C182.461 21.5707 182.792 21.2507 183.24 20.952C183.837 20.568 184.616 20.248 185.576 19.992C186.557 19.736 187.624 19.608 188.776 19.608C190.632 19.608 191.56 20.1307 191.56 21.176C191.56 21.432 191.517 21.6667 191.432 21.88C191.368 22.0933 191.272 22.2747 191.144 22.424C190.93 22.3813 190.653 22.3493 190.312 22.328C189.992 22.2853 189.661 22.264 189.32 22.264C188.445 22.264 187.645 22.36 186.92 22.552C186.216 22.7227 185.629 22.9467 185.16 23.224ZM181.928 26.552L185.16 26.84V34.936C185.01 34.9787 184.797 35.032 184.52 35.096C184.264 35.16 183.986 35.192 183.688 35.192C183.09 35.192 182.642 35.0853 182.344 34.872C182.066 34.6373 181.928 34.2427 181.928 33.688V26.552ZM199.746 35.448C197.677 35.448 196.056 35.0533 194.882 34.264C193.73 33.4533 193.154 32.2693 193.154 30.712C193.154 29.304 193.613 28.2267 194.53 27.48C195.469 26.7333 196.77 26.2747 198.434 26.104L202.914 25.656V24.92C202.914 23.96 202.605 23.2667 201.986 22.84C201.368 22.392 200.525 22.168 199.458 22.168C198.605 22.168 197.773 22.2853 196.962 22.52C196.173 22.7547 195.469 23.032 194.85 23.352C194.658 23.1813 194.488 22.9787 194.338 22.744C194.189 22.488 194.114 22.232 194.114 21.976C194.114 21.2933 194.477 20.792 195.202 20.472C195.778 20.1947 196.45 19.9813 197.218 19.832C198.008 19.6827 198.818 19.608 199.65 19.608C201.613 19.608 203.17 20.0347 204.322 20.888C205.496 21.7413 206.082 23.096 206.082 24.952V32.44C206.082 32.9307 205.976 33.3147 205.762 33.592C205.549 33.848 205.261 34.0933 204.898 34.328C204.344 34.6267 203.618 34.8827 202.722 35.096C201.848 35.3307 200.856 35.448 199.746 35.448ZM199.746 32.92C200.514 32.92 201.176 32.8453 201.73 32.696C202.285 32.5253 202.68 32.3653 202.914 32.216V28.056L199.33 28.408C198.349 28.4933 197.602 28.7173 197.09 29.08C196.6 29.4427 196.354 29.9653 196.354 30.648C196.354 31.352 196.632 31.9067 197.186 32.312C197.762 32.7173 198.616 32.92 199.746 32.92ZM217.147 35.416C216.272 35.416 215.461 35.2987 214.715 35.064C213.968 34.8293 213.392 34.5627 212.987 34.264V31.384C213.392 31.7467 213.893 32.0773 214.491 32.376C215.109 32.6533 215.845 32.792 216.699 32.792C218.085 32.792 219.195 32.3653 220.027 31.512C220.859 30.6587 221.275 29.3147 221.275 27.48C221.275 26.1787 221.061 25.1547 220.635 24.408C220.229 23.64 219.685 23.0853 219.003 22.744C218.32 22.4027 217.563 22.232 216.731 22.232C216.048 22.232 215.461 22.3173 214.971 22.488C214.48 22.6587 214.053 22.84 213.691 23.032V33.4H210.459V22.904C210.459 22.4347 210.544 22.0613 210.715 21.784C210.885 21.4853 211.195 21.1973 211.643 20.92C212.24 20.5787 212.965 20.28 213.819 20.024C214.693 19.7467 215.664 19.608 216.731 19.608C218.224 19.608 219.557 19.8853 220.731 20.44C221.904 20.9733 222.832 21.8267 223.515 23C224.197 24.152 224.539 25.6453 224.539 27.48C224.539 29.2293 224.219 30.7013 223.579 31.896C222.96 33.0693 222.096 33.9547 220.987 34.552C219.877 35.128 218.597 35.416 217.147 35.416ZM212.219 40.984C211.621 40.984 211.173 40.8667 210.875 40.632C210.597 40.3973 210.459 40.0133 210.459 39.48V32.408L213.691 32.44V40.76C213.541 40.8027 213.328 40.8453 213.051 40.888C212.795 40.952 212.517 40.984 212.219 40.984ZM241.617 28.6H238.385V25.656C238.385 24.4827 238.054 23.6187 237.393 23.064C236.753 22.5093 235.931 22.232 234.929 22.232C234.139 22.232 233.414 22.3813 232.753 22.68C232.091 22.9787 231.526 23.3307 231.057 23.736L230.705 21.112C231.195 20.7707 231.846 20.44 232.657 20.12C233.467 19.7787 234.385 19.608 235.409 19.608C237.265 19.608 238.758 20.0987 239.889 21.08C241.041 22.0613 241.617 23.544 241.617 25.528V28.6ZM228.273 26.552H231.505V34.936C231.355 34.9787 231.142 35.032 230.865 35.096C230.609 35.16 230.331 35.192 230.033 35.192C229.435 35.192 228.987 35.0853 228.689 34.872C228.411 34.6373 228.273 34.2427 228.273 33.688V26.552ZM238.385 26.584L241.617 26.616V34.936C241.489 34.9787 241.286 35.032 241.009 35.096C240.731 35.16 240.443 35.192 240.145 35.192C239.547 35.192 239.099 35.0853 238.801 34.872C238.523 34.6373 238.385 34.2427 238.385 33.688V26.584ZM231.505 28.184H228.273V14.232C228.401 14.1893 228.603 14.1467 228.881 14.104C229.158 14.04 229.457 14.008 229.777 14.008C230.353 14.008 230.779 14.1147 231.057 14.328C231.355 14.5413 231.505 14.9253 231.505 15.48V28.184ZM245.86 15.448C245.86 14.9147 246.041 14.4667 246.404 14.104C246.788 13.7413 247.268 13.56 247.844 13.56C248.42 13.56 248.889 13.7413 249.252 14.104C249.614 14.4667 249.796 14.9147 249.796 15.448C249.796 15.9813 249.614 16.4293 249.252 16.792C248.889 17.1547 248.42 17.336 247.844 17.336C247.268 17.336 246.788 17.1547 246.404 16.792C246.041 16.4293 245.86 15.9813 245.86 15.448ZM246.212 26.552H249.476V34.936C249.326 34.9787 249.113 35.032 248.836 35.096C248.58 35.16 248.292 35.192 247.972 35.192C247.396 35.192 246.958 35.0853 246.66 34.872C246.361 34.6373 246.212 34.2427 246.212 33.688V26.552ZM249.476 28.184H246.212V20.152C246.361 20.088 246.564 20.0347 246.82 19.992C247.097 19.928 247.396 19.896 247.716 19.896C248.313 19.896 248.75 20.0133 249.028 20.248C249.326 20.4613 249.476 20.8453 249.476 21.4V28.184ZM261.411 22.264C260.046 22.264 258.904 22.7227 257.987 23.64C257.07 24.536 256.611 25.8373 256.611 27.544C256.611 29.2507 257.048 30.552 257.923 31.448C258.819 32.344 259.971 32.792 261.379 32.792C262.232 32.792 262.947 32.6853 263.523 32.472C264.099 32.2373 264.6 31.9813 265.027 31.704C265.304 31.8747 265.518 32.0773 265.667 32.312C265.838 32.5253 265.923 32.8027 265.923 33.144C265.923 33.784 265.486 34.328 264.611 34.776C263.736 35.2027 262.616 35.416 261.251 35.416C259.694 35.416 258.318 35.128 257.123 34.552C255.928 33.976 254.99 33.112 254.307 31.96C253.646 30.7867 253.315 29.3147 253.315 27.544C253.315 25.7947 253.667 24.3333 254.371 23.16C255.075 21.9653 256.024 21.08 257.219 20.504C258.414 19.9067 259.726 19.608 261.155 19.608C262.52 19.608 263.63 19.8427 264.483 20.312C265.336 20.7813 265.763 21.3467 265.763 22.008C265.763 22.2853 265.688 22.5413 265.539 22.776C265.39 23.0107 265.187 23.192 264.931 23.32C264.483 23.0427 263.982 22.7973 263.427 22.584C262.894 22.3707 262.222 22.264 261.411 22.264ZM280.624 30.904C280.624 32.3333 280.09 33.4533 279.024 34.264C277.978 35.0533 276.453 35.448 274.448 35.448C272.784 35.448 271.418 35.192 270.352 34.68C269.306 34.168 268.784 33.56 268.784 32.856C268.784 32.536 268.858 32.2373 269.008 31.96C269.178 31.6827 269.402 31.4693 269.68 31.32C270.277 31.704 270.96 32.056 271.728 32.376C272.496 32.696 273.381 32.856 274.384 32.856C276.41 32.856 277.424 32.2053 277.424 30.904C277.424 30.3707 277.242 29.9333 276.88 29.592C276.538 29.2507 276.026 28.9947 275.344 28.824L273.072 28.248C271.642 27.928 270.586 27.416 269.904 26.712C269.242 26.008 268.912 25.1013 268.912 23.992C268.912 22.7547 269.413 21.72 270.416 20.888C271.44 20.0347 272.912 19.608 274.832 19.608C275.834 19.608 276.72 19.7147 277.488 19.928C278.277 20.12 278.885 20.3973 279.312 20.76C279.76 21.1013 279.984 21.496 279.984 21.944C279.984 22.264 279.909 22.552 279.76 22.808C279.61 23.064 279.418 23.256 279.184 23.384C278.928 23.2133 278.586 23.0427 278.16 22.872C277.754 22.68 277.274 22.52 276.72 22.392C276.186 22.2427 275.621 22.168 275.024 22.168C274.128 22.168 273.413 22.328 272.88 22.648C272.368 22.968 272.112 23.416 272.112 23.992C272.112 24.4187 272.261 24.7813 272.56 25.08C272.858 25.3787 273.36 25.6133 274.064 25.784L275.984 26.232C277.562 26.616 278.725 27.192 279.472 27.96C280.24 28.7067 280.624 29.688 280.624 30.904Z" fill="black"/>
</svg>
