<svg width="166" height="1024" viewBox="0 0 166 1024" fill="none" xmlns="http://www.w3.org/2000/svg">
<rect width="166" height="1025" fill="white"/>
<rect width="166" height="1025" fill="#1F822F" fill-opacity="0.6"/>
<path d="M85.688 112.144H72.632V72.72L57.016 79.504C55.9067 78.992 54.9253 78.224 54.072 77.2C53.2187 76.176 52.792 74.8533 52.792 73.232C52.792 70.16 54.712 67.8987 58.552 66.448L75.576 59.28H78.52C80.7387 59.28 82.488 59.92 83.768 61.2C85.048 62.48 85.688 64.2293 85.688 66.448V112.144ZM72.632 104.208H85.688V138.128C85.0907 138.299 84.2373 138.469 83.128 138.64C82.104 138.896 80.952 139.024 79.672 139.024C77.2827 139.024 75.4907 138.555 74.296 137.616C73.1867 136.677 72.632 135.141 72.632 133.008V104.208Z" fill="black"/>
<path d="M66.192 265.56C63.3333 265.56 61.0933 264.493 59.472 262.36C57.8933 260.269 57.104 257.219 57.104 253.208C57.104 249.88 57.616 247.149 58.64 245.016C59.664 242.925 60.88 241.88 62.288 241.88C62.928 241.88 63.5253 242.029 64.08 242.328C64.6347 242.669 65.0613 243.117 65.36 243.672C64.592 244.867 63.888 246.232 63.248 247.768C62.608 249.304 62.288 251.075 62.288 253.08C62.288 257.133 63.5893 259.16 66.192 259.16C67.2587 259.16 68.1333 258.797 68.816 258.072C69.4987 257.389 70.0107 256.365 70.352 255L71.504 250.456C72.144 247.597 73.168 245.485 74.576 244.12C75.984 242.797 77.7973 242.136 80.016 242.136C82.4907 242.136 84.56 243.139 86.224 245.144C87.9307 247.192 88.784 250.136 88.784 253.976C88.784 255.981 88.5707 257.752 88.144 259.288C87.76 260.867 87.2053 262.083 86.48 262.936C85.7973 263.832 85.008 264.28 84.112 264.28C83.472 264.28 82.896 264.131 82.384 263.832C81.872 263.533 81.488 263.149 81.232 262.68C81.5733 262.168 81.9147 261.485 82.256 260.632C82.64 259.821 82.96 258.861 83.216 257.752C83.5147 256.685 83.664 255.555 83.664 254.36C83.664 252.568 83.344 251.139 82.704 250.072C82.064 249.048 81.168 248.536 80.016 248.536C79.1627 248.536 78.4373 248.835 77.84 249.432C77.2427 250.029 76.7733 251.032 76.432 252.44L75.536 256.28C74.768 259.437 73.616 261.763 72.08 263.256C70.5867 264.792 68.624 265.56 66.192 265.56ZM57.168 286.169C57.168 284.419 57.4027 282.798 57.872 281.305C58.3413 279.811 58.8747 278.659 59.472 277.849H65.232C64.5067 278.659 63.8453 279.662 63.248 280.857C62.6933 282.094 62.416 283.566 62.416 285.273C62.416 288.046 63.2693 290.265 64.976 291.929C66.6827 293.593 69.3707 294.425 73.04 294.425C75.6427 294.425 77.6907 293.998 79.184 293.145C80.72 292.334 81.8293 291.246 82.512 289.881C83.1947 288.515 83.536 287.001 83.536 285.337C83.536 283.971 83.3653 282.798 83.024 281.817C82.6827 280.835 82.32 279.982 81.936 279.257H61.2V272.793H82.192C83.1307 272.793 83.8773 272.963 84.432 273.305C85.0293 273.646 85.6053 274.265 86.16 275.161C86.8427 276.355 87.44 277.806 87.952 279.513C88.5067 281.262 88.784 283.203 88.784 285.337C88.784 288.323 88.2293 290.99 87.12 293.337C86.0533 295.683 84.3467 297.539 82 298.905C79.696 300.27 76.7093 300.953 73.04 300.953C69.5413 300.953 66.5973 300.313 64.208 299.033C61.8613 297.795 60.0907 296.067 58.896 293.849C57.744 291.63 57.168 289.07 57.168 286.169ZM46.032 276.312C46.032 275.118 46.2667 274.222 46.736 273.625C47.2053 273.07 47.9733 272.793 49.04 272.793H63.184L63.12 279.257H46.48C46.3947 278.958 46.3093 278.531 46.224 277.977C46.096 277.465 46.032 276.91 46.032 276.312ZM81.552 314.757H72.144V308.293H81.68C82.704 308.293 83.536 308.506 84.176 308.933C84.8587 309.359 85.4987 310.021 86.096 310.917C86.864 312.111 87.504 313.669 88.016 315.589C88.528 317.551 88.784 319.685 88.784 321.989C88.784 325.701 87.7387 327.557 85.648 327.557C85.136 327.557 84.6667 327.471 84.24 327.301C83.8133 327.173 83.4507 326.981 83.152 326.725C83.2373 326.298 83.3013 325.743 83.344 325.061C83.4293 324.421 83.472 323.759 83.472 323.077C83.472 321.327 83.28 319.727 82.896 318.277C82.5547 316.869 82.1067 315.695 81.552 314.757ZM74.896 308.293L74.32 314.757H58.128C58.0427 314.458 57.936 314.031 57.808 313.477C57.68 312.965 57.616 312.41 57.616 311.812C57.616 310.618 57.8293 309.722 58.256 309.125C58.7253 308.57 59.5147 308.293 60.624 308.293H74.896ZM97.104 332.72C98.1707 332.72 99.0667 333.082 99.792 333.808C100.517 334.576 100.88 335.536 100.88 336.688C100.88 337.84 100.517 338.778 99.792 339.504C99.0667 340.229 98.1707 340.592 97.104 340.592C96.0373 340.592 95.1413 340.229 94.416 339.504C93.6907 338.778 93.328 337.84 93.328 336.688C93.328 335.536 93.6907 334.576 94.416 333.808C95.1413 333.082 96.0373 332.72 97.104 332.72ZM74.896 333.424V339.952H58.128C58.0427 339.653 57.936 339.226 57.808 338.672C57.68 338.16 57.616 337.584 57.616 336.944C57.616 335.792 57.8293 334.917 58.256 334.32C58.7253 333.722 59.5147 333.424 60.624 333.424H74.896ZM71.632 339.952V333.424H87.696C87.824 333.722 87.9307 334.128 88.016 334.64C88.144 335.194 88.208 335.792 88.208 336.432C88.208 337.626 87.9733 338.501 87.504 339.056C87.0773 339.653 86.3093 339.952 85.2 339.952H71.632ZM77.648 375.982H71.248V369.518H77.392C79.5253 369.518 81.0827 368.899 82.064 367.662C83.0453 366.467 83.536 364.846 83.536 362.798C83.536 361.305 83.344 359.961 82.96 358.766C82.6187 357.571 82.192 356.547 81.68 355.694H71.248V349.23H81.808C82.7893 349.23 83.5787 349.422 84.176 349.806C84.7733 350.19 85.3707 350.83 85.968 351.726C86.6933 352.921 87.3333 354.478 87.888 356.398C88.4853 358.318 88.784 360.473 88.784 362.862C88.784 366.958 87.8453 370.158 85.968 372.462C84.1333 374.809 81.36 375.982 77.648 375.982ZM74.576 349.23V355.694H58.128C58.0427 355.395 57.936 354.969 57.808 354.414C57.68 353.902 57.616 353.347 57.616 352.75C57.616 351.555 57.8293 350.659 58.256 350.062C58.7253 349.507 59.5147 349.23 60.624 349.23H74.576ZM74.576 369.518V375.982H58.128C58.0427 375.726 57.936 375.321 57.808 374.766C57.68 374.211 57.616 373.635 57.616 373.038C57.616 371.801 57.8293 370.905 58.256 370.35C58.7253 369.795 59.5147 369.518 60.624 369.518H74.576ZM58.96 397.333C58.96 394.816 59.4507 392.491 60.432 390.358C61.4133 388.267 62.992 386.582 65.168 385.302C67.344 384.022 70.2453 383.382 73.872 383.382C77.1573 383.382 79.888 384.022 82.064 385.302C84.2827 386.582 85.9467 388.352 87.056 390.614C88.208 392.918 88.784 395.563 88.784 398.55C88.784 400.598 88.5067 402.496 87.952 404.246C87.44 405.995 86.8213 407.424 86.096 408.534C85.6693 409.216 85.1573 409.771 84.56 410.198C83.9627 410.624 83.2373 410.838 82.384 410.838H62.544V404.502H82C82.4267 403.819 82.7893 403.008 83.088 402.07C83.3867 401.131 83.536 400 83.536 398.678C83.536 396.032 82.7253 393.899 81.104 392.278C79.5253 390.699 77.1147 389.91 73.872 389.91C70.3307 389.91 67.8133 390.699 66.32 392.278C64.8693 393.899 64.144 395.883 64.144 398.23C64.144 399.979 64.4427 401.387 65.04 402.454C65.6373 403.563 66.2773 404.459 66.96 405.142L61.52 405.398C60.88 404.672 60.2827 403.627 59.728 402.262C59.216 400.896 58.96 399.254 58.96 397.333ZM57.424 404.502H63.952V410.838H57.104C54.2453 410.838 51.9413 410.198 50.192 408.918C48.4427 407.68 47.1627 405.952 46.352 403.734C45.5413 401.558 45.136 399.104 45.136 396.374C45.136 394.198 45.3707 392.32 45.84 390.742C46.2667 389.163 46.672 388.032 47.056 387.35C47.8667 386.027 48.912 385.366 50.192 385.366C50.8747 385.366 51.472 385.515 51.984 385.814C52.4533 386.112 52.816 386.475 53.072 386.902C52.3893 387.883 51.7707 389.184 51.216 390.806C50.6613 392.427 50.384 394.155 50.384 395.99C50.384 398.72 50.96 400.811 52.112 402.262C53.2213 403.755 54.992 404.502 57.424 404.502ZM74.896 432.607V439.071H66.704C65.1253 439.071 64.016 439.519 63.376 440.415C62.736 441.311 62.416 442.569 62.416 444.191C62.416 444.916 62.5227 445.684 62.736 446.495C62.9493 447.348 63.2053 448.073 63.504 448.671C63.2053 448.969 62.8427 449.225 62.416 449.439C61.9893 449.652 61.4773 449.759 60.88 449.759C59.7707 449.759 58.8747 449.183 58.192 448.031C57.5093 446.921 57.168 445.257 57.168 443.039C57.168 439.881 57.872 437.343 59.28 435.423C60.688 433.545 63.0133 432.607 66.256 432.607H74.896ZM82.064 436.255H87.248V449.055C87.0347 449.183 86.6933 449.332 86.224 449.503C85.7547 449.673 85.264 449.759 84.752 449.759C83.856 449.759 83.1733 449.545 82.704 449.119C82.2773 448.692 82.064 448.116 82.064 447.391V436.255ZM73.04 439.071V432.607H96.208C96.2933 432.863 96.3787 433.268 96.464 433.823C96.592 434.377 96.656 434.975 96.656 435.615C96.656 436.767 96.4213 437.62 95.952 438.175C95.5253 438.772 94.7787 439.071 93.712 439.071H73.04ZM69.328 458.604L74.064 458.348L76.688 476.588C78.6933 476.417 80.3573 475.692 81.68 474.412C83.0453 473.132 83.728 471.319 83.728 468.972C83.728 466.54 82.8747 464.535 81.168 462.956C79.4613 461.377 77.008 460.567 73.808 460.524L71.504 460.652C68.432 460.951 66.128 462.017 64.592 463.852C63.056 465.729 62.288 468.183 62.288 471.212C62.288 473.004 62.5653 474.625 63.12 476.076C63.6747 477.569 64.2933 478.764 64.976 479.66C64.6347 480.172 64.208 480.577 63.696 480.876C63.2267 481.217 62.6933 481.388 62.096 481.388C61.1573 481.388 60.304 480.919 59.536 479.98C58.768 479.041 58.1707 477.761 57.744 476.14C57.3173 474.561 57.104 472.791 57.104 470.828C57.104 467.5 57.7013 464.599 58.896 462.124C60.1333 459.692 61.9467 457.793 64.336 456.428C66.768 455.063 69.7333 454.38 73.232 454.38C75.7493 454.38 77.968 454.743 79.888 455.468C81.8507 456.236 83.472 457.281 84.752 458.604C86.0747 459.927 87.0773 461.484 87.76 463.276C88.4427 465.068 88.784 466.988 88.784 469.036C88.784 471.724 88.208 474.092 87.056 476.14C85.9467 478.188 84.3893 479.788 82.384 480.94C80.4213 482.135 78.1387 482.732 75.536 482.732C74.512 482.732 73.744 482.455 73.232 481.9C72.7627 481.388 72.464 480.684 72.336 479.788L69.328 458.604ZM81.552 496.132H72.144V489.668H81.68C82.704 489.668 83.536 489.881 84.176 490.308C84.8587 490.734 85.4987 491.396 86.096 492.292C86.864 493.486 87.504 495.044 88.016 496.964C88.528 498.926 88.784 501.06 88.784 503.364C88.784 507.076 87.7387 508.932 85.648 508.932C85.136 508.932 84.6667 508.846 84.24 508.676C83.8133 508.548 83.4507 508.356 83.152 508.1C83.2373 507.673 83.3013 507.118 83.344 506.436C83.4293 505.796 83.472 505.134 83.472 504.452C83.472 502.702 83.28 501.102 82.896 499.652C82.5547 498.244 82.1067 497.07 81.552 496.132ZM74.896 489.668L74.32 496.132H58.128C58.0427 495.833 57.936 495.406 57.808 494.852C57.68 494.34 57.616 493.785 57.616 493.188C57.616 491.993 57.8293 491.097 58.256 490.5C58.7253 489.945 59.5147 489.668 60.624 489.668H74.896ZM78.672 539.256H71.376V532.792H78.032C79.952 532.792 81.3387 532.237 82.192 531.128C83.088 530.018 83.536 528.568 83.536 526.776C83.536 525.581 83.344 524.429 82.96 523.32C82.576 522.253 82.1493 521.357 81.68 520.632H71.376V514.168H81.808C82.7467 514.168 83.5147 514.36 84.112 514.744C84.752 515.128 85.3707 515.768 85.968 516.664C86.736 517.858 87.3973 519.394 87.952 521.272C88.5067 523.149 88.784 525.048 88.784 526.968C88.784 529.101 88.464 531.021 87.824 532.728C87.184 534.434 86.2453 535.757 85.008 536.696C84.752 536.994 84.496 537.25 84.24 537.464C84.0267 537.677 83.7493 537.869 83.408 538.04C82.8533 538.381 82.1707 538.658 81.36 538.872C80.5493 539.128 79.6533 539.256 78.672 539.256ZM78.352 557.88H71.376V551.416H78.032C79.952 551.416 81.3387 550.882 82.192 549.816C83.088 548.749 83.536 547.32 83.536 545.528C83.536 544.205 83.2587 542.925 82.704 541.688C82.192 540.45 81.4453 539.341 80.464 538.36L84.752 535.416C85.8187 536.61 86.7573 538.104 87.568 539.896C88.3787 541.688 88.784 543.8 88.784 546.232C88.784 548.493 88.4213 550.498 87.696 552.248C86.9707 553.997 85.8187 555.362 84.24 556.344C82.704 557.368 80.7413 557.88 78.352 557.88ZM74.576 514.168V520.632H58.128C58.0427 520.333 57.936 519.906 57.808 519.352C57.68 518.84 57.616 518.285 57.616 517.688C57.616 516.493 57.8293 515.597 58.256 515C58.7253 514.445 59.5147 514.168 60.624 514.168H74.576ZM74.576 532.792V539.256H58.128C58.0427 539 57.936 538.594 57.808 538.04C57.68 537.485 57.616 536.909 57.616 536.312C57.616 535.117 57.8293 534.221 58.256 533.624C58.7253 533.069 59.5147 532.792 60.624 532.792H74.576ZM74.576 551.416V557.88H58.128C58.0427 557.624 57.936 557.218 57.808 556.664C57.68 556.109 57.616 555.533 57.616 554.936C57.616 553.741 57.8293 552.845 58.256 552.248C58.7253 551.693 59.5147 551.416 60.624 551.416H74.576Z" fill="black"/>
</svg>
