<svg width="162" height="1024" viewBox="0 0 162 1024" fill="none" xmlns="http://www.w3.org/2000/svg">
<rect x="-12" width="166" height="1025" fill="white" fill-opacity="0.7"/>
<rect x="-4" y="-1" width="166" height="1025" fill="#1F822F" fill-opacity="0.6"/>
<path d="M85.688 112.144H72.632V72.72L57.016 79.504C55.9067 78.992 54.9253 78.224 54.072 77.2C53.2187 76.176 52.792 74.8533 52.792 73.232C52.792 70.16 54.712 67.8987 58.552 66.448L75.576 59.28H78.52C80.7387 59.28 82.488 59.92 83.768 61.2C85.048 62.48 85.688 64.2293 85.688 66.448V112.144ZM72.632 104.208H85.688V138.128C85.0907 138.299 84.2373 138.469 83.128 138.64C82.104 138.896 80.952 139.024 79.672 139.024C77.2827 139.024 75.4907 138.555 74.296 137.616C73.1867 136.677 72.632 135.141 72.632 133.008V104.208Z" fill="black"/>
<path d="M66.192 265.56C63.3333 265.56 61.0933 264.493 59.472 262.36C57.8933 260.269 57.104 257.219 57.104 253.208C57.104 249.88 57.616 247.149 58.64 245.016C59.664 242.925 60.88 241.88 62.288 241.88C62.928 241.88 63.5253 242.029 64.08 242.328C64.6347 242.669 65.0613 243.117 65.36 243.672C64.592 244.867 63.888 246.232 63.248 247.768C62.608 249.304 62.288 251.075 62.288 253.08C62.288 257.133 63.5893 259.16 66.192 259.16C67.2587 259.16 68.1333 258.797 68.816 258.072C69.4987 257.389 70.0107 256.365 70.352 255L71.504 250.456C72.144 247.597 73.168 245.485 74.576 244.12C75.984 242.797 77.7973 242.136 80.016 242.136C82.4907 242.136 84.56 243.139 86.224 245.144C87.9307 247.192 88.784 250.136 88.784 253.976C88.784 255.981 88.5707 257.752 88.144 259.288C87.76 260.867 87.2053 262.083 86.48 262.936C85.7973 263.832 85.008 264.28 84.112 264.28C83.472 264.28 82.896 264.131 82.384 263.832C81.872 263.533 81.488 263.149 81.232 262.68C81.5733 262.168 81.9147 261.485 82.256 260.632C82.64 259.821 82.96 258.861 83.216 257.752C83.5147 256.685 83.664 255.555 83.664 254.36C83.664 252.568 83.344 251.139 82.704 250.072C82.064 249.048 81.168 248.536 80.016 248.536C79.1627 248.536 78.4373 248.835 77.84 249.432C77.2427 250.029 76.7733 251.032 76.432 252.44L75.536 256.28C74.768 259.437 73.616 261.763 72.08 263.256C70.5867 264.792 68.624 265.56 66.192 265.56ZM57.168 286.169C57.168 284.419 57.4027 282.798 57.872 281.305C58.3413 279.811 58.8747 278.659 59.472 277.849H65.232C64.5067 278.659 63.8453 279.662 63.248 280.857C62.6933 282.094 62.416 283.566 62.416 285.273C62.416 288.046 63.2693 290.265 64.976 291.929C66.6827 293.593 69.3707 294.425 73.04 294.425C75.6427 294.425 77.6907 293.998 79.184 293.145C80.72 292.334 81.8293 291.246 82.512 289.881C83.1947 288.515 83.536 287.001 83.536 285.337C83.536 283.971 83.3653 282.798 83.024 281.817C82.6827 280.835 82.32 279.982 81.936 279.257H61.2V272.793H82.192C83.1307 272.793 83.8773 272.963 84.432 273.305C85.0293 273.646 85.6053 274.265 86.16 275.161C86.8427 276.355 87.44 277.806 87.952 279.513C88.5067 281.262 88.784 283.203 88.784 285.337C88.784 288.323 88.2293 290.99 87.12 293.337C86.0533 295.683 84.3467 297.539 82 298.905C79.696 300.27 76.7093 300.953 73.04 300.953C69.5413 300.953 66.5973 300.313 64.208 299.033C61.8613 297.795 60.0907 296.067 58.896 293.849C57.744 291.63 57.168 289.07 57.168 286.169ZM46.032 276.312C46.032 275.118 46.2667 274.222 46.736 273.625C47.2053 273.07 47.9733 272.793 49.04 272.793H63.184L63.12 279.257H46.48C46.3947 278.958 46.3093 278.531 46.224 277.977C46.096 277.465 46.032 276.91 46.032 276.312ZM81.552 314.757H72.144V308.293H81.68C82.704 308.293 83.536 308.506 84.176 308.933C84.8587 309.359 85.4987 310.021 86.096 310.917C86.864 312.111 87.504 313.669 88.016 315.589C88.528 317.551 88.784 319.685 88.784 321.989C88.784 325.701 87.7387 327.557 85.648 327.557C85.136 327.557 84.6667 327.471 84.24 327.301C83.8133 327.173 83.4507 326.981 83.152 326.725C83.2373 326.298 83.3013 325.743 83.344 325.061C83.4293 324.421 83.472 323.759 83.472 323.077C83.472 321.327 83.28 319.727 82.896 318.277C82.5547 316.869 82.1067 315.695 81.552 314.757ZM74.896 308.293L74.32 314.757H58.128C58.0427 314.458 57.936 314.031 57.808 313.477C57.68 312.965 57.616 312.41 57.616 311.812C57.616 310.618 57.8293 309.722 58.256 309.125C58.7253 308.57 59.5147 308.293 60.624 308.293H74.896ZM97.104 332.72C98.1707 332.72 99.0667 333.082 99.792 333.808C100.517 334.576 100.88 335.536 100.88 336.688C100.88 337.84 100.517 338.778 99.792 339.504C99.0667 340.229 98.1707 340.592 97.104 340.592C96.0373 340.592 95.1413 340.229 94.416 339.504C93.6907 338.778 93.328 337.84 93.328 336.688C93.328 335.536 93.6907 334.576 94.416 333.808C95.1413 333.082 96.0373 332.72 97.104 332.72ZM74.896 333.424V339.952H58.128C58.0427 339.653 57.936 339.226 57.808 338.672C57.68 338.16 57.616 337.584 57.616 336.944C57.616 335.792 57.8293 334.917 58.256 334.32C58.7253 333.722 59.5147 333.424 60.624 333.424H74.896ZM71.632 339.952V333.424H87.696C87.824 333.722 87.9307 334.128 88.016 334.64C88.144 335.194 88.208 335.792 88.208 336.432C88.208 337.626 87.9733 338.501 87.504 339.056C87.0773 339.653 86.3093 339.952 85.2 339.952H71.632ZM77.648 375.982H71.248V369.518H77.392C79.5253 369.518 81.0827 368.899 82.064 367.662C83.0453 366.467 83.536 364.846 83.536 362.798C83.536 361.305 83.344 359.961 82.96 358.766C82.6187 357.571 82.192 356.547 81.68 355.694H71.248V349.23H81.808C82.7893 349.23 83.5787 349.422 84.176 349.806C84.7733 350.19 85.3707 350.83 85.968 351.726C86.6933 352.921 87.3333 354.478 87.888 356.398C88.4853 358.318 88.784 360.473 88.784 362.862C88.784 366.958 87.8453 370.158 85.968 372.462C84.1333 374.809 81.36 375.982 77.648 375.982ZM74.576 349.23V355.694H58.128C58.0427 355.395 57.936 354.969 57.808 354.414C57.68 353.902 57.616 353.347 57.616 352.75C57.616 351.555 57.8293 350.659 58.256 350.062C58.7253 349.507 59.5147 349.23 60.624 349.23H74.576ZM74.576 369.518V375.982H58.128C58.0427 375.726 57.936 375.321 57.808 374.766C57.68 374.211 57.616 373.635 57.616 373.038C57.616 371.801 57.8293 370.905 58.256 370.35C58.7253 369.795 59.5147 369.518 60.624 369.518H74.576ZM58.96 397.333C58.96 394.816 59.4507 392.491 60.432 390.358C61.4133 388.267 62.992 386.582 65.168 385.302C67.344 384.022 70.2453 383.382 73.872 383.382C77.1573 383.382 79.888 384.022 82.064 385.302C84.2827 386.582 85.9467 388.352 87.056 390.614C88.208 392.918 88.784 395.563 88.784 398.55C88.784 400.598 88.5067 402.496 87.952 404.246C87.44 405.995 86.8213 407.424 86.096 408.534C85.6693 409.216 85.1573 409.771 84.56 410.198C83.9627 410.624 83.2373 410.838 82.384 410.838H62.544V404.502H82C82.4267 403.819 82.7893 403.008 83.088 402.07C83.3867 401.131 83.536 400 83.536 398.678C83.536 396.032 82.7253 393.899 81.104 392.278C79.5253 390.699 77.1147 389.91 73.872 389.91C70.3307 389.91 67.8133 390.699 66.32 392.278C64.8693 393.899 64.144 395.883 64.144 398.23C64.144 399.979 64.4427 401.387 65.04 402.454C65.6373 403.563 66.2773 404.459 66.96 405.142L61.52 405.398C60.88 404.672 60.2827 403.627 59.728 402.262C59.216 400.896 58.96 399.254 58.96 397.333ZM57.424 404.502H63.952V410.838H57.104C54.2453 410.838 51.9413 410.198 50.192 408.918C48.4427 407.68 47.1627 405.952 46.352 403.734C45.5413 401.558 45.136 399.104 45.136 396.374C45.136 394.198 45.3707 392.32 45.84 390.742C46.2667 389.163 46.672 388.032 47.056 387.35C47.8667 386.027 48.912 385.366 50.192 385.366C50.8747 385.366 51.472 385.515 51.984 385.814C52.4533 386.112 52.816 386.475 53.072 386.902C52.3893 387.883 51.7707 389.184 51.216 390.806C50.6613 392.427 50.384 394.155 50.384 395.99C50.384 398.72 50.96 400.811 52.112 402.262C53.2213 403.755 54.992 404.502 57.424 404.502ZM74.896 445.419V451.883H66.704C65.1253 451.883 64.016 452.331 63.376 453.227C62.736 454.123 62.416 455.382 62.416 457.003C62.416 457.728 62.5227 458.496 62.736 459.307C62.9493 460.16 63.2053 460.886 63.504 461.483C63.2053 461.782 62.8427 462.038 62.416 462.251C61.9893 462.464 61.4773 462.571 60.88 462.571C59.7707 462.571 58.8747 461.995 58.192 460.843C57.5093 459.734 57.168 458.07 57.168 455.851C57.168 452.694 57.872 450.155 59.28 448.235C60.688 446.358 63.0133 445.419 66.256 445.419H74.896ZM82.064 449.067H87.248V461.867C87.0347 461.995 86.6933 462.144 86.224 462.315C85.7547 462.486 85.264 462.571 84.752 462.571C83.856 462.571 83.1733 462.358 82.704 461.931C82.2773 461.504 82.064 460.928 82.064 460.203V449.067ZM73.04 451.883V445.419H96.208C96.2933 445.675 96.3787 446.08 96.464 446.635C96.592 447.19 96.656 447.787 96.656 448.427C96.656 449.579 96.4213 450.432 95.952 450.987C95.5253 451.584 94.7787 451.883 93.712 451.883H73.04ZM69.328 471.417L74.064 471.161L76.688 489.401C78.6933 489.23 80.3573 488.505 81.68 487.225C83.0453 485.945 83.728 484.131 83.728 481.785C83.728 479.353 82.8747 477.347 81.168 475.769C79.4613 474.19 77.008 473.379 73.808 473.337L71.504 473.465C68.432 473.763 66.128 474.83 64.592 476.665C63.056 478.542 62.288 480.995 62.288 484.025C62.288 485.817 62.5653 487.438 63.12 488.889C63.6747 490.382 64.2933 491.577 64.976 492.473C64.6347 492.985 64.208 493.39 63.696 493.689C63.2267 494.03 62.6933 494.201 62.096 494.201C61.1573 494.201 60.304 493.731 59.536 492.793C58.768 491.854 58.1707 490.574 57.744 488.953C57.3173 487.374 57.104 485.603 57.104 483.641C57.104 480.313 57.7013 477.411 58.896 474.937C60.1333 472.505 61.9467 470.606 64.336 469.241C66.768 467.875 69.7333 467.193 73.232 467.193C75.7493 467.193 77.968 467.555 79.888 468.281C81.8507 469.049 83.472 470.094 84.752 471.417C86.0747 472.739 87.0773 474.297 87.76 476.089C88.4427 477.881 88.784 479.801 88.784 481.849C88.784 484.537 88.208 486.905 87.056 488.953C85.9467 491.001 84.3893 492.601 82.384 493.753C80.4213 494.947 78.1387 495.545 75.536 495.545C74.512 495.545 73.744 495.267 73.232 494.713C72.7627 494.201 72.464 493.497 72.336 492.601L69.328 471.417ZM81.552 508.944H72.144V502.48H81.68C82.704 502.48 83.536 502.693 84.176 503.12C84.8587 503.547 85.4987 504.208 86.096 505.104C86.864 506.299 87.504 507.856 88.016 509.776C88.528 511.739 88.784 513.872 88.784 516.176C88.784 519.888 87.7387 521.744 85.648 521.744C85.136 521.744 84.6667 521.659 84.24 521.488C83.8133 521.36 83.4507 521.168 83.152 520.912C83.2373 520.485 83.3013 519.931 83.344 519.248C83.4293 518.608 83.472 517.947 83.472 517.264C83.472 515.515 83.28 513.915 82.896 512.464C82.5547 511.056 82.1067 509.883 81.552 508.944ZM74.896 502.48L74.32 508.944H58.128C58.0427 508.645 57.936 508.219 57.808 507.664C57.68 507.152 57.616 506.597 57.616 506C57.616 504.805 57.8293 503.909 58.256 503.312C58.7253 502.757 59.5147 502.48 60.624 502.48H74.896ZM78.672 552.068H71.376V545.604H78.032C79.952 545.604 81.3387 545.049 82.192 543.94C83.088 542.831 83.536 541.38 83.536 539.588C83.536 538.393 83.344 537.241 82.96 536.132C82.576 535.065 82.1493 534.169 81.68 533.444H71.376L71.376 526.98H81.808C82.7467 526.98 83.5147 527.172 84.112 527.556C84.752 527.94 85.3707 528.58 85.968 529.476C86.736 530.671 87.3973 532.207 87.952 534.084C88.5067 535.961 88.784 537.86 88.784 539.78C88.784 541.913 88.464 543.833 87.824 545.54C87.184 547.247 86.2453 548.569 85.008 549.508C84.752 549.807 84.496 550.063 84.24 550.276C84.0267 550.489 83.7493 550.681 83.408 550.852C82.8533 551.193 82.1707 551.471 81.36 551.684C80.5493 551.94 79.6533 552.068 78.672 552.068ZM78.352 570.692H71.376V564.228H78.032C79.952 564.228 81.3387 563.695 82.192 562.628C83.088 561.561 83.536 560.132 83.536 558.34C83.536 557.017 83.2587 555.737 82.704 554.5C82.192 553.263 81.4453 552.153 80.464 551.172L84.752 548.228C85.8187 549.423 86.7573 550.916 87.568 552.708C88.3787 554.5 88.784 556.612 88.784 559.044C88.784 561.305 88.4213 563.311 87.696 565.06C86.9707 566.809 85.8187 568.175 84.24 569.156C82.704 570.18 80.7413 570.692 78.352 570.692ZM74.576 526.98L74.576 533.444H58.128C58.0427 533.145 57.936 532.719 57.808 532.164C57.68 531.652 57.616 531.097 57.616 530.5C57.616 529.305 57.8293 528.409 58.256 527.812C58.7253 527.257 59.5147 526.98 60.624 526.98H74.576ZM74.576 545.604V552.068H58.128C58.0427 551.812 57.936 551.407 57.808 550.852C57.68 550.297 57.616 549.721 57.616 549.124C57.616 547.929 57.8293 547.033 58.256 546.436C58.7253 545.881 59.5147 545.604 60.624 545.604H74.576ZM74.576 564.228V570.692H58.128C58.0427 570.436 57.936 570.031 57.808 569.476C57.68 568.921 57.616 568.345 57.616 567.748C57.616 566.553 57.8293 565.657 58.256 565.06C58.7253 564.505 59.5147 564.228 60.624 564.228H74.576Z" fill="black"/>
</svg>
