<svg width="60" height="60" viewBox="0 0 60 60" fill="none" xmlns="http://www.w3.org/2000/svg">
<circle cx="30" cy="30" r="30" fill="#FFFEFE"/>
<path d="M10 27.5C8.61929 27.5 7.5 28.6193 7.5 30C7.5 31.3807 8.61929 32.5 10 32.5V27.5ZM51.7678 31.7678C52.7441 30.7915 52.7441 29.2085 51.7678 28.2322L35.8579 12.3223C34.8816 11.346 33.2986 11.346 32.3223 12.3223C31.346 13.2986 31.346 14.8816 32.3223 15.8579L46.4645 30L32.3223 44.1421C31.346 45.1184 31.346 46.7014 32.3223 47.6777C33.2986 48.654 34.8816 48.654 35.8579 47.6777L51.7678 31.7678ZM10 32.5H50V27.5L10 27.5V32.5Z" fill="black"/>
</svg>
