<svg width="195" height="287" viewBox="0 0 195 287" fill="none" xmlns="http://www.w3.org/2000/svg">
<rect x="23" y="5" width="150" height="277" rx="75" fill="white"/>
<rect x="20.5" y="2.5" width="155" height="282" rx="77.5" stroke="#A9A9A9" stroke-opacity="0.6" stroke-width="5"/>
<g filter="url(#filter0_d_48_159)">
<circle cx="98" cy="208" r="65" fill="#D8D8D8"/>
<circle cx="98" cy="208" r="63" stroke="#755E5E" stroke-opacity="0.17" stroke-width="4"/>
</g>
<path d="M97.24 213.44L96.64 211.16C92.56 208.04 88.68 205.08 85 202.28C81.32 199.4 77.36 196.48 73.12 193.52C73.04 193.12 73 192.84 73 192.68C73 192.52 73 192.28 73 191.96C73 189.8 73.48 188.12 74.44 186.92C75.4 185.64 76.68 185 78.28 185C79.48 185 80.56 185.28 81.52 185.84C82.48 186.32 83.72 187.16 85.24 188.36C88.36 190.92 91.48 193.52 94.6 196.16C97.72 198.8 100.8 201.4 103.84 203.96L106.48 207.8C110.4 210.68 114.44 213.64 118.6 216.68C122.68 219.64 126.72 222.56 130.72 225.44C130.72 225.52 130.72 225.8 130.72 226.28C130.72 226.76 130.72 227.08 130.72 227.24C130.72 229.64 130.24 231.44 129.28 232.64C128.24 233.84 126.96 234.44 125.44 234.44C124.48 234.44 123.56 234.24 122.68 233.84C121.8 233.36 120.56 232.48 118.96 231.2C115.28 228.32 111.68 225.36 108.16 222.32C104.56 219.28 100.92 216.32 97.24 213.44ZM97.96 206.12L99.52 203.36C103.84 200.16 108.08 196.92 112.24 193.64C116.4 190.36 120.6 187.12 124.84 183.92C126.68 184.08 128.16 184.76 129.28 185.96C130.32 187.08 130.84 188.52 130.84 190.28C130.84 191.96 130.4 193.36 129.52 194.48C128.56 195.52 127.24 196.68 125.56 197.96C122.36 200.28 119 202.68 115.48 205.16C111.96 207.64 108.64 210.04 105.52 212.36L103.12 215.12C98.96 218.56 94.96 221.84 91.12 224.96C87.28 228.08 83.36 231.24 79.36 234.44C77.36 234.04 75.8 233.28 74.68 232.16C73.56 231.04 73 229.68 73 228.08C73 226.4 73.44 225.08 74.32 224.12C75.12 223.16 76.2 222.16 77.56 221.12C80.68 218.8 84.04 216.4 87.64 213.92C91.16 211.44 94.6 208.84 97.96 206.12Z" fill="#2F2F2F"/>
<defs>
<filter id="filter0_d_48_159" x="29" y="143" width="138" height="138" filterUnits="userSpaceOnUse" color-interpolation-filters="sRGB">
<feFlood flood-opacity="0" result="BackgroundImageFix"/>
<feColorMatrix in="SourceAlpha" type="matrix" values="0 0 0 0 0 0 0 0 0 0 0 0 0 0 0 0 0 0 127 0" result="hardAlpha"/>
<feOffset dy="4"/>
<feGaussianBlur stdDeviation="2"/>
<feComposite in2="hardAlpha" operator="out"/>
<feColorMatrix type="matrix" values="0 0 0 0 0 0 0 0 0 0 0 0 0 0 0 0 0 0 0.25 0"/>
<feBlend mode="normal" in2="BackgroundImageFix" result="effect1_dropShadow_48_159"/>
<feBlend mode="normal" in="SourceGraphic" in2="effect1_dropShadow_48_159" result="shape"/>
</filter>
</defs>
</svg>
