<svg width="166" height="1024" viewBox="0 0 166 1024" fill="none" xmlns="http://www.w3.org/2000/svg">
<rect width="166" height="1024" transform="matrix(-1 0 0 1 166 0)" fill="#FFBD98" fill-opacity="0.8"/>
<path d="M66.424 69.008C66.424 67.1307 67.3627 65.424 69.24 63.888C71.2027 62.2667 73.848 60.9867 77.176 60.048C80.5893 59.024 84.344 58.512 88.44 58.512C94.2427 58.512 99.1493 59.4933 103.16 61.456C107.256 63.3333 110.371 65.9787 112.504 69.392C114.723 72.72 115.832 76.6453 115.832 81.168C115.832 85.8613 114.552 90.4267 111.992 94.864C109.432 99.3013 105.123 104.208 99.064 109.584L79.096 127.504H115.448C115.789 128.016 116.131 128.741 116.472 129.68C116.813 130.533 116.984 131.515 116.984 132.624C116.984 134.416 116.515 135.781 115.576 136.72C114.723 137.573 113.571 138 112.12 138H67.192C66.0827 137.232 65.2293 136.293 64.632 135.184C64.0347 133.989 63.736 132.667 63.736 131.216C63.736 129.509 64.0773 128.016 64.76 126.736C65.4427 125.456 66.3387 124.304 67.448 123.28L89.208 102.8C94.328 98.1067 97.8267 94.224 99.704 91.152C101.581 87.9947 102.52 84.7947 102.52 81.552C102.52 77.968 101.24 75.024 98.68 72.72C96.2053 70.416 92.408 69.264 87.288 69.264C83.6187 69.264 80.3333 69.904 77.432 71.184C74.616 72.3787 72.2267 73.6587 70.264 75.024C69.24 74.512 68.344 73.744 67.576 72.72C66.808 71.696 66.424 70.4587 66.424 69.008Z" fill="black"/>
<path d="M82.896 243.928L82.32 250.392H66.128C66.0427 250.136 65.936 249.731 65.808 249.176C65.68 248.664 65.616 248.088 65.616 247.448C65.616 246.253 65.8293 245.357 66.256 244.76C66.7253 244.205 67.5147 243.928 68.624 243.928H82.896ZM79.12 250.392L79.632 243.928H107.536C107.621 244.184 107.707 244.589 107.792 245.144C107.92 245.699 107.984 246.275 107.984 246.872C107.984 248.109 107.771 249.005 107.344 249.56C106.917 250.115 106.149 250.392 105.04 250.392H79.12ZM77.328 262.417L82.064 262.161L84.688 280.401C86.6933 280.23 88.3573 279.505 89.68 278.225C91.0453 276.945 91.728 275.131 91.728 272.785C91.728 270.353 90.8747 268.347 89.168 266.769C87.4613 265.19 85.008 264.379 81.808 264.337L79.504 264.465C76.432 264.763 74.128 265.83 72.592 267.665C71.056 269.542 70.288 271.995 70.288 275.025C70.288 276.817 70.5653 278.438 71.12 279.889C71.6747 281.382 72.2933 282.577 72.976 283.473C72.6347 283.985 72.208 284.39 71.696 284.689C71.2267 285.03 70.6933 285.201 70.096 285.201C69.1573 285.201 68.304 284.731 67.536 283.793C66.768 282.854 66.1707 281.574 65.744 279.953C65.3173 278.374 65.104 276.603 65.104 274.641C65.104 271.313 65.7013 268.411 66.896 265.937C68.1333 263.505 69.9467 261.606 72.336 260.241C74.768 258.875 77.7333 258.193 81.232 258.193C83.7493 258.193 85.968 258.555 87.888 259.281C89.8507 260.049 91.472 261.094 92.752 262.417C94.0747 263.739 95.0773 265.297 95.76 267.089C96.4427 268.881 96.784 270.801 96.784 272.849C96.784 275.537 96.208 277.905 95.056 279.953C93.9467 282.001 92.3893 283.601 90.384 284.753C88.4213 285.947 86.1387 286.545 83.536 286.545C82.512 286.545 81.744 286.267 81.232 285.713C80.7627 285.201 80.464 284.497 80.336 283.601L77.328 262.417ZM96.528 315.95C96.528 316.846 96.2933 317.593 95.824 318.19C95.3973 318.787 94.7147 319.086 93.776 319.086C93.1787 319.086 92.0907 318.851 90.512 318.382C88.976 317.913 87.1413 317.294 85.008 316.526C82.8747 315.801 80.656 314.99 78.352 314.094C76.048 313.198 73.8507 312.281 71.76 311.342C69.6693 310.446 67.8987 309.614 66.448 308.846C66.192 308.547 65.9787 308.057 65.808 307.374C65.6373 306.691 65.552 305.945 65.552 305.134C65.552 304.195 65.7013 303.363 66 302.638C66.256 301.913 66.6613 301.422 67.216 301.166C68.0693 300.697 69.3067 300.099 70.928 299.374C72.592 298.649 74.4693 297.859 76.56 297.006C78.6507 296.195 80.8053 295.363 83.024 294.51C85.2427 293.699 87.376 292.931 89.424 292.206C91.5147 291.523 93.3493 290.969 94.928 290.542C95.3973 290.883 95.7813 291.374 96.08 292.014C96.3787 292.654 96.528 293.294 96.528 293.934C96.528 294.873 96.2933 295.619 95.824 296.174C95.3973 296.771 94.6507 297.219 93.584 297.518L82.512 301.166C81.488 301.507 80.272 301.913 78.864 302.382C77.4987 302.894 76.1547 303.385 74.832 303.854C73.5093 304.366 72.4 304.75 71.504 305.006V305.326C75.5573 306.819 79.632 308.227 83.728 309.55C87.8667 310.915 91.8987 312.089 95.824 313.07C96.2933 313.881 96.528 314.841 96.528 315.95ZM77.328 327.854L82.064 327.598L84.688 345.838C86.6933 345.667 88.3573 344.942 89.68 343.662C91.0453 342.382 91.728 340.569 91.728 338.222C91.728 335.79 90.8747 333.785 89.168 332.206C87.4613 330.627 85.008 329.817 81.808 329.774L79.504 329.902C76.432 330.201 74.128 331.267 72.592 333.102C71.056 334.979 70.288 337.433 70.288 340.462C70.288 342.254 70.5653 343.875 71.12 345.326C71.6747 346.819 72.2933 348.014 72.976 348.91C72.6347 349.422 72.208 349.827 71.696 350.126C71.2267 350.467 70.6933 350.638 70.096 350.638C69.1573 350.638 68.304 350.169 67.536 349.23C66.768 348.291 66.1707 347.011 65.744 345.39C65.3173 343.811 65.104 342.041 65.104 340.078C65.104 336.75 65.7013 333.849 66.896 331.374C68.1333 328.942 69.9467 327.043 72.336 325.678C74.768 324.313 77.7333 323.63 81.232 323.63C83.7493 323.63 85.968 323.993 87.888 324.718C89.8507 325.486 91.472 326.531 92.752 327.854C94.0747 329.177 95.0773 330.734 95.76 332.526C96.4427 334.318 96.784 336.238 96.784 338.286C96.784 340.974 96.208 343.342 95.056 345.39C93.9467 347.438 92.3893 349.038 90.384 350.19C88.4213 351.385 86.1387 351.982 83.536 351.982C82.512 351.982 81.744 351.705 81.232 351.15C80.7627 350.638 80.464 349.934 80.336 349.038L77.328 327.854ZM82.896 359.366L82.32 365.83H66.128C66.0427 365.574 65.936 365.168 65.808 364.614C65.68 364.102 65.616 363.525 65.616 362.885C65.616 361.691 65.8293 360.795 66.256 360.198C66.7253 359.643 67.5147 359.366 68.624 359.366H82.896ZM79.12 365.83L79.632 359.366H107.536C107.621 359.622 107.707 360.027 107.792 360.582C107.92 361.136 107.984 361.712 107.984 362.31C107.984 363.547 107.771 364.443 107.344 364.998C106.917 365.552 106.149 365.83 105.04 365.83H79.12ZM80.976 416.587C77.7333 416.587 74.9173 415.968 72.528 414.731C70.1813 413.493 68.3467 411.744 67.024 409.483C65.744 407.221 65.104 404.576 65.104 401.547C65.104 398.475 65.744 395.808 67.024 393.547C68.3467 391.285 70.1813 389.536 72.528 388.299C74.9173 387.061 77.7333 386.443 80.976 386.443C84.2187 386.443 87.0133 387.061 89.36 388.299C91.7067 389.579 93.52 391.349 94.8 393.611C96.1227 395.872 96.784 398.517 96.784 401.547C96.784 404.533 96.1227 407.157 94.8 409.419C93.52 411.68 91.7067 413.429 89.36 414.667C87.0133 415.947 84.2187 416.587 80.976 416.587ZM91.536 401.547C91.536 398.944 90.5973 396.875 88.72 395.339C86.8427 393.803 84.2613 393.035 80.976 393.035C77.6053 393.035 74.9813 393.781 73.104 395.275C71.2693 396.768 70.352 398.859 70.352 401.547C70.352 404.192 71.2907 406.24 73.168 407.691C75.0453 409.184 77.648 409.931 80.976 409.931C84.2613 409.931 86.8427 409.184 88.72 407.691C90.5973 406.197 91.536 404.149 91.536 401.547ZM88.976 429.23H94.096V442.478C93.84 442.648 93.4773 442.798 93.008 442.926C92.5813 443.096 92.0907 443.182 91.536 443.182C90.6827 443.182 90.0427 442.968 89.616 442.542C89.1893 442.115 88.976 441.539 88.976 440.814V429.23ZM97.68 430.318H89.808V424.046H97.936C100.539 424.046 102.651 424.536 104.272 425.518C105.893 426.542 107.088 427.95 107.856 429.742C108.624 431.576 109.008 433.71 109.008 436.142C109.008 438.744 108.667 440.75 107.984 442.158C107.301 443.608 106.363 444.334 105.168 444.334C104.613 444.334 104.101 444.206 103.632 443.95C103.205 443.736 102.821 443.438 102.48 443.054C102.864 442.286 103.163 441.347 103.376 440.238C103.632 439.171 103.76 438.104 103.76 437.038C103.76 434.606 103.269 432.878 102.288 431.854C101.349 430.83 99.8133 430.318 97.68 430.318ZM92.304 424.046V430.51H66.128C66.0427 430.211 65.936 429.784 65.808 429.23C65.68 428.718 65.616 428.163 65.616 427.566C65.616 426.371 65.8293 425.475 66.256 424.878C66.7253 424.323 67.5147 424.046 68.624 424.046H92.304ZM86.928 482.186C84.4107 481.503 81.872 480.757 79.312 479.946C76.752 479.135 74.3627 478.346 72.144 477.578C69.9253 476.853 68.048 476.191 66.512 475.594C66.2133 475.21 65.9787 474.719 65.808 474.122C65.6373 473.567 65.552 472.842 65.552 471.946C65.552 471.007 65.7013 470.154 66 469.386C66.2987 468.661 66.7467 468.17 67.344 467.914C68.1973 467.53 69.4133 467.061 70.992 466.506C72.6133 465.994 74.4693 465.461 76.56 464.906C78.6507 464.351 80.8053 463.797 83.024 463.242C85.2427 462.687 87.3973 462.175 89.488 461.706C91.5787 461.237 93.4347 460.831 95.056 460.49C95.44 460.874 95.7813 461.343 96.08 461.898C96.3787 462.495 96.528 463.178 96.528 463.946C96.528 464.927 96.272 465.674 95.76 466.186C95.2907 466.741 94.48 467.103 93.328 467.274C91.1947 467.658 88.9973 468.063 86.736 468.49C84.5173 468.959 82.4053 469.429 80.4 469.898C78.4373 470.367 76.688 470.773 75.152 471.114C73.616 471.498 72.464 471.775 71.696 471.946V472.202C72.72 472.501 74.3413 472.991 76.56 473.674C78.8213 474.357 81.3813 475.146 84.24 476.042C87.1413 476.981 90.064 477.898 93.008 478.794C93.264 479.263 93.456 479.775 93.584 480.33C93.7547 480.885 93.84 481.525 93.84 482.25C93.84 483.189 93.6693 483.978 93.328 484.618C93.0293 485.258 92.5387 485.685 91.856 485.898C89.04 486.837 86.2667 487.711 83.536 488.522C80.848 489.333 78.4587 490.058 76.368 490.698C74.2773 491.338 72.72 491.786 71.696 492.042V492.362C75.3653 493.215 79.2693 494.133 83.408 495.114C87.5893 496.138 91.7067 496.97 95.76 497.61C96.272 498.421 96.528 499.359 96.528 500.426C96.528 501.322 96.3147 502.047 95.888 502.602C95.504 503.157 94.8427 503.434 93.904 503.434C93.392 503.434 92.4533 503.306 91.088 503.05C89.7653 502.794 88.208 502.431 86.416 501.962C84.6667 501.535 82.7893 501.045 80.784 500.49C78.8213 499.978 76.9013 499.423 75.024 498.826C73.1893 498.271 71.504 497.738 69.968 497.226C68.4747 496.757 67.3227 496.33 66.512 495.946C66.256 495.647 66.0427 495.157 65.872 494.474C65.6587 493.834 65.552 493.109 65.552 492.298C65.552 490.122 66.064 488.842 67.088 488.458C68.5387 487.903 70.3307 487.263 72.464 486.538C74.5973 485.855 76.9227 485.13 79.44 484.362C81.9573 483.637 84.4533 482.911 86.928 482.186ZM80.976 538.399C77.7333 538.399 74.9173 537.78 72.528 536.543C70.1813 535.306 68.3467 533.556 67.024 531.295C65.744 529.034 65.104 526.388 65.104 523.359C65.104 520.287 65.744 517.62 67.024 515.359C68.3467 513.098 70.1813 511.348 72.528 510.111C74.9173 508.874 77.7333 508.255 80.976 508.255C84.2187 508.255 87.0133 508.874 89.36 510.111C91.7067 511.391 93.52 513.162 94.8 515.423C96.1227 517.684 96.784 520.33 96.784 523.359C96.784 526.346 96.1227 528.97 94.8 531.231C93.52 533.492 91.7067 535.242 89.36 536.479C87.0133 537.759 84.2187 538.399 80.976 538.399ZM91.536 523.359C91.536 520.756 90.5973 518.687 88.72 517.151C86.8427 515.615 84.2613 514.847 80.976 514.847C77.6053 514.847 74.9813 515.594 73.104 517.087C71.2693 518.58 70.352 520.671 70.352 523.359C70.352 526.004 71.2907 528.052 73.168 529.503C75.0453 530.996 77.648 531.743 80.976 531.743C84.2613 531.743 86.8427 530.996 88.72 529.503C90.5973 528.01 91.536 525.962 91.536 523.359ZM89.552 552.194H80.144V545.73H89.68C90.704 545.73 91.536 545.943 92.176 546.37C92.8587 546.797 93.4987 547.458 94.096 548.354C94.864 549.549 95.504 551.106 96.016 553.026C96.528 554.989 96.784 557.122 96.784 559.426C96.784 563.138 95.7387 564.994 93.648 564.994C93.136 564.994 92.6667 564.909 92.24 564.738C91.8133 564.61 91.4507 564.418 91.152 564.162C91.2373 563.735 91.3013 563.181 91.344 562.498C91.4293 561.858 91.472 561.197 91.472 560.514C91.472 558.765 91.28 557.165 90.896 555.714C90.5547 554.306 90.1067 553.133 89.552 552.194ZM82.896 545.73L82.32 552.194H66.128C66.0427 551.895 65.936 551.469 65.808 550.914C65.68 550.402 65.616 549.847 65.616 549.25C65.616 548.055 65.8293 547.159 66.256 546.562C66.7253 546.007 67.5147 545.73 68.624 545.73H82.896ZM79.12 580.269L82.192 575.917L96.464 590.509C96.4213 591.789 96.1227 592.813 95.568 593.581C95.0133 594.349 94.2667 594.733 93.328 594.733C92.6027 594.733 91.9413 594.477 91.344 593.965C90.7467 593.496 90.0427 592.77 89.232 591.789L79.12 580.269ZM81.168 575.981L83.728 580.781L69.392 596.397C68.1973 596.269 67.2587 595.906 66.576 595.309C65.8933 594.712 65.552 593.88 65.552 592.813C65.552 592.002 65.7653 591.256 66.192 590.573C66.6187 589.933 67.216 589.272 67.984 588.589L81.168 575.981ZM83.088 570.733L82.512 577.197H66.128C66.0427 576.898 65.936 576.472 65.808 575.917C65.68 575.405 65.616 574.85 65.616 574.253C65.616 573.058 65.8293 572.162 66.256 571.565C66.7253 571.01 67.5147 570.733 68.624 570.733H83.088ZM79.248 577.197L79.824 570.733H107.536C107.621 570.989 107.707 571.394 107.792 571.949C107.92 572.504 107.984 573.101 107.984 573.741C107.984 574.893 107.771 575.746 107.344 576.301C106.917 576.898 106.149 577.197 105.04 577.197H79.248ZM82.896 603.241L82.32 609.705H66.128C66.0427 609.449 65.936 609.043 65.808 608.489C65.68 607.977 65.616 607.4 65.616 606.76C65.616 605.566 65.8293 604.67 66.256 604.073C66.7253 603.518 67.5147 603.241 68.624 603.241H82.896ZM79.12 609.705L79.632 603.241H107.536C107.621 603.497 107.707 603.902 107.792 604.457C107.92 605.011 107.984 605.587 107.984 606.185C107.984 607.422 107.771 608.318 107.344 608.873C106.917 609.427 106.149 609.705 105.04 609.705H79.12ZM80.976 647.649C77.7333 647.649 74.9173 647.03 72.528 645.793C70.1813 644.556 68.3467 642.806 67.024 640.545C65.744 638.284 65.104 635.638 65.104 632.609C65.104 629.537 65.744 626.87 67.024 624.609C68.3467 622.348 70.1813 620.598 72.528 619.361C74.9173 618.124 77.7333 617.505 80.976 617.505C84.2187 617.505 87.0133 618.124 89.36 619.361C91.7067 620.641 93.52 622.412 94.8 624.673C96.1227 626.934 96.784 629.58 96.784 632.609C96.784 635.596 96.1227 638.22 94.8 640.481C93.52 642.742 91.7067 644.492 89.36 645.729C87.0133 647.009 84.2187 647.649 80.976 647.649ZM91.536 632.609C91.536 630.006 90.5973 627.937 88.72 626.401C86.8427 624.865 84.2613 624.097 80.976 624.097C77.6053 624.097 74.9813 624.844 73.104 626.337C71.2693 627.83 70.352 629.921 70.352 632.609C70.352 635.254 71.2907 637.302 73.168 638.753C75.0453 640.246 77.648 640.993 80.976 640.993C84.2613 640.993 86.8427 640.246 88.72 638.753C90.5973 637.26 91.536 635.212 91.536 632.609ZM65.104 666.305C65.104 662.166 65.8933 658.924 67.472 656.577C69.0933 654.273 71.4613 653.121 74.576 653.121C77.392 653.121 79.5467 654.038 81.04 655.873C82.5333 657.75 83.4507 660.353 83.792 663.681L84.688 672.641H86.16C88.08 672.641 89.4667 672.022 90.32 670.785C91.216 669.548 91.664 667.862 91.664 665.729C91.664 664.022 91.4293 662.358 90.96 660.737C90.4907 659.158 89.936 657.75 89.296 656.513C89.6373 656.129 90.0427 655.788 90.512 655.489C91.024 655.19 91.536 655.041 92.048 655.041C93.4133 655.041 94.416 655.766 95.056 657.217C95.6107 658.369 96.0373 659.713 96.336 661.249C96.6347 662.828 96.784 664.449 96.784 666.113C96.784 670.038 95.9307 673.153 94.224 675.457C92.5173 677.804 89.808 678.977 86.096 678.977H71.12C70.1387 678.977 69.3707 678.764 68.816 678.337C68.304 677.91 67.8133 677.334 67.344 676.609C66.7467 675.5 66.2347 674.049 65.808 672.257C65.3387 670.508 65.104 668.524 65.104 666.305ZM70.16 666.305C70.16 667.841 70.3093 669.164 70.608 670.273C70.9493 671.382 71.2693 672.172 71.568 672.641H79.888L79.184 665.473C79.0133 663.51 78.5653 662.017 77.84 660.993C77.1147 660.012 76.0693 659.521 74.704 659.521C73.296 659.521 72.1867 660.076 71.376 661.185C70.5653 662.337 70.16 664.044 70.16 666.305ZM71.824 707.826H92.624L92.688 714.29H71.312C70.4587 714.29 69.7547 714.098 69.2 713.714C68.6453 713.33 68.112 712.711 67.6 711.858C67.0027 710.919 66.448 709.618 65.936 707.954C65.3813 706.29 65.104 704.391 65.104 702.258C65.104 699.015 65.6587 696.178 66.768 693.746C67.8773 691.357 69.584 689.479 71.888 688.114C74.2347 686.791 77.2213 686.13 80.848 686.13C84.56 686.13 87.5893 686.791 89.936 688.114C92.2827 689.437 94.0107 691.229 95.12 693.49C96.2293 695.794 96.784 698.333 96.784 701.106C96.784 702.727 96.5707 704.242 96.144 705.65C95.7173 707.058 95.2053 708.167 94.608 708.978H88.912C89.5947 708.21 90.192 707.229 90.704 706.034C91.2587 704.839 91.536 703.453 91.536 701.874C91.536 700.167 91.1733 698.61 90.448 697.202C89.7653 695.837 88.6347 694.749 87.056 693.938C85.4773 693.127 83.3653 692.722 80.72 692.722C77.136 692.722 74.512 693.575 72.848 695.282C71.184 696.989 70.352 699.293 70.352 702.194C70.352 703.517 70.5013 704.605 70.8 705.458C71.0987 706.354 71.44 707.143 71.824 707.826ZM91.216 714.29V707.762H107.536C107.621 708.061 107.707 708.487 107.792 709.042C107.92 709.597 107.984 710.173 107.984 710.77C107.984 711.965 107.771 712.839 107.344 713.394C106.917 713.991 106.149 714.29 105.04 714.29H91.216Z" fill="black"/>
</svg>
