<svg width="195" height="287" viewBox="0 0 195 287" fill="none" xmlns="http://www.w3.org/2000/svg">
<rect x="23" y="5" width="150" height="277" rx="75" fill="white"/>
<rect x="20.5" y="2.5" width="155" height="282" rx="77.5" stroke="#A9A9A9" stroke-opacity="0.6" stroke-width="5"/>
<g filter="url(#filter0_d_48_221)">
<circle cx="98" cy="78" r="65" fill="#D8D8D8"/>
<circle cx="98" cy="78" r="63" stroke="#755E5E" stroke-opacity="0.17" stroke-width="4"/>
</g>
<path d="M97.24 83.44L96.64 81.16C92.56 78.04 88.68 75.08 85 72.28C81.32 69.4 77.36 66.48 73.12 63.52C73.04 63.12 73 62.84 73 62.68C73 62.52 73 62.28 73 61.96C73 59.8 73.48 58.12 74.44 56.92C75.4 55.64 76.68 55 78.28 55C79.48 55 80.56 55.28 81.52 55.84C82.48 56.32 83.72 57.16 85.24 58.36C88.36 60.92 91.48 63.52 94.6 66.16C97.72 68.8 100.8 71.4 103.84 73.96L106.48 77.8C110.4 80.68 114.44 83.64 118.6 86.68C122.68 89.64 126.72 92.56 130.72 95.44C130.72 95.52 130.72 95.8 130.72 96.28C130.72 96.76 130.72 97.08 130.72 97.24C130.72 99.64 130.24 101.44 129.28 102.64C128.24 103.84 126.96 104.44 125.44 104.44C124.48 104.44 123.56 104.24 122.68 103.84C121.8 103.36 120.56 102.48 118.96 101.2C115.28 98.32 111.68 95.36 108.16 92.32C104.56 89.28 100.92 86.32 97.24 83.44ZM97.96 76.12L99.52 73.36C103.84 70.16 108.08 66.92 112.24 63.64C116.4 60.36 120.6 57.12 124.84 53.92C126.68 54.08 128.16 54.76 129.28 55.96C130.32 57.08 130.84 58.52 130.84 60.28C130.84 61.96 130.4 63.36 129.52 64.48C128.56 65.52 127.24 66.68 125.56 67.96C122.36 70.28 119 72.68 115.48 75.16C111.96 77.64 108.64 80.04 105.52 82.36L103.12 85.12C98.96 88.56 94.96 91.84 91.12 94.96C87.28 98.08 83.36 101.24 79.36 104.44C77.36 104.04 75.8 103.28 74.68 102.16C73.56 101.04 73 99.68 73 98.08C73 96.4 73.44 95.08 74.32 94.12C75.12 93.16 76.2 92.16 77.56 91.12C80.68 88.8 84.04 86.4 87.64 83.92C91.16 81.44 94.6 78.84 97.96 76.12Z" fill="#2F2F2F"/>
<defs>
<filter id="filter0_d_48_221" x="29" y="13" width="138" height="138" filterUnits="userSpaceOnUse" color-interpolation-filters="sRGB">
<feFlood flood-opacity="0" result="BackgroundImageFix"/>
<feColorMatrix in="SourceAlpha" type="matrix" values="0 0 0 0 0 0 0 0 0 0 0 0 0 0 0 0 0 0 127 0" result="hardAlpha"/>
<feOffset dy="4"/>
<feGaussianBlur stdDeviation="2"/>
<feComposite in2="hardAlpha" operator="out"/>
<feColorMatrix type="matrix" values="0 0 0 0 0 0 0 0 0 0 0 0 0 0 0 0 0 0 0.25 0"/>
<feBlend mode="normal" in2="BackgroundImageFix" result="effect1_dropShadow_48_221"/>
<feBlend mode="normal" in="SourceGraphic" in2="effect1_dropShadow_48_221" result="shape"/>
</filter>
</defs>
</svg>
