<svg width="332" height="1024" viewBox="0 0 332 1024" fill="none" xmlns="http://www.w3.org/2000/svg">
<rect width="166" height="1024" transform="matrix(-1 0 0 1 166 0)" fill="#FFBD98"/>
<path d="M66.424 69.008C66.424 67.1307 67.3627 65.424 69.24 63.888C71.2027 62.2667 73.848 60.9867 77.176 60.048C80.5893 59.024 84.344 58.512 88.44 58.512C94.2427 58.512 99.1493 59.4933 103.16 61.456C107.256 63.3333 110.371 65.9787 112.504 69.392C114.723 72.72 115.832 76.6453 115.832 81.168C115.832 85.8613 114.552 90.4267 111.992 94.864C109.432 99.3013 105.123 104.208 99.064 109.584L79.096 127.504H115.448C115.789 128.016 116.131 128.741 116.472 129.68C116.813 130.533 116.984 131.515 116.984 132.624C116.984 134.416 116.515 135.781 115.576 136.72C114.723 137.573 113.571 138 112.12 138H67.192C66.0827 137.232 65.2293 136.293 64.632 135.184C64.0347 133.989 63.736 132.667 63.736 131.216C63.736 129.509 64.0773 128.016 64.76 126.736C65.4427 125.456 66.3387 124.304 67.448 123.28L89.208 102.8C94.328 98.1067 97.8267 94.224 99.704 91.152C101.581 87.9947 102.52 84.7947 102.52 81.552C102.52 77.968 101.24 75.024 98.68 72.72C96.2053 70.416 92.408 69.264 87.288 69.264C83.6187 69.264 80.3333 69.904 77.432 71.184C74.616 72.3787 72.2267 73.6587 70.264 75.024C69.24 74.512 68.344 73.744 67.576 72.72C66.808 71.696 66.424 70.4587 66.424 69.008Z" fill="black"/>
<path d="M82.896 243.928L82.32 250.392H66.128C66.0427 250.136 65.936 249.731 65.808 249.176C65.68 248.664 65.616 248.088 65.616 247.448C65.616 246.253 65.8293 245.357 66.256 244.76C66.7253 244.205 67.5147 243.928 68.624 243.928H82.896ZM79.12 250.392L79.632 243.928H107.536C107.621 244.184 107.707 244.589 107.792 245.144C107.92 245.699 107.984 246.275 107.984 246.872C107.984 248.109 107.771 249.005 107.344 249.56C106.917 250.115 106.149 250.392 105.04 250.392H79.12ZM77.328 262.417L82.064 262.161L84.688 280.401C86.6933 280.23 88.3573 279.505 89.68 278.225C91.0453 276.945 91.728 275.131 91.728 272.785C91.728 270.353 90.8747 268.347 89.168 266.769C87.4613 265.19 85.008 264.379 81.808 264.337L79.504 264.465C76.432 264.763 74.128 265.83 72.592 267.665C71.056 269.542 70.288 271.995 70.288 275.025C70.288 276.817 70.5653 278.438 71.12 279.889C71.6747 281.382 72.2933 282.577 72.976 283.473C72.6347 283.985 72.208 284.39 71.696 284.689C71.2267 285.03 70.6933 285.201 70.096 285.201C69.1573 285.201 68.304 284.731 67.536 283.793C66.768 282.854 66.1707 281.574 65.744 279.953C65.3173 278.374 65.104 276.603 65.104 274.641C65.104 271.313 65.7013 268.411 66.896 265.937C68.1333 263.505 69.9467 261.606 72.336 260.241C74.768 258.875 77.7333 258.193 81.232 258.193C83.7493 258.193 85.968 258.555 87.888 259.281C89.8507 260.049 91.472 261.094 92.752 262.417C94.0747 263.739 95.0773 265.297 95.76 267.089C96.4427 268.881 96.784 270.801 96.784 272.849C96.784 275.537 96.208 277.905 95.056 279.953C93.9467 282.001 92.3893 283.601 90.384 284.753C88.4213 285.947 86.1387 286.545 83.536 286.545C82.512 286.545 81.744 286.267 81.232 285.713C80.7627 285.201 80.464 284.497 80.336 283.601L77.328 262.417ZM96.528 315.95C96.528 316.846 96.2933 317.593 95.824 318.19C95.3973 318.787 94.7147 319.086 93.776 319.086C93.1787 319.086 92.0907 318.851 90.512 318.382C88.976 317.913 87.1413 317.294 85.008 316.526C82.8747 315.801 80.656 314.99 78.352 314.094C76.048 313.198 73.8507 312.281 71.76 311.342C69.6693 310.446 67.8987 309.614 66.448 308.846C66.192 308.547 65.9787 308.057 65.808 307.374C65.6373 306.691 65.552 305.945 65.552 305.134C65.552 304.195 65.7013 303.363 66 302.638C66.256 301.913 66.6613 301.422 67.216 301.166C68.0693 300.697 69.3067 300.099 70.928 299.374C72.592 298.649 74.4693 297.859 76.56 297.006C78.6507 296.195 80.8053 295.363 83.024 294.51C85.2427 293.699 87.376 292.931 89.424 292.206C91.5147 291.523 93.3493 290.969 94.928 290.542C95.3973 290.883 95.7813 291.374 96.08 292.014C96.3787 292.654 96.528 293.294 96.528 293.934C96.528 294.873 96.2933 295.619 95.824 296.174C95.3973 296.771 94.6507 297.219 93.584 297.518L82.512 301.166C81.488 301.507 80.272 301.913 78.864 302.382C77.4987 302.894 76.1547 303.385 74.832 303.854C73.5093 304.366 72.4 304.75 71.504 305.006V305.326C75.5573 306.819 79.632 308.227 83.728 309.55C87.8667 310.915 91.8987 312.089 95.824 313.07C96.2933 313.881 96.528 314.841 96.528 315.95ZM77.328 327.854L82.064 327.598L84.688 345.838C86.6933 345.667 88.3573 344.942 89.68 343.662C91.0453 342.382 91.728 340.569 91.728 338.222C91.728 335.79 90.8747 333.785 89.168 332.206C87.4613 330.627 85.008 329.817 81.808 329.774L79.504 329.902C76.432 330.201 74.128 331.267 72.592 333.102C71.056 334.979 70.288 337.433 70.288 340.462C70.288 342.254 70.5653 343.875 71.12 345.326C71.6747 346.819 72.2933 348.014 72.976 348.91C72.6347 349.422 72.208 349.827 71.696 350.126C71.2267 350.467 70.6933 350.638 70.096 350.638C69.1573 350.638 68.304 350.169 67.536 349.23C66.768 348.291 66.1707 347.011 65.744 345.39C65.3173 343.811 65.104 342.041 65.104 340.078C65.104 336.75 65.7013 333.849 66.896 331.374C68.1333 328.942 69.9467 327.043 72.336 325.678C74.768 324.313 77.7333 323.63 81.232 323.63C83.7493 323.63 85.968 323.993 87.888 324.718C89.8507 325.486 91.472 326.531 92.752 327.854C94.0747 329.177 95.0773 330.734 95.76 332.526C96.4427 334.318 96.784 336.238 96.784 338.286C96.784 340.974 96.208 343.342 95.056 345.39C93.9467 347.438 92.3893 349.038 90.384 350.19C88.4213 351.385 86.1387 351.982 83.536 351.982C82.512 351.982 81.744 351.705 81.232 351.15C80.7627 350.638 80.464 349.934 80.336 349.038L77.328 327.854ZM82.896 359.366L82.32 365.83H66.128C66.0427 365.574 65.936 365.168 65.808 364.614C65.68 364.102 65.616 363.525 65.616 362.885C65.616 361.691 65.8293 360.795 66.256 360.198C66.7253 359.643 67.5147 359.366 68.624 359.366H82.896ZM79.12 365.83L79.632 359.366H107.536C107.621 359.622 107.707 360.027 107.792 360.582C107.92 361.136 107.984 361.712 107.984 362.31C107.984 363.547 107.771 364.443 107.344 364.998C106.917 365.552 106.149 365.83 105.04 365.83H79.12ZM80.976 416.587C77.7333 416.587 74.9173 415.968 72.528 414.731C70.1813 413.493 68.3467 411.744 67.024 409.483C65.744 407.221 65.104 404.576 65.104 401.547C65.104 398.475 65.744 395.808 67.024 393.547C68.3467 391.285 70.1813 389.536 72.528 388.299C74.9173 387.061 77.7333 386.443 80.976 386.443C84.2187 386.443 87.0133 387.061 89.36 388.299C91.7067 389.579 93.52 391.349 94.8 393.611C96.1227 395.872 96.784 398.517 96.784 401.547C96.784 404.533 96.1227 407.157 94.8 409.419C93.52 411.68 91.7067 413.429 89.36 414.667C87.0133 415.947 84.2187 416.587 80.976 416.587ZM91.536 401.547C91.536 398.944 90.5973 396.875 88.72 395.339C86.8427 393.803 84.2613 393.035 80.976 393.035C77.6053 393.035 74.9813 393.781 73.104 395.275C71.2693 396.768 70.352 398.859 70.352 401.547C70.352 404.192 71.2907 406.24 73.168 407.691C75.0453 409.184 77.648 409.931 80.976 409.931C84.2613 409.931 86.8427 409.184 88.72 407.691C90.5973 406.197 91.536 404.149 91.536 401.547ZM88.976 429.23H94.096V442.478C93.84 442.648 93.4773 442.798 93.008 442.926C92.5813 443.096 92.0907 443.182 91.536 443.182C90.6827 443.182 90.0427 442.968 89.616 442.542C89.1893 442.115 88.976 441.539 88.976 440.814V429.23ZM97.68 430.318H89.808V424.046H97.936C100.539 424.046 102.651 424.536 104.272 425.518C105.893 426.542 107.088 427.95 107.856 429.742C108.624 431.576 109.008 433.71 109.008 436.142C109.008 438.744 108.667 440.75 107.984 442.158C107.301 443.608 106.363 444.334 105.168 444.334C104.613 444.334 104.101 444.206 103.632 443.95C103.205 443.736 102.821 443.438 102.48 443.054C102.864 442.286 103.163 441.347 103.376 440.238C103.632 439.171 103.76 438.104 103.76 437.038C103.76 434.606 103.269 432.878 102.288 431.854C101.349 430.83 99.8133 430.318 97.68 430.318ZM92.304 424.046V430.51H66.128C66.0427 430.211 65.936 429.784 65.808 429.23C65.68 428.718 65.616 428.163 65.616 427.566C65.616 426.371 65.8293 425.475 66.256 424.878C66.7253 424.323 67.5147 424.046 68.624 424.046H92.304ZM86.928 482.186C84.4107 481.503 81.872 480.757 79.312 479.946C76.752 479.135 74.3627 478.346 72.144 477.578C69.9253 476.853 68.048 476.191 66.512 475.594C66.2133 475.21 65.9787 474.719 65.808 474.122C65.6373 473.567 65.552 472.842 65.552 471.946C65.552 471.007 65.7013 470.154 66 469.386C66.2987 468.661 66.7467 468.17 67.344 467.914C68.1973 467.53 69.4133 467.061 70.992 466.506C72.6133 465.994 74.4693 465.461 76.56 464.906C78.6507 464.351 80.8053 463.797 83.024 463.242C85.2427 462.687 87.3973 462.175 89.488 461.706C91.5787 461.237 93.4347 460.831 95.056 460.49C95.44 460.874 95.7813 461.343 96.08 461.898C96.3787 462.495 96.528 463.178 96.528 463.946C96.528 464.927 96.272 465.674 95.76 466.186C95.2907 466.741 94.48 467.103 93.328 467.274C91.1947 467.658 88.9973 468.063 86.736 468.49C84.5173 468.959 82.4053 469.429 80.4 469.898C78.4373 470.367 76.688 470.773 75.152 471.114C73.616 471.498 72.464 471.775 71.696 471.946V472.202C72.72 472.501 74.3413 472.991 76.56 473.674C78.8213 474.357 81.3813 475.146 84.24 476.042C87.1413 476.981 90.064 477.898 93.008 478.794C93.264 479.263 93.456 479.775 93.584 480.33C93.7547 480.885 93.84 481.525 93.84 482.25C93.84 483.189 93.6693 483.978 93.328 484.618C93.0293 485.258 92.5387 485.685 91.856 485.898C89.04 486.837 86.2667 487.711 83.536 488.522C80.848 489.333 78.4587 490.058 76.368 490.698C74.2773 491.338 72.72 491.786 71.696 492.042V492.362C75.3653 493.215 79.2693 494.133 83.408 495.114C87.5893 496.138 91.7067 496.97 95.76 497.61C96.272 498.421 96.528 499.359 96.528 500.426C96.528 501.322 96.3147 502.047 95.888 502.602C95.504 503.157 94.8427 503.434 93.904 503.434C93.392 503.434 92.4533 503.306 91.088 503.05C89.7653 502.794 88.208 502.431 86.416 501.962C84.6667 501.535 82.7893 501.045 80.784 500.49C78.8213 499.978 76.9013 499.423 75.024 498.826C73.1893 498.271 71.504 497.738 69.968 497.226C68.4747 496.757 67.3227 496.33 66.512 495.946C66.256 495.647 66.0427 495.157 65.872 494.474C65.6587 493.834 65.552 493.109 65.552 492.298C65.552 490.122 66.064 488.842 67.088 488.458C68.5387 487.903 70.3307 487.263 72.464 486.538C74.5973 485.855 76.9227 485.13 79.44 484.362C81.9573 483.637 84.4533 482.911 86.928 482.186ZM80.976 538.399C77.7333 538.399 74.9173 537.78 72.528 536.543C70.1813 535.306 68.3467 533.556 67.024 531.295C65.744 529.034 65.104 526.388 65.104 523.359C65.104 520.287 65.744 517.62 67.024 515.359C68.3467 513.098 70.1813 511.348 72.528 510.111C74.9173 508.874 77.7333 508.255 80.976 508.255C84.2187 508.255 87.0133 508.874 89.36 510.111C91.7067 511.391 93.52 513.162 94.8 515.423C96.1227 517.684 96.784 520.33 96.784 523.359C96.784 526.346 96.1227 528.97 94.8 531.231C93.52 533.492 91.7067 535.242 89.36 536.479C87.0133 537.759 84.2187 538.399 80.976 538.399ZM91.536 523.359C91.536 520.756 90.5973 518.687 88.72 517.151C86.8427 515.615 84.2613 514.847 80.976 514.847C77.6053 514.847 74.9813 515.594 73.104 517.087C71.2693 518.58 70.352 520.671 70.352 523.359C70.352 526.004 71.2907 528.052 73.168 529.503C75.0453 530.996 77.648 531.743 80.976 531.743C84.2613 531.743 86.8427 530.996 88.72 529.503C90.5973 528.01 91.536 525.962 91.536 523.359ZM89.552 552.194H80.144V545.73H89.68C90.704 545.73 91.536 545.943 92.176 546.37C92.8587 546.797 93.4987 547.458 94.096 548.354C94.864 549.549 95.504 551.106 96.016 553.026C96.528 554.989 96.784 557.122 96.784 559.426C96.784 563.138 95.7387 564.994 93.648 564.994C93.136 564.994 92.6667 564.909 92.24 564.738C91.8133 564.61 91.4507 564.418 91.152 564.162C91.2373 563.735 91.3013 563.181 91.344 562.498C91.4293 561.858 91.472 561.197 91.472 560.514C91.472 558.765 91.28 557.165 90.896 555.714C90.5547 554.306 90.1067 553.133 89.552 552.194ZM82.896 545.73L82.32 552.194H66.128C66.0427 551.895 65.936 551.469 65.808 550.914C65.68 550.402 65.616 549.847 65.616 549.25C65.616 548.055 65.8293 547.159 66.256 546.562C66.7253 546.007 67.5147 545.73 68.624 545.73H82.896ZM79.12 580.269L82.192 575.917L96.464 590.509C96.4213 591.789 96.1227 592.813 95.568 593.581C95.0133 594.349 94.2667 594.733 93.328 594.733C92.6027 594.733 91.9413 594.477 91.344 593.965C90.7467 593.496 90.0427 592.77 89.232 591.789L79.12 580.269ZM81.168 575.981L83.728 580.781L69.392 596.397C68.1973 596.269 67.2587 595.906 66.576 595.309C65.8933 594.712 65.552 593.88 65.552 592.813C65.552 592.002 65.7653 591.256 66.192 590.573C66.6187 589.933 67.216 589.272 67.984 588.589L81.168 575.981ZM83.088 570.733L82.512 577.197H66.128C66.0427 576.898 65.936 576.472 65.808 575.917C65.68 575.405 65.616 574.85 65.616 574.253C65.616 573.058 65.8293 572.162 66.256 571.565C66.7253 571.01 67.5147 570.733 68.624 570.733H83.088ZM79.248 577.197L79.824 570.733H107.536C107.621 570.989 107.707 571.394 107.792 571.949C107.92 572.504 107.984 573.101 107.984 573.741C107.984 574.893 107.771 575.746 107.344 576.301C106.917 576.898 106.149 577.197 105.04 577.197H79.248ZM82.896 603.241L82.32 609.705H66.128C66.0427 609.449 65.936 609.043 65.808 608.489C65.68 607.977 65.616 607.4 65.616 606.76C65.616 605.566 65.8293 604.67 66.256 604.073C66.7253 603.518 67.5147 603.241 68.624 603.241H82.896ZM79.12 609.705L79.632 603.241H107.536C107.621 603.497 107.707 603.902 107.792 604.457C107.92 605.011 107.984 605.587 107.984 606.185C107.984 607.422 107.771 608.318 107.344 608.873C106.917 609.427 106.149 609.705 105.04 609.705H79.12ZM80.976 647.649C77.7333 647.649 74.9173 647.03 72.528 645.793C70.1813 644.556 68.3467 642.806 67.024 640.545C65.744 638.284 65.104 635.638 65.104 632.609C65.104 629.537 65.744 626.87 67.024 624.609C68.3467 622.348 70.1813 620.598 72.528 619.361C74.9173 618.124 77.7333 617.505 80.976 617.505C84.2187 617.505 87.0133 618.124 89.36 619.361C91.7067 620.641 93.52 622.412 94.8 624.673C96.1227 626.934 96.784 629.58 96.784 632.609C96.784 635.596 96.1227 638.22 94.8 640.481C93.52 642.742 91.7067 644.492 89.36 645.729C87.0133 647.009 84.2187 647.649 80.976 647.649ZM91.536 632.609C91.536 630.006 90.5973 627.937 88.72 626.401C86.8427 624.865 84.2613 624.097 80.976 624.097C77.6053 624.097 74.9813 624.844 73.104 626.337C71.2693 627.83 70.352 629.921 70.352 632.609C70.352 635.254 71.2907 637.302 73.168 638.753C75.0453 640.246 77.648 640.993 80.976 640.993C84.2613 640.993 86.8427 640.246 88.72 638.753C90.5973 637.26 91.536 635.212 91.536 632.609ZM65.104 666.305C65.104 662.166 65.8933 658.924 67.472 656.577C69.0933 654.273 71.4613 653.121 74.576 653.121C77.392 653.121 79.5467 654.038 81.04 655.873C82.5333 657.75 83.4507 660.353 83.792 663.681L84.688 672.641H86.16C88.08 672.641 89.4667 672.022 90.32 670.785C91.216 669.548 91.664 667.862 91.664 665.729C91.664 664.022 91.4293 662.358 90.96 660.737C90.4907 659.158 89.936 657.75 89.296 656.513C89.6373 656.129 90.0427 655.788 90.512 655.489C91.024 655.19 91.536 655.041 92.048 655.041C93.4133 655.041 94.416 655.766 95.056 657.217C95.6107 658.369 96.0373 659.713 96.336 661.249C96.6347 662.828 96.784 664.449 96.784 666.113C96.784 670.038 95.9307 673.153 94.224 675.457C92.5173 677.804 89.808 678.977 86.096 678.977H71.12C70.1387 678.977 69.3707 678.764 68.816 678.337C68.304 677.91 67.8133 677.334 67.344 676.609C66.7467 675.5 66.2347 674.049 65.808 672.257C65.3387 670.508 65.104 668.524 65.104 666.305ZM70.16 666.305C70.16 667.841 70.3093 669.164 70.608 670.273C70.9493 671.382 71.2693 672.172 71.568 672.641H79.888L79.184 665.473C79.0133 663.51 78.5653 662.017 77.84 660.993C77.1147 660.012 76.0693 659.521 74.704 659.521C73.296 659.521 72.1867 660.076 71.376 661.185C70.5653 662.337 70.16 664.044 70.16 666.305ZM71.824 707.826H92.624L92.688 714.29H71.312C70.4587 714.29 69.7547 714.098 69.2 713.714C68.6453 713.33 68.112 712.711 67.6 711.858C67.0027 710.919 66.448 709.618 65.936 707.954C65.3813 706.29 65.104 704.391 65.104 702.258C65.104 699.015 65.6587 696.178 66.768 693.746C67.8773 691.357 69.584 689.479 71.888 688.114C74.2347 686.791 77.2213 686.13 80.848 686.13C84.56 686.13 87.5893 686.791 89.936 688.114C92.2827 689.437 94.0107 691.229 95.12 693.49C96.2293 695.794 96.784 698.333 96.784 701.106C96.784 702.727 96.5707 704.242 96.144 705.65C95.7173 707.058 95.2053 708.167 94.608 708.978H88.912C89.5947 708.21 90.192 707.229 90.704 706.034C91.2587 704.839 91.536 703.453 91.536 701.874C91.536 700.167 91.1733 698.61 90.448 697.202C89.7653 695.837 88.6347 694.749 87.056 693.938C85.4773 693.127 83.3653 692.722 80.72 692.722C77.136 692.722 74.512 693.575 72.848 695.282C71.184 696.989 70.352 699.293 70.352 702.194C70.352 703.517 70.5013 704.605 70.8 705.458C71.0987 706.354 71.44 707.143 71.824 707.826ZM91.216 714.29V707.762H107.536C107.621 708.061 107.707 708.487 107.792 709.042C107.92 709.597 107.984 710.173 107.984 710.77C107.984 711.965 107.771 712.839 107.344 713.394C106.917 713.991 106.149 714.29 105.04 714.29H91.216Z" fill="black"/>
<rect x="166" width="166" height="1025" fill="#D291CC"/>
<path d="M254.288 58.512C262.736 58.512 269.477 60.3467 274.512 64.016C279.547 67.6 282.064 72.9333 282.064 80.016C282.064 83.2587 281.424 86.0747 280.144 88.464C278.864 90.768 277.285 92.6453 275.408 94.096C273.531 95.5467 271.781 96.528 270.16 97.04C272.464 97.808 274.683 99.0027 276.816 100.624C278.949 102.245 280.699 104.336 282.064 106.896C283.515 109.456 284.24 112.571 284.24 116.24C284.24 121.36 282.96 125.627 280.4 129.04C277.925 132.453 274.469 135.056 270.032 136.848C265.595 138.64 260.475 139.536 254.672 139.536C249.637 139.536 245.243 139.024 241.488 138C237.819 136.976 234.96 135.653 232.912 134.032C230.864 132.411 229.84 130.661 229.84 128.784C229.84 127.248 230.224 125.968 230.992 124.944C231.76 123.92 232.741 123.067 233.936 122.384C235.984 123.92 238.544 125.371 241.616 126.736C244.773 128.101 248.869 128.784 253.904 128.784C259.195 128.784 263.419 127.675 266.576 125.456C269.819 123.237 271.44 119.952 271.44 115.6C271.44 111.675 269.989 108.56 267.088 106.256C264.187 103.952 259.92 102.8 254.288 102.8H243.28C242.939 102.203 242.597 101.435 242.256 100.496C242 99.5573 241.872 98.576 241.872 97.552C241.872 96.3573 242 95.2907 242.256 94.352C242.597 93.4133 242.939 92.688 243.28 92.176H253.648C259.195 92.176 263.163 91.152 265.552 89.104C267.941 86.9707 269.136 84.1547 269.136 80.656C269.136 76.9867 267.728 74.1707 264.912 72.208C262.096 70.16 258.213 69.136 253.264 69.136C249.339 69.136 245.84 69.7333 242.768 70.928C239.781 72.0373 237.307 73.2747 235.344 74.64C234.405 74.128 233.552 73.36 232.784 72.336C232.016 71.2267 231.632 69.9893 231.632 68.624C231.632 66.7467 232.613 65.04 234.576 63.504C236.624 61.968 239.312 60.7733 242.64 59.92C246.053 58.9813 249.936 58.512 254.288 58.512Z" fill="black"/>
<path d="M258.896 243.544V250.008H250.704C249.125 250.008 248.016 250.456 247.376 251.352C246.736 252.248 246.416 253.507 246.416 255.128C246.416 255.853 246.523 256.621 246.736 257.432C246.949 258.285 247.205 259.011 247.504 259.608C247.205 259.907 246.843 260.163 246.416 260.376C245.989 260.589 245.477 260.696 244.88 260.696C243.771 260.696 242.875 260.12 242.192 258.968C241.509 257.859 241.168 256.195 241.168 253.976C241.168 250.819 241.872 248.28 243.28 246.36C244.688 244.483 247.013 243.544 250.256 243.544H258.896ZM266.064 247.192H271.248V259.992C271.035 260.12 270.693 260.269 270.224 260.44C269.755 260.611 269.264 260.696 268.752 260.696C267.856 260.696 267.173 260.483 266.704 260.056C266.277 259.629 266.064 259.053 266.064 258.328V247.192ZM257.04 250.008V243.544H280.208C280.293 243.8 280.379 244.205 280.464 244.76C280.592 245.315 280.656 245.912 280.656 246.552C280.656 247.704 280.421 248.557 279.952 249.112C279.525 249.709 278.779 250.008 277.712 250.008H257.04ZM256.976 295.462C253.733 295.462 250.917 294.843 248.528 293.606C246.181 292.368 244.347 290.619 243.024 288.358C241.744 286.096 241.104 283.451 241.104 280.422C241.104 277.35 241.744 274.683 243.024 272.422C244.347 270.16 246.181 268.411 248.528 267.174C250.917 265.936 253.733 265.318 256.976 265.318C260.219 265.318 263.013 265.936 265.36 267.174C267.707 268.454 269.52 270.224 270.8 272.486C272.123 274.747 272.784 277.392 272.784 280.422C272.784 283.408 272.123 286.032 270.8 288.294C269.52 290.555 267.707 292.304 265.36 293.542C263.013 294.822 260.219 295.462 256.976 295.462ZM267.536 280.422C267.536 277.819 266.597 275.75 264.72 274.214C262.843 272.678 260.261 271.91 256.976 271.91C253.605 271.91 250.981 272.656 249.104 274.15C247.269 275.643 246.352 277.734 246.352 280.422C246.352 283.067 247.291 285.115 249.168 286.566C251.045 288.059 253.648 288.806 256.976 288.806C260.261 288.806 262.843 288.059 264.72 286.566C266.597 285.072 267.536 283.024 267.536 280.422ZM241.168 316.169C241.168 314.419 241.403 312.798 241.872 311.305C242.341 309.811 242.875 308.659 243.472 307.849H249.232C248.507 308.659 247.845 309.662 247.248 310.857C246.693 312.094 246.416 313.566 246.416 315.273C246.416 318.046 247.269 320.265 248.976 321.929C250.683 323.593 253.371 324.425 257.04 324.425C259.643 324.425 261.691 323.998 263.184 323.145C264.72 322.334 265.829 321.246 266.512 319.881C267.195 318.515 267.536 317.001 267.536 315.337C267.536 313.971 267.365 312.798 267.024 311.817C266.683 310.835 266.32 309.982 265.936 309.257H245.2V302.793H266.192C267.131 302.793 267.877 302.963 268.432 303.305C269.029 303.646 269.605 304.265 270.16 305.161C270.843 306.355 271.44 307.806 271.952 309.513C272.507 311.262 272.784 313.203 272.784 315.337C272.784 318.323 272.229 320.99 271.12 323.337C270.053 325.683 268.347 327.539 266 328.905C263.696 330.27 260.709 330.953 257.04 330.953C253.541 330.953 250.597 330.313 248.208 329.033C245.861 327.795 244.091 326.067 242.896 323.849C241.744 321.63 241.168 319.07 241.168 316.169ZM230.032 306.312C230.032 305.118 230.267 304.222 230.736 303.625C231.205 303.07 231.973 302.793 233.04 302.793H247.184L247.12 309.257H230.48C230.395 308.958 230.309 308.531 230.224 307.977C230.096 307.465 230.032 306.91 230.032 306.312ZM281.104 337.845C282.171 337.845 283.067 338.207 283.792 338.933C284.517 339.701 284.88 340.661 284.88 341.812C284.88 342.965 284.517 343.903 283.792 344.629C283.067 345.354 282.171 345.717 281.104 345.717C280.037 345.717 279.141 345.354 278.416 344.629C277.691 343.903 277.328 342.965 277.328 341.812C277.328 340.661 277.691 339.701 278.416 338.933C279.141 338.207 280.037 337.845 281.104 337.845ZM258.896 338.549V345.077H242.128C242.043 344.778 241.936 344.351 241.808 343.797C241.68 343.285 241.616 342.709 241.616 342.069C241.616 340.917 241.829 340.042 242.256 339.445C242.725 338.847 243.515 338.549 244.624 338.549H258.896ZM255.632 345.077V338.549H271.696C271.824 338.847 271.931 339.253 272.016 339.765C272.144 340.319 272.208 340.917 272.208 341.557C272.208 342.751 271.973 343.626 271.504 344.181C271.077 344.778 270.309 345.077 269.2 345.077H255.632ZM267.472 368.947C267.472 366.216 266.555 363.934 264.72 362.099C262.928 360.264 260.325 359.347 256.912 359.347C253.499 359.347 250.896 360.222 249.104 361.971C247.312 363.763 246.416 366.067 246.416 368.883C246.416 370.59 246.629 372.019 247.056 373.171C247.525 374.323 248.037 375.326 248.592 376.179C248.251 376.734 247.845 377.16 247.376 377.459C246.949 377.8 246.395 377.971 245.712 377.971C244.432 377.971 243.344 377.096 242.448 375.347C241.595 373.598 241.168 371.358 241.168 368.627C241.168 365.512 241.744 362.76 242.896 360.371C244.048 357.982 245.776 356.104 248.08 354.739C250.427 353.416 253.371 352.755 256.912 352.755C260.411 352.755 263.333 353.459 265.68 354.867C268.069 356.275 269.84 358.174 270.992 360.563C272.187 362.952 272.784 365.576 272.784 368.435C272.784 371.166 272.315 373.384 271.376 375.091C270.437 376.798 269.307 377.651 267.984 377.651C267.429 377.651 266.917 377.502 266.448 377.203C265.979 376.904 265.616 376.499 265.36 375.987C265.915 375.091 266.405 374.088 266.832 372.979C267.259 371.912 267.472 370.568 267.472 368.947ZM256.976 426.524C253.733 426.524 250.917 425.905 248.528 424.668C246.181 423.431 244.347 421.681 243.024 419.42C241.744 417.159 241.104 414.513 241.104 411.484C241.104 408.412 241.744 405.745 243.024 403.484C244.347 401.223 246.181 399.473 248.528 398.236C250.917 396.999 253.733 396.38 256.976 396.38C260.219 396.38 263.013 396.999 265.36 398.236C267.707 399.516 269.52 401.287 270.8 403.548C272.123 405.809 272.784 408.455 272.784 411.484C272.784 414.471 272.123 417.095 270.8 419.356C269.52 421.617 267.707 423.367 265.36 424.604C263.013 425.884 260.219 426.524 256.976 426.524ZM267.536 411.484C267.536 408.881 266.597 406.812 264.72 405.276C262.843 403.74 260.261 402.972 256.976 402.972C253.605 402.972 250.981 403.719 249.104 405.212C247.269 406.705 246.352 408.796 246.352 411.484C246.352 414.129 247.291 416.177 249.168 417.628C251.045 419.121 253.648 419.868 256.976 419.868C260.261 419.868 262.843 419.121 264.72 417.628C266.597 416.135 267.536 414.087 267.536 411.484ZM264.976 439.167H270.096V452.415C269.84 452.586 269.477 452.735 269.008 452.863C268.581 453.034 268.091 453.119 267.536 453.119C266.683 453.119 266.043 452.906 265.616 452.479C265.189 452.052 264.976 451.476 264.976 450.751V439.167ZM273.68 440.255H265.808V433.983H273.936C276.539 433.983 278.651 434.474 280.272 435.455C281.893 436.479 283.088 437.887 283.856 439.679C284.624 441.514 285.008 443.647 285.008 446.079C285.008 448.682 284.667 450.687 283.984 452.095C283.301 453.546 282.363 454.271 281.168 454.271C280.613 454.271 280.101 454.143 279.632 453.887C279.205 453.674 278.821 453.375 278.48 452.991C278.864 452.223 279.163 451.284 279.376 450.175C279.632 449.108 279.76 448.042 279.76 446.975C279.76 444.543 279.269 442.815 278.288 441.791C277.349 440.767 275.813 440.255 273.68 440.255ZM268.304 433.983V440.447H242.128C242.043 440.148 241.936 439.722 241.808 439.167C241.68 438.655 241.616 438.1 241.616 437.503C241.616 436.308 241.829 435.412 242.256 434.815C242.725 434.26 243.515 433.983 244.624 433.983H268.304ZM281.104 472.22C282.171 472.22 283.067 472.582 283.792 473.308C284.517 474.076 284.88 475.036 284.88 476.188C284.88 477.34 284.517 478.278 283.792 479.004C283.067 479.729 282.171 480.092 281.104 480.092C280.037 480.092 279.141 479.729 278.416 479.004C277.691 478.278 277.328 477.34 277.328 476.188C277.328 475.036 277.691 474.076 278.416 473.308C279.141 472.582 280.037 472.22 281.104 472.22ZM258.896 472.924V479.452H242.128C242.043 479.153 241.936 478.726 241.808 478.172C241.68 477.66 241.616 477.084 241.616 476.444C241.616 475.292 241.829 474.417 242.256 473.82C242.725 473.222 243.515 472.924 244.624 472.924H258.896ZM255.632 479.452V472.924H271.696C271.824 473.222 271.931 473.628 272.016 474.14C272.144 474.694 272.208 475.292 272.208 475.932C272.208 477.126 271.973 478.001 271.504 478.556C271.077 479.153 270.309 479.452 269.2 479.452H255.632ZM261.648 515.482H255.248V509.018H261.392C263.525 509.018 265.083 508.399 266.064 507.162C267.045 505.967 267.536 504.346 267.536 502.298C267.536 500.805 267.344 499.461 266.96 498.266C266.619 497.071 266.192 496.047 265.68 495.194H255.248V488.73H265.808C266.789 488.73 267.579 488.922 268.176 489.306C268.773 489.69 269.371 490.33 269.968 491.226C270.693 492.421 271.333 493.978 271.888 495.898C272.485 497.818 272.784 499.973 272.784 502.362C272.784 506.458 271.845 509.658 269.968 511.962C268.133 514.309 265.36 515.482 261.648 515.482ZM258.576 488.73V495.194H242.128C242.043 494.895 241.936 494.469 241.808 493.914C241.68 493.402 241.616 492.847 241.616 492.25C241.616 491.055 241.829 490.159 242.256 489.562C242.725 489.007 243.515 488.73 244.624 488.73H258.576ZM258.576 509.018V515.482H242.128C242.043 515.226 241.936 514.821 241.808 514.266C241.68 513.711 241.616 513.135 241.616 512.538C241.616 511.301 241.829 510.405 242.256 509.85C242.725 509.295 243.515 509.018 244.624 509.018H258.576ZM258.896 524.482V530.946H250.704C249.125 530.946 248.016 531.394 247.376 532.29C246.736 533.186 246.416 534.444 246.416 536.066C246.416 536.791 246.523 537.559 246.736 538.37C246.949 539.223 247.205 539.948 247.504 540.546C247.205 540.844 246.843 541.1 246.416 541.314C245.989 541.527 245.477 541.634 244.88 541.634C243.771 541.634 242.875 541.058 242.192 539.906C241.509 538.796 241.168 537.132 241.168 534.914C241.168 531.756 241.872 529.218 243.28 527.298C244.688 525.42 247.013 524.482 250.256 524.482H258.896ZM266.064 528.13H271.248V540.93C271.035 541.058 270.693 541.207 270.224 541.378C269.755 541.548 269.264 541.634 268.752 541.634C267.856 541.634 267.173 541.42 266.704 540.994C266.277 540.567 266.064 539.991 266.064 539.266V528.13ZM257.04 530.946V524.482H280.208C280.293 524.738 280.379 525.143 280.464 525.698C280.592 526.252 280.656 526.85 280.656 527.49C280.656 528.642 280.421 529.495 279.952 530.05C279.525 530.647 278.779 530.946 277.712 530.946H257.04ZM253.328 550.479L258.064 550.223L260.688 568.463C262.693 568.292 264.357 567.567 265.68 566.287C267.045 565.007 267.728 563.194 267.728 560.847C267.728 558.415 266.875 556.41 265.168 554.831C263.461 553.252 261.008 552.442 257.808 552.399L255.504 552.527C252.432 552.826 250.128 553.892 248.592 555.727C247.056 557.604 246.288 560.058 246.288 563.087C246.288 564.879 246.565 566.5 247.12 567.951C247.675 569.444 248.293 570.639 248.976 571.535C248.635 572.047 248.208 572.452 247.696 572.751C247.227 573.092 246.693 573.263 246.096 573.263C245.157 573.263 244.304 572.794 243.536 571.855C242.768 570.916 242.171 569.636 241.744 568.015C241.317 566.436 241.104 564.666 241.104 562.703C241.104 559.375 241.701 556.474 242.896 553.999C244.133 551.567 245.947 549.668 248.336 548.303C250.768 546.938 253.733 546.255 257.232 546.255C259.749 546.255 261.968 546.618 263.888 547.343C265.851 548.111 267.472 549.156 268.752 550.479C270.075 551.802 271.077 553.359 271.76 555.151C272.443 556.943 272.784 558.863 272.784 560.911C272.784 563.599 272.208 565.967 271.056 568.015C269.947 570.063 268.389 571.663 266.384 572.815C264.421 574.01 262.139 574.607 259.536 574.607C258.512 574.607 257.744 574.33 257.232 573.775C256.763 573.263 256.464 572.559 256.336 571.663L253.328 550.479ZM265.552 588.007H256.144V581.543H265.68C266.704 581.543 267.536 581.756 268.176 582.183C268.859 582.609 269.499 583.271 270.096 584.167C270.864 585.361 271.504 586.919 272.016 588.839C272.528 590.801 272.784 592.935 272.784 595.239C272.784 598.951 271.739 600.807 269.648 600.807C269.136 600.807 268.667 600.721 268.24 600.551C267.813 600.423 267.451 600.231 267.152 599.975C267.237 599.548 267.301 598.993 267.344 598.311C267.429 597.671 267.472 597.009 267.472 596.327C267.472 594.577 267.28 592.977 266.896 591.527C266.555 590.119 266.107 588.945 265.552 588.007ZM258.896 581.543L258.32 588.007H242.128C242.043 587.708 241.936 587.281 241.808 586.727C241.68 586.215 241.616 585.66 241.616 585.062C241.616 583.868 241.829 582.972 242.256 582.375C242.725 581.82 243.515 581.543 244.624 581.543H258.896ZM253.328 608.292L258.064 608.036L260.688 626.276C262.693 626.105 264.357 625.38 265.68 624.1C267.045 622.82 267.728 621.006 267.728 618.66C267.728 616.228 266.875 614.222 265.168 612.644C263.461 611.065 261.008 610.254 257.808 610.212L255.504 610.34C252.432 610.638 250.128 611.705 248.592 613.54C247.056 615.417 246.288 617.87 246.288 620.9C246.288 622.692 246.565 624.313 247.12 625.764C247.675 627.257 248.293 628.452 248.976 629.348C248.635 629.86 248.208 630.265 247.696 630.564C247.227 630.905 246.693 631.076 246.096 631.076C245.157 631.076 244.304 630.606 243.536 629.668C242.768 628.729 242.171 627.449 241.744 625.828C241.317 624.249 241.104 622.478 241.104 620.516C241.104 617.188 241.701 614.286 242.896 611.812C244.133 609.38 245.947 607.481 248.336 606.116C250.768 604.75 253.733 604.068 257.232 604.068C259.749 604.068 261.968 604.43 263.888 605.156C265.851 605.924 267.472 606.969 268.752 608.292C270.075 609.614 271.077 611.172 271.76 612.964C272.443 614.756 272.784 616.676 272.784 618.724C272.784 621.412 272.208 623.78 271.056 625.828C269.947 627.876 268.389 629.476 266.384 630.628C264.421 631.822 262.139 632.42 259.536 632.42C258.512 632.42 257.744 632.142 257.232 631.588C256.763 631.076 256.464 630.372 256.336 629.476L253.328 608.292ZM250.192 661.748C247.333 661.748 245.093 660.681 243.472 658.548C241.893 656.457 241.104 653.406 241.104 649.396C241.104 646.068 241.616 643.337 242.64 641.204C243.664 639.113 244.88 638.068 246.288 638.068C246.928 638.068 247.525 638.217 248.08 638.516C248.635 638.857 249.061 639.305 249.36 639.86C248.592 641.054 247.888 642.42 247.248 643.956C246.608 645.492 246.288 647.262 246.288 649.268C246.288 653.321 247.589 655.348 250.192 655.348C251.259 655.348 252.133 654.985 252.816 654.26C253.499 653.577 254.011 652.553 254.352 651.188L255.504 646.644C256.144 643.785 257.168 641.673 258.576 640.308C259.984 638.985 261.797 638.324 264.016 638.324C266.491 638.324 268.56 639.326 270.224 641.332C271.931 643.38 272.784 646.324 272.784 650.164C272.784 652.169 272.571 653.94 272.144 655.476C271.76 657.054 271.205 658.27 270.48 659.124C269.797 660.02 269.008 660.468 268.112 660.468C267.472 660.468 266.896 660.318 266.384 660.02C265.872 659.721 265.488 659.337 265.232 658.868C265.573 658.356 265.915 657.673 266.256 656.82C266.64 656.009 266.96 655.049 267.216 653.94C267.515 652.873 267.664 651.742 267.664 650.548C267.664 648.756 267.344 647.326 266.704 646.26C266.064 645.236 265.168 644.724 264.016 644.724C263.163 644.724 262.437 645.022 261.84 645.62C261.243 646.217 260.773 647.22 260.432 648.628L259.536 652.468C258.768 655.625 257.616 657.95 256.08 659.444C254.587 660.98 252.624 661.748 250.192 661.748ZM258.896 669.044V675.508H250.704C249.125 675.508 248.016 675.956 247.376 676.852C246.736 677.748 246.416 679.007 246.416 680.628C246.416 681.353 246.523 682.121 246.736 682.932C246.949 683.785 247.205 684.511 247.504 685.108C247.205 685.407 246.843 685.663 246.416 685.876C245.989 686.089 245.477 686.196 244.88 686.196C243.771 686.196 242.875 685.62 242.192 684.468C241.509 683.359 241.168 681.695 241.168 679.476C241.168 676.319 241.872 673.78 243.28 671.86C244.688 669.983 247.013 669.044 250.256 669.044H258.896ZM266.064 672.692H271.248V685.492C271.035 685.62 270.693 685.769 270.224 685.94C269.755 686.111 269.264 686.196 268.752 686.196C267.856 686.196 267.173 685.983 266.704 685.556C266.277 685.129 266.064 684.553 266.064 683.828V672.692ZM257.04 675.508V669.044H280.208C280.293 669.3 280.379 669.705 280.464 670.26C280.592 670.815 280.656 671.412 280.656 672.052C280.656 673.204 280.421 674.057 279.952 674.612C279.525 675.209 278.779 675.508 277.712 675.508H257.04ZM250.192 715.56C247.333 715.56 245.093 714.493 243.472 712.36C241.893 710.269 241.104 707.219 241.104 703.208C241.104 699.88 241.616 697.149 242.64 695.016C243.664 692.925 244.88 691.88 246.288 691.88C246.928 691.88 247.525 692.029 248.08 692.328C248.635 692.669 249.061 693.117 249.36 693.672C248.592 694.867 247.888 696.232 247.248 697.768C246.608 699.304 246.288 701.075 246.288 703.08C246.288 707.133 247.589 709.16 250.192 709.16C251.259 709.16 252.133 708.797 252.816 708.072C253.499 707.389 254.011 706.365 254.352 705L255.504 700.456C256.144 697.597 257.168 695.485 258.576 694.12C259.984 692.797 261.797 692.136 264.016 692.136C266.491 692.136 268.56 693.139 270.224 695.144C271.931 697.192 272.784 700.136 272.784 703.976C272.784 705.981 272.571 707.752 272.144 709.288C271.76 710.867 271.205 712.083 270.48 712.936C269.797 713.832 269.008 714.28 268.112 714.28C267.472 714.28 266.896 714.131 266.384 713.832C265.872 713.533 265.488 713.149 265.232 712.68C265.573 712.168 265.915 711.485 266.256 710.632C266.64 709.821 266.96 708.861 267.216 707.752C267.515 706.685 267.664 705.555 267.664 704.36C267.664 702.568 267.344 701.139 266.704 700.072C266.064 699.048 265.168 698.536 264.016 698.536C263.163 698.536 262.437 698.835 261.84 699.432C261.243 700.029 260.773 701.032 260.432 702.44L259.536 706.28C258.768 709.437 257.616 711.763 256.08 713.256C254.587 714.792 252.624 715.56 250.192 715.56Z" fill="black"/>
</svg>
