<svg width="244" height="77" viewBox="0 0 244 77" fill="none" xmlns="http://www.w3.org/2000/svg">
<rect width="244" height="77" rx="11" fill="#1F822F"/>
<path d="M32.2539 45.68C33.3259 45.68 34.1339 45.44 34.6779 44.96C35.2379 44.464 35.5179 43.832 35.5179 43.064C35.5179 42.408 35.3019 41.864 34.8699 41.432C34.4539 41 33.7899 40.656 32.8779 40.4L30.7899 39.776C30.1179 39.568 29.5339 39.304 29.0379 38.984C28.5419 38.648 28.1579 38.24 27.8859 37.76C27.6299 37.264 27.5019 36.688 27.5019 36.032C27.5019 34.8 27.9499 33.84 28.8459 33.152C29.7419 32.448 30.9339 32.096 32.4219 32.096C33.2859 32.096 34.0539 32.192 34.7259 32.384C35.4139 32.56 35.9499 32.792 36.3339 33.08C36.7339 33.368 36.9339 33.672 36.9339 33.992C36.9339 34.2 36.8779 34.392 36.7659 34.568C36.6539 34.728 36.5099 34.856 36.3339 34.952C35.9339 34.632 35.3899 34.352 34.7019 34.112C34.0299 33.872 33.2939 33.752 32.4939 33.752C31.5659 33.752 30.8299 33.96 30.2859 34.376C29.7419 34.776 29.4699 35.328 29.4699 36.032C29.4699 36.592 29.6619 37.048 30.0459 37.4C30.4459 37.752 31.0859 38.056 31.9659 38.312L33.4299 38.744C34.6939 39.096 35.6859 39.608 36.4059 40.28C37.1419 40.952 37.5099 41.88 37.5099 43.064C37.5099 44.328 37.0459 45.352 36.1179 46.136C35.2059 46.92 33.9179 47.312 32.2539 47.312C31.2779 47.312 30.4219 47.208 29.6859 47C28.9659 46.776 28.3979 46.504 27.9819 46.184C27.5819 45.848 27.3819 45.52 27.3819 45.2C27.3819 44.928 27.4619 44.704 27.6219 44.528C27.7979 44.336 27.9979 44.2 28.2219 44.12C28.5899 44.472 29.1099 44.824 29.7819 45.176C30.4539 45.512 31.2779 45.68 32.2539 45.68ZM44.5374 34.064L44.4174 32.408H50.0094C50.0574 32.472 50.1054 32.576 50.1534 32.72C50.2014 32.864 50.2254 33.016 50.2254 33.176C50.2254 33.432 50.1614 33.648 50.0334 33.824C49.9054 33.984 49.7214 34.064 49.4814 34.064H44.5374ZM44.5854 32.408L44.7054 34.064H39.0894C39.0414 33.984 38.9934 33.872 38.9454 33.728C38.8974 33.584 38.8734 33.432 38.8734 33.272C38.8734 33 38.9374 32.792 39.0654 32.648C39.1934 32.488 39.3774 32.408 39.6174 32.408H44.5854ZM43.5774 33.416H45.5214V46.952C45.4414 46.984 45.3134 47.016 45.1374 47.048C44.9774 47.096 44.8094 47.12 44.6334 47.12C44.2814 47.12 44.0174 47.048 43.8414 46.904C43.6654 46.76 43.5774 46.536 43.5774 46.232V33.416ZM57.027 33.92H56.931C56.691 34.592 56.403 35.392 56.067 36.32C55.747 37.248 55.411 38.208 55.059 39.2C54.723 40.176 54.403 41.088 54.099 41.936L53.979 42.296C53.883 42.584 53.763 42.944 53.619 43.376C53.475 43.808 53.323 44.264 53.163 44.744C53.003 45.208 52.851 45.648 52.707 46.064C52.563 46.464 52.451 46.792 52.371 47.048C52.259 47.096 52.139 47.128 52.011 47.144C51.899 47.176 51.755 47.192 51.579 47.192C51.323 47.192 51.091 47.128 50.883 47C50.691 46.856 50.595 46.632 50.595 46.328C50.595 46.184 50.619 46.04 50.667 45.896C50.715 45.736 50.771 45.568 50.835 45.392C51.027 44.848 51.259 44.184 51.531 43.4C51.819 42.616 52.131 41.76 52.467 40.832C52.803 39.904 53.155 38.952 53.523 37.976C53.891 37 54.251 36.048 54.603 35.12C54.955 34.192 55.283 33.344 55.587 32.576C55.715 32.512 55.907 32.448 56.163 32.384C56.419 32.32 56.683 32.288 56.955 32.288C57.275 32.288 57.579 32.336 57.867 32.432C58.171 32.528 58.363 32.688 58.443 32.912C58.827 33.84 59.235 34.896 59.667 36.08C60.115 37.248 60.563 38.472 61.011 39.752C61.459 41.016 61.883 42.248 62.283 43.448C62.699 44.648 63.067 45.736 63.387 46.712C63.275 46.856 63.123 46.968 62.931 47.048C62.755 47.144 62.555 47.192 62.331 47.192C62.027 47.192 61.795 47.128 61.635 47C61.475 46.856 61.339 46.624 61.227 46.304L59.907 42.392L59.715 41.72C59.395 40.744 59.059 39.76 58.707 38.768C58.371 37.776 58.051 36.856 57.747 36.008C57.459 35.16 57.219 34.464 57.027 33.92ZM53.043 43.112L53.667 41.504H60.363L60.747 43.112H53.043ZM68.1581 39.848H70.9181C72.1021 39.848 73.0301 39.592 73.7021 39.08C74.3741 38.568 74.7101 37.808 74.7101 36.8C74.7101 35.808 74.3581 35.056 73.6541 34.544C72.9501 34.032 71.9421 33.776 70.6301 33.776C70.1981 33.776 69.7581 33.8 69.3101 33.848C68.8781 33.88 68.4941 33.928 68.1581 33.992V39.848ZM70.9181 41.48H66.2141V33.464C66.2141 33.208 66.2781 33.016 66.4061 32.888C66.5501 32.744 66.7501 32.632 67.0061 32.552C67.4701 32.408 68.0381 32.304 68.7101 32.24C69.3981 32.176 70.0621 32.144 70.7021 32.144C72.7021 32.144 74.1981 32.552 75.1901 33.368C76.1821 34.184 76.6781 35.328 76.6781 36.8C76.6781 37.744 76.4621 38.568 76.0301 39.272C75.5981 39.976 74.9581 40.52 74.1101 40.904C73.2621 41.288 72.1981 41.48 70.9181 41.48ZM70.9661 40.856L72.4061 40.136C72.8541 40.696 73.3181 41.28 73.7981 41.888C74.2781 42.496 74.7421 43.088 75.1901 43.664C75.6381 44.24 76.0381 44.76 76.3901 45.224C76.7421 45.672 77.0141 46.024 77.2061 46.28C77.1421 46.552 76.9981 46.768 76.7741 46.928C76.5661 47.088 76.3501 47.168 76.1261 47.168C75.8541 47.168 75.6301 47.104 75.4541 46.976C75.2781 46.832 75.0941 46.632 74.9021 46.376L70.9661 40.856ZM66.2141 40.952H68.1821V46.952C68.0861 46.984 67.9581 47.016 67.7981 47.048C67.6381 47.096 67.4621 47.12 67.2701 47.12C66.9181 47.12 66.6541 47.048 66.4781 46.904C66.3021 46.76 66.2141 46.536 66.2141 46.232V40.952ZM84.1234 34.064L84.0034 32.408H89.5954C89.6434 32.472 89.6914 32.576 89.7394 32.72C89.7874 32.864 89.8114 33.016 89.8114 33.176C89.8114 33.432 89.7474 33.648 89.6194 33.824C89.4914 33.984 89.3074 34.064 89.0674 34.064H84.1234ZM84.1714 32.408L84.2914 34.064H78.6754C78.6274 33.984 78.5794 33.872 78.5314 33.728C78.4834 33.584 78.4594 33.432 78.4594 33.272C78.4594 33 78.5234 32.792 78.6514 32.648C78.7794 32.488 78.9634 32.408 79.2034 32.408H84.1714ZM83.1634 33.416H85.1074V46.952C85.0274 46.984 84.8994 47.016 84.7234 47.048C84.5634 47.096 84.3954 47.12 84.2194 47.12C83.8674 47.12 83.6034 47.048 83.4274 46.904C83.2514 46.76 83.1634 46.536 83.1634 46.232V33.416ZM99.3066 41.096L97.3626 41.072V33.464C97.3626 33.144 97.4586 32.888 97.6506 32.696C97.8426 32.504 98.0986 32.408 98.4186 32.408C98.5946 32.408 98.7706 32.432 98.9466 32.48C99.1226 32.528 99.2426 32.568 99.3066 32.6V41.096ZM98.4186 40.712V39.056H105.547C105.595 39.136 105.643 39.248 105.691 39.392C105.739 39.52 105.763 39.664 105.763 39.824C105.763 40.08 105.699 40.296 105.571 40.472C105.443 40.632 105.259 40.712 105.019 40.712H98.4186ZM98.4186 34.064V32.408H106.387C106.435 32.472 106.483 32.576 106.531 32.72C106.579 32.864 106.603 33.016 106.603 33.176C106.603 33.432 106.539 33.648 106.411 33.824C106.283 33.984 106.099 34.064 105.859 34.064H98.4186ZM97.3626 38.456H99.3306V46.976C99.2506 46.992 99.1226 47.016 98.9466 47.048C98.7866 47.096 98.6186 47.12 98.4426 47.12C98.0906 47.12 97.8186 47.048 97.6266 46.904C97.4506 46.76 97.3626 46.544 97.3626 46.256V38.456ZM111.705 39.848H114.465C115.649 39.848 116.577 39.592 117.249 39.08C117.921 38.568 118.257 37.808 118.257 36.8C118.257 35.808 117.905 35.056 117.201 34.544C116.497 34.032 115.489 33.776 114.177 33.776C113.745 33.776 113.305 33.8 112.857 33.848C112.425 33.88 112.041 33.928 111.705 33.992V39.848ZM114.465 41.48H109.761V33.464C109.761 33.208 109.825 33.016 109.953 32.888C110.097 32.744 110.297 32.632 110.553 32.552C111.017 32.408 111.585 32.304 112.257 32.24C112.945 32.176 113.609 32.144 114.249 32.144C116.249 32.144 117.745 32.552 118.737 33.368C119.729 34.184 120.225 35.328 120.225 36.8C120.225 37.744 120.009 38.568 119.577 39.272C119.145 39.976 118.505 40.52 117.657 40.904C116.809 41.288 115.745 41.48 114.465 41.48ZM114.513 40.856L115.953 40.136C116.401 40.696 116.865 41.28 117.345 41.888C117.825 42.496 118.289 43.088 118.737 43.664C119.185 44.24 119.585 44.76 119.937 45.224C120.289 45.672 120.561 46.024 120.753 46.28C120.689 46.552 120.545 46.768 120.321 46.928C120.113 47.088 119.897 47.168 119.673 47.168C119.401 47.168 119.177 47.104 119.001 46.976C118.825 46.832 118.641 46.632 118.449 46.376L114.513 40.856ZM109.761 40.952H111.729V46.952C111.633 46.984 111.505 47.016 111.345 47.048C111.185 47.096 111.009 47.12 110.817 47.12C110.465 47.12 110.201 47.048 110.025 46.904C109.849 46.76 109.761 46.536 109.761 46.232V40.952ZM136.833 39.704C136.833 41.368 136.529 42.768 135.921 43.904C135.313 45.024 134.481 45.872 133.425 46.448C132.385 47.024 131.201 47.312 129.873 47.312C128.561 47.312 127.377 47.024 126.321 46.448C125.265 45.872 124.433 45.024 123.825 43.904C123.217 42.768 122.913 41.368 122.913 39.704C122.913 38.04 123.225 36.648 123.849 35.528C124.473 34.392 125.305 33.536 126.345 32.96C127.401 32.384 128.577 32.096 129.873 32.096C131.185 32.096 132.361 32.384 133.401 32.96C134.457 33.536 135.289 34.392 135.897 35.528C136.521 36.648 136.833 38.04 136.833 39.704ZM134.841 39.704C134.841 37.8 134.385 36.336 133.473 35.312C132.577 34.272 131.377 33.752 129.873 33.752C128.385 33.752 127.185 34.272 126.273 35.312C125.377 36.336 124.929 37.8 124.929 39.704C124.929 41.608 125.377 43.08 126.273 44.12C127.169 45.144 128.369 45.656 129.873 45.656C131.393 45.656 132.601 45.144 133.497 44.12C134.393 43.08 134.841 41.608 134.841 39.704ZM148.487 43.208C148.375 43.288 148.223 43.36 148.031 43.424C147.855 43.488 147.655 43.52 147.431 43.52C147.175 43.52 146.943 43.48 146.735 43.4C146.543 43.32 146.407 43.192 146.327 43.016C145.479 41.224 144.735 39.584 144.095 38.096C143.471 36.608 142.967 35.376 142.583 34.4H142.487C142.439 35.6 142.383 36.72 142.319 37.76C142.271 38.8 142.215 39.808 142.151 40.784C142.087 41.744 142.023 42.736 141.959 43.76C141.911 44.768 141.847 45.848 141.767 47C141.671 47.032 141.543 47.064 141.383 47.096C141.239 47.128 141.079 47.144 140.903 47.144C140.551 47.144 140.303 47.072 140.159 46.928C140.015 46.768 139.943 46.56 139.943 46.304C139.943 46.112 139.959 45.672 139.991 44.984C140.039 44.28 140.087 43.424 140.135 42.416C140.199 41.408 140.271 40.336 140.351 39.2C140.431 38.048 140.511 36.92 140.591 35.816C140.687 34.696 140.775 33.688 140.855 32.792C140.983 32.68 141.167 32.576 141.407 32.48C141.647 32.384 141.919 32.336 142.223 32.336C142.591 32.336 142.903 32.408 143.159 32.552C143.415 32.696 143.615 32.92 143.759 33.224C144.175 34.04 144.591 34.928 145.007 35.888C145.423 36.848 145.831 37.808 146.231 38.768C146.631 39.728 147.015 40.632 147.383 41.48H147.479C148.183 39.784 148.879 38.152 149.567 36.584C150.271 35.016 150.863 33.68 151.343 32.576C151.487 32.496 151.671 32.44 151.895 32.408C152.119 32.36 152.327 32.336 152.519 32.336C152.887 32.336 153.175 32.4 153.383 32.528C153.607 32.64 153.751 32.832 153.815 33.104C153.879 33.376 153.951 33.84 154.031 34.496C154.111 35.152 154.191 35.928 154.271 36.824C154.351 37.704 154.423 38.632 154.487 39.608C154.567 40.584 154.639 41.544 154.703 42.488C154.767 43.432 154.823 44.288 154.871 45.056C154.935 45.808 154.975 46.408 154.991 46.856C154.847 46.952 154.695 47.024 154.535 47.072C154.375 47.12 154.191 47.144 153.983 47.144C153.743 47.144 153.527 47.088 153.335 46.976C153.159 46.848 153.055 46.624 153.023 46.304C152.927 44.752 152.831 43.224 152.735 41.72C152.655 40.2 152.583 38.808 152.519 37.544C152.455 36.28 152.399 35.248 152.351 34.448H152.255C151.903 35.328 151.423 36.464 150.815 37.856C150.207 39.232 149.431 41.016 148.487 43.208ZM163.714 38.312H165.682V46.952C165.586 46.984 165.458 47.016 165.298 47.048C165.138 47.096 164.962 47.12 164.77 47.12C164.418 47.12 164.154 47.048 163.978 46.904C163.802 46.76 163.714 46.536 163.714 46.232V38.312ZM165.682 39.92H163.714V32.456C163.794 32.424 163.914 32.392 164.074 32.36C164.25 32.312 164.434 32.288 164.626 32.288C164.978 32.288 165.242 32.36 165.418 32.504C165.594 32.632 165.682 32.856 165.682 33.176V39.92ZM173.17 38.312H175.138V46.952C175.042 46.984 174.914 47.016 174.754 47.048C174.594 47.096 174.418 47.12 174.226 47.12C173.874 47.12 173.61 47.048 173.434 46.904C173.258 46.76 173.17 46.536 173.17 46.232V38.312ZM175.138 39.92H173.17V32.456C173.25 32.424 173.37 32.392 173.53 32.36C173.706 32.312 173.89 32.288 174.082 32.288C174.434 32.288 174.698 32.36 174.874 32.504C175.05 32.632 175.138 32.856 175.138 33.176V39.92ZM174.202 40.424H164.89V38.792H174.202V40.424ZM179.417 38.216H181.361V46.808C181.297 46.824 181.177 46.864 181.001 46.928C180.825 46.976 180.649 47 180.473 47C180.153 47 179.897 46.904 179.705 46.712C179.513 46.504 179.417 46.248 179.417 45.944V38.216ZM181.361 41.048L179.417 41.024V33.464C179.417 33.144 179.513 32.888 179.705 32.696C179.897 32.504 180.153 32.408 180.473 32.408C180.649 32.408 180.825 32.432 181.001 32.48C181.177 32.528 181.297 32.568 181.361 32.6V41.048ZM180.473 40.328V38.696H187.697C187.745 38.76 187.793 38.864 187.841 39.008C187.889 39.152 187.913 39.304 187.913 39.464C187.913 39.72 187.849 39.928 187.721 40.088C187.593 40.248 187.409 40.328 187.169 40.328H180.473ZM180.473 47V45.368H188.561C188.609 45.432 188.657 45.536 188.705 45.68C188.753 45.808 188.777 45.96 188.777 46.136C188.777 46.392 188.713 46.6 188.585 46.76C188.457 46.92 188.273 47 188.033 47H180.473ZM180.473 34.064V32.408H188.441C188.489 32.472 188.537 32.576 188.585 32.72C188.633 32.864 188.657 33.016 188.657 33.176C188.657 33.432 188.593 33.648 188.465 33.824C188.337 33.984 188.153 34.064 187.913 34.064H180.473ZM194.111 39.848H196.871C198.055 39.848 198.983 39.592 199.655 39.08C200.327 38.568 200.663 37.808 200.663 36.8C200.663 35.808 200.311 35.056 199.607 34.544C198.903 34.032 197.895 33.776 196.583 33.776C196.151 33.776 195.711 33.8 195.263 33.848C194.831 33.88 194.447 33.928 194.111 33.992V39.848ZM196.871 41.48H192.167V33.464C192.167 33.208 192.231 33.016 192.359 32.888C192.503 32.744 192.703 32.632 192.959 32.552C193.423 32.408 193.991 32.304 194.663 32.24C195.351 32.176 196.015 32.144 196.655 32.144C198.655 32.144 200.151 32.552 201.143 33.368C202.135 34.184 202.631 35.328 202.631 36.8C202.631 37.744 202.415 38.568 201.983 39.272C201.551 39.976 200.911 40.52 200.063 40.904C199.215 41.288 198.151 41.48 196.871 41.48ZM196.919 40.856L198.359 40.136C198.807 40.696 199.271 41.28 199.751 41.888C200.231 42.496 200.695 43.088 201.143 43.664C201.591 44.24 201.991 44.76 202.343 45.224C202.695 45.672 202.967 46.024 203.159 46.28C203.095 46.552 202.951 46.768 202.727 46.928C202.519 47.088 202.303 47.168 202.079 47.168C201.807 47.168 201.583 47.104 201.407 46.976C201.231 46.832 201.047 46.632 200.855 46.376L196.919 40.856ZM192.167 40.952H194.135V46.952C194.039 46.984 193.911 47.016 193.751 47.048C193.591 47.096 193.415 47.12 193.223 47.12C192.871 47.12 192.607 47.048 192.431 46.904C192.255 46.76 192.167 46.536 192.167 46.232V40.952ZM206.3 38.216H208.244V46.808C208.18 46.824 208.06 46.864 207.884 46.928C207.708 46.976 207.532 47 207.356 47C207.036 47 206.78 46.904 206.588 46.712C206.396 46.504 206.3 46.248 206.3 45.944V38.216ZM208.244 41.048L206.3 41.024V33.464C206.3 33.144 206.396 32.888 206.588 32.696C206.78 32.504 207.036 32.408 207.356 32.408C207.532 32.408 207.708 32.432 207.884 32.48C208.06 32.528 208.18 32.568 208.244 32.6V41.048ZM207.356 40.328V38.696H214.58C214.628 38.76 214.676 38.864 214.724 39.008C214.772 39.152 214.796 39.304 214.796 39.464C214.796 39.72 214.732 39.928 214.604 40.088C214.476 40.248 214.292 40.328 214.052 40.328H207.356ZM207.356 47V45.368H215.444C215.492 45.432 215.54 45.536 215.588 45.68C215.636 45.808 215.66 45.96 215.66 46.136C215.66 46.392 215.596 46.6 215.468 46.76C215.34 46.92 215.156 47 214.916 47H207.356ZM207.356 34.064V32.408H215.324C215.372 32.472 215.42 32.576 215.468 32.72C215.516 32.864 215.54 33.016 215.54 33.176C215.54 33.432 215.476 33.648 215.348 33.824C215.22 33.984 215.036 34.064 214.796 34.064H207.356Z" fill="white"/>
</svg>
