<svg width="166" height="1024" viewBox="0 0 166 1024" fill="none" xmlns="http://www.w3.org/2000/svg">
<rect width="166" height="1025" fill="white" fill-opacity="0.7"/>
<rect width="166" height="1025" fill="#FFCE6D" fill-opacity="0.7"/>
<path d="M93.688 112.144H80.632V72.72L65.016 79.504C63.9067 78.992 62.9253 78.224 62.072 77.2C61.2187 76.176 60.792 74.8533 60.792 73.232C60.792 70.16 62.712 67.8987 66.552 66.448L83.576 59.28H86.52C88.7387 59.28 90.488 59.92 91.768 61.2C93.048 62.48 93.688 64.2293 93.688 66.448V112.144ZM80.632 104.208H93.688V138.128C93.0907 138.299 92.2373 138.469 91.128 138.64C90.104 138.896 88.952 139.024 87.672 139.024C85.2827 139.024 83.4907 138.555 82.296 137.616C81.1867 136.677 80.632 135.141 80.632 133.008V104.208Z" fill="black"/>
<path d="M88.976 261.605H94.096V274.853C93.84 275.023 93.4773 275.173 93.008 275.301C92.5813 275.471 92.0907 275.557 91.536 275.557C90.6827 275.557 90.0427 275.343 89.616 274.917C89.1893 274.49 88.976 273.914 88.976 273.189V261.605ZM97.68 262.693H89.808V256.421H97.936C100.539 256.421 102.651 256.911 104.272 257.893C105.893 258.917 107.088 260.325 107.856 262.117C108.624 263.951 109.008 266.085 109.008 268.517C109.008 271.119 108.667 273.125 107.984 274.533C107.301 275.983 106.363 276.709 105.168 276.709C104.613 276.709 104.101 276.581 103.632 276.325C103.205 276.111 102.821 275.813 102.48 275.429C102.864 274.661 103.163 273.722 103.376 272.613C103.632 271.546 103.76 270.479 103.76 269.413C103.76 266.981 103.269 265.253 102.288 264.229C101.349 263.205 99.8133 262.693 97.68 262.693ZM92.304 256.421V262.885H66.128C66.0427 262.586 65.936 262.159 65.808 261.605C65.68 261.093 65.616 260.538 65.616 259.941C65.616 258.746 65.8293 257.85 66.256 257.253C66.7253 256.698 67.5147 256.421 68.624 256.421H92.304ZM65.104 291.93C65.104 287.791 65.8933 284.549 67.472 282.202C69.0933 279.898 71.4613 278.746 74.576 278.746C77.392 278.746 79.5467 279.663 81.04 281.498C82.5333 283.375 83.4507 285.978 83.792 289.306L84.688 298.266H86.16C88.08 298.266 89.4667 297.647 90.32 296.41C91.216 295.173 91.664 293.487 91.664 291.354C91.664 289.647 91.4293 287.983 90.96 286.362C90.4907 284.783 89.936 283.375 89.296 282.138C89.6373 281.754 90.0427 281.413 90.512 281.114C91.024 280.815 91.536 280.666 92.048 280.666C93.4133 280.666 94.416 281.391 95.056 282.842C95.6107 283.994 96.0373 285.338 96.336 286.874C96.6347 288.453 96.784 290.074 96.784 291.738C96.784 295.663 95.9307 298.778 94.224 301.082C92.5173 303.429 89.808 304.602 86.096 304.602H71.12C70.1387 304.602 69.3707 304.389 68.816 303.962C68.304 303.535 67.8133 302.959 67.344 302.234C66.7467 301.125 66.2347 299.674 65.808 297.882C65.3387 296.133 65.104 294.149 65.104 291.93ZM70.16 291.93C70.16 293.466 70.3093 294.789 70.608 295.898C70.9493 297.007 71.2693 297.797 71.568 298.266H79.888L79.184 291.098C79.0133 289.135 78.5653 287.642 77.84 286.618C77.1147 285.637 76.0693 285.146 74.704 285.146C73.296 285.146 72.1867 285.701 71.376 286.81C70.5653 287.962 70.16 289.669 70.16 291.93ZM82.896 313.803L82.32 320.267H66.128C66.0427 320.011 65.936 319.606 65.808 319.051C65.68 318.539 65.616 317.963 65.616 317.323C65.616 316.128 65.8293 315.232 66.256 314.635C66.7253 314.08 67.5147 313.803 68.624 313.803H82.896ZM79.12 320.267L79.632 313.803H107.536C107.621 314.059 107.707 314.464 107.792 315.019C107.92 315.574 107.984 316.15 107.984 316.747C107.984 317.984 107.771 318.88 107.344 319.435C106.917 319.99 106.149 320.267 105.04 320.267H79.12ZM82.896 330.241L82.32 336.705H66.128C66.0427 336.449 65.936 336.043 65.808 335.489C65.68 334.977 65.616 334.4 65.616 333.76C65.616 332.566 65.8293 331.67 66.256 331.073C66.7253 330.518 67.5147 330.241 68.624 330.241H82.896ZM79.12 336.705L79.632 330.241H107.536C107.621 330.497 107.707 330.902 107.792 331.457C107.92 332.011 107.984 332.587 107.984 333.185C107.984 334.422 107.771 335.318 107.344 335.873C106.917 336.427 106.149 336.705 105.04 336.705H79.12ZM82.896 358.982V365.446H74.704C73.1253 365.446 72.016 365.894 71.376 366.79C70.736 367.686 70.416 368.944 70.416 370.566C70.416 371.291 70.5227 372.059 70.736 372.87C70.9493 373.723 71.2053 374.448 71.504 375.046C71.2053 375.344 70.8427 375.6 70.416 375.814C69.9893 376.027 69.4773 376.134 68.88 376.134C67.7707 376.134 66.8747 375.558 66.192 374.406C65.5093 373.296 65.168 371.632 65.168 369.414C65.168 366.256 65.872 363.718 67.28 361.798C68.688 359.92 71.0133 358.982 74.256 358.982H82.896ZM90.064 362.63H95.248V375.43C95.0347 375.558 94.6933 375.707 94.224 375.878C93.7547 376.048 93.264 376.134 92.752 376.134C91.856 376.134 91.1733 375.92 90.704 375.494C90.2773 375.067 90.064 374.491 90.064 373.766V362.63ZM81.04 365.446V358.982H104.208C104.293 359.238 104.379 359.643 104.464 360.198C104.592 360.752 104.656 361.35 104.656 361.99C104.656 363.142 104.421 363.995 103.952 364.55C103.525 365.147 102.779 365.446 101.712 365.446H81.04ZM77.328 384.979L82.064 384.723L84.688 402.963C86.6933 402.792 88.3573 402.067 89.68 400.787C91.0453 399.507 91.728 397.694 91.728 395.347C91.728 392.915 90.8747 390.91 89.168 389.331C87.4613 387.752 85.008 386.942 81.808 386.899L79.504 387.027C76.432 387.326 74.128 388.392 72.592 390.227C71.056 392.104 70.288 394.558 70.288 397.587C70.288 399.379 70.5653 401 71.12 402.451C71.6747 403.944 72.2933 405.139 72.976 406.035C72.6347 406.547 72.208 406.952 71.696 407.251C71.2267 407.592 70.6933 407.763 70.096 407.763C69.1573 407.763 68.304 407.294 67.536 406.355C66.768 405.416 66.1707 404.136 65.744 402.515C65.3173 400.936 65.104 399.166 65.104 397.203C65.104 393.875 65.7013 390.974 66.896 388.499C68.1333 386.067 69.9467 384.168 72.336 382.803C74.768 381.438 77.7333 380.755 81.232 380.755C83.7493 380.755 85.968 381.118 87.888 381.843C89.8507 382.611 91.472 383.656 92.752 384.979C94.0747 386.302 95.0773 387.859 95.76 389.651C96.4427 391.443 96.784 393.363 96.784 395.411C96.784 398.099 96.208 400.467 95.056 402.515C93.9467 404.563 92.3893 406.163 90.384 407.315C88.4213 408.51 86.1387 409.107 83.536 409.107C82.512 409.107 81.744 408.83 81.232 408.275C80.7627 407.763 80.464 407.059 80.336 406.163L77.328 384.979ZM89.552 422.507H80.144V416.043H89.68C90.704 416.043 91.536 416.256 92.176 416.683C92.8587 417.109 93.4987 417.771 94.096 418.667C94.864 419.861 95.504 421.419 96.016 423.339C96.528 425.301 96.784 427.435 96.784 429.739C96.784 433.451 95.7387 435.307 93.648 435.307C93.136 435.307 92.6667 435.221 92.24 435.051C91.8133 434.923 91.4507 434.731 91.152 434.475C91.2373 434.048 91.3013 433.493 91.344 432.811C91.4293 432.171 91.472 431.509 91.472 430.827C91.472 429.077 91.28 427.477 90.896 426.027C90.5547 424.619 90.1067 423.445 89.552 422.507ZM82.896 416.043L82.32 422.507H66.128C66.0427 422.208 65.936 421.781 65.808 421.227C65.68 420.715 65.616 420.16 65.616 419.562C65.616 418.368 65.8293 417.472 66.256 416.875C66.7253 416.32 67.5147 416.043 68.624 416.043H82.896ZM86.672 465.631H79.376V459.167H86.032C87.952 459.167 89.3387 458.612 90.192 457.503C91.088 456.393 91.536 454.943 91.536 453.151C91.536 451.956 91.344 450.804 90.96 449.695C90.576 448.628 90.1493 447.732 89.68 447.007H79.376V440.543H89.808C90.7467 440.543 91.5147 440.735 92.112 441.119C92.752 441.503 93.3707 442.143 93.968 443.039C94.736 444.233 95.3973 445.769 95.952 447.647C96.5067 449.524 96.784 451.423 96.784 453.343C96.784 455.476 96.464 457.396 95.824 459.103C95.184 460.809 94.2453 462.132 93.008 463.071C92.752 463.369 92.496 463.625 92.24 463.839C92.0267 464.052 91.7493 464.244 91.408 464.415C90.8533 464.756 90.1707 465.033 89.36 465.247C88.5493 465.503 87.6533 465.631 86.672 465.631ZM86.352 484.255H79.376V477.791H86.032C87.952 477.791 89.3387 477.257 90.192 476.191C91.088 475.124 91.536 473.695 91.536 471.903C91.536 470.58 91.2587 469.3 90.704 468.062C90.192 466.825 89.4453 465.716 88.464 464.735L92.752 461.791C93.8187 462.985 94.7573 464.479 95.568 466.271C96.3787 468.063 96.784 470.175 96.784 472.607C96.784 474.868 96.4213 476.873 95.696 478.623C94.9707 480.372 93.8187 481.737 92.24 482.719C90.704 483.743 88.7413 484.255 86.352 484.255ZM82.576 440.543V447.007H66.128C66.0427 446.708 65.936 446.281 65.808 445.727C65.68 445.215 65.616 444.66 65.616 444.062C65.616 442.868 65.8293 441.972 66.256 441.375C66.7253 440.82 67.5147 440.543 68.624 440.543H82.576ZM82.576 459.167V465.631H66.128C66.0427 465.375 65.936 464.969 65.808 464.415C65.68 463.86 65.616 463.284 65.616 462.687C65.616 461.492 65.8293 460.596 66.256 459.999C66.7253 459.444 67.5147 459.167 68.624 459.167H82.576ZM82.576 477.791V484.255H66.128C66.0427 483.999 65.936 483.593 65.808 483.039C65.68 482.484 65.616 481.908 65.616 481.311C65.616 480.116 65.8293 479.22 66.256 478.623C66.7253 478.068 67.5147 477.791 68.624 477.791H82.576Z" fill="black"/>
</svg>
