<svg width="166" height="1024" viewBox="0 0 166 1024" fill="none" xmlns="http://www.w3.org/2000/svg">
<rect width="166" height="1025" fill="white"/>
<rect width="166" height="1025" fill="#D291CC" fill-opacity="0.6"/>
<path d="M88.288 58.512C96.736 58.512 103.477 60.3467 108.512 64.016C113.547 67.6 116.064 72.9333 116.064 80.016C116.064 83.2587 115.424 86.0747 114.144 88.464C112.864 90.768 111.285 92.6453 109.408 94.096C107.531 95.5467 105.781 96.528 104.16 97.04C106.464 97.808 108.683 99.0027 110.816 100.624C112.949 102.245 114.699 104.336 116.064 106.896C117.515 109.456 118.24 112.571 118.24 116.24C118.24 121.36 116.96 125.627 114.4 129.04C111.925 132.453 108.469 135.056 104.032 136.848C99.5947 138.64 94.4747 139.536 88.672 139.536C83.6373 139.536 79.2427 139.024 75.488 138C71.8187 136.976 68.96 135.653 66.912 134.032C64.864 132.411 63.84 130.661 63.84 128.784C63.84 127.248 64.224 125.968 64.992 124.944C65.76 123.92 66.7413 123.067 67.936 122.384C69.984 123.92 72.544 125.371 75.616 126.736C78.7733 128.101 82.8693 128.784 87.904 128.784C93.1947 128.784 97.4187 127.675 100.576 125.456C103.819 123.237 105.44 119.952 105.44 115.6C105.44 111.675 103.989 108.56 101.088 106.256C98.1867 103.952 93.92 102.8 88.288 102.8H77.28C76.9387 102.203 76.5973 101.435 76.256 100.496C76 99.5573 75.872 98.576 75.872 97.552C75.872 96.3573 76 95.2907 76.256 94.352C76.5973 93.4133 76.9387 92.688 77.28 92.176H87.648C93.1947 92.176 97.1627 91.152 99.552 89.104C101.941 86.9707 103.136 84.1547 103.136 80.656C103.136 76.9867 101.728 74.1707 98.912 72.208C96.096 70.16 92.2133 69.136 87.264 69.136C83.3387 69.136 79.84 69.7333 76.768 70.928C73.7813 72.0373 71.3067 73.2747 69.344 74.64C68.4053 74.128 67.552 73.36 66.784 72.336C66.016 71.2267 65.632 69.9893 65.632 68.624C65.632 66.7467 66.6133 65.04 68.576 63.504C70.624 61.968 73.312 60.7733 76.64 59.92C80.0533 58.9813 83.936 58.512 88.288 58.512Z" fill="black"/>
<path d="M92.896 243.544V250.008H84.704C83.1253 250.008 82.016 250.456 81.376 251.352C80.736 252.248 80.416 253.507 80.416 255.128C80.416 255.853 80.5227 256.621 80.736 257.432C80.9493 258.285 81.2053 259.011 81.504 259.608C81.2053 259.907 80.8427 260.163 80.416 260.376C79.9893 260.589 79.4773 260.696 78.88 260.696C77.7707 260.696 76.8747 260.12 76.192 258.968C75.5093 257.859 75.168 256.195 75.168 253.976C75.168 250.819 75.872 248.28 77.28 246.36C78.688 244.483 81.0133 243.544 84.256 243.544H92.896ZM100.064 247.192H105.248V259.992C105.035 260.12 104.693 260.269 104.224 260.44C103.755 260.611 103.264 260.696 102.752 260.696C101.856 260.696 101.173 260.483 100.704 260.056C100.277 259.629 100.064 259.053 100.064 258.328V247.192ZM91.04 250.008V243.544H114.208C114.293 243.8 114.379 244.205 114.464 244.76C114.592 245.315 114.656 245.912 114.656 246.552C114.656 247.704 114.421 248.557 113.952 249.112C113.525 249.709 112.779 250.008 111.712 250.008H91.04ZM90.976 295.462C87.7333 295.462 84.9173 294.843 82.528 293.606C80.1813 292.368 78.3467 290.619 77.024 288.358C75.744 286.096 75.104 283.451 75.104 280.422C75.104 277.35 75.744 274.683 77.024 272.422C78.3467 270.16 80.1813 268.411 82.528 267.174C84.9173 265.936 87.7333 265.318 90.976 265.318C94.2187 265.318 97.0133 265.936 99.36 267.174C101.707 268.454 103.52 270.224 104.8 272.486C106.123 274.747 106.784 277.392 106.784 280.422C106.784 283.408 106.123 286.032 104.8 288.294C103.52 290.555 101.707 292.304 99.36 293.542C97.0133 294.822 94.2187 295.462 90.976 295.462ZM101.536 280.422C101.536 277.819 100.597 275.75 98.72 274.214C96.8427 272.678 94.2613 271.91 90.976 271.91C87.6053 271.91 84.9813 272.656 83.104 274.15C81.2693 275.643 80.352 277.734 80.352 280.422C80.352 283.067 81.2907 285.115 83.168 286.566C85.0453 288.059 87.648 288.806 90.976 288.806C94.2613 288.806 96.8427 288.059 98.72 286.566C100.597 285.072 101.536 283.024 101.536 280.422ZM75.168 316.169C75.168 314.419 75.4027 312.798 75.872 311.305C76.3413 309.811 76.8747 308.659 77.472 307.849H83.232C82.5067 308.659 81.8453 309.662 81.248 310.857C80.6933 312.094 80.416 313.566 80.416 315.273C80.416 318.046 81.2693 320.265 82.976 321.929C84.6827 323.593 87.3707 324.425 91.04 324.425C93.6427 324.425 95.6907 323.998 97.184 323.145C98.72 322.334 99.8293 321.246 100.512 319.881C101.195 318.515 101.536 317.001 101.536 315.337C101.536 313.971 101.365 312.798 101.024 311.817C100.683 310.835 100.32 309.982 99.936 309.257H79.2V302.793H100.192C101.131 302.793 101.877 302.963 102.432 303.305C103.029 303.646 103.605 304.265 104.16 305.161C104.843 306.355 105.44 307.806 105.952 309.513C106.507 311.262 106.784 313.203 106.784 315.337C106.784 318.323 106.229 320.99 105.12 323.337C104.053 325.683 102.347 327.539 100 328.905C97.696 330.27 94.7093 330.953 91.04 330.953C87.5413 330.953 84.5973 330.313 82.208 329.033C79.8613 327.795 78.0907 326.067 76.896 323.849C75.744 321.63 75.168 319.07 75.168 316.169ZM64.032 306.312C64.032 305.118 64.2667 304.222 64.736 303.625C65.2053 303.07 65.9733 302.793 67.04 302.793H81.184L81.12 309.257H64.48C64.3947 308.958 64.3093 308.531 64.224 307.977C64.096 307.465 64.032 306.91 64.032 306.312ZM115.104 337.845C116.171 337.845 117.067 338.207 117.792 338.933C118.517 339.701 118.88 340.661 118.88 341.812C118.88 342.965 118.517 343.903 117.792 344.629C117.067 345.354 116.171 345.717 115.104 345.717C114.037 345.717 113.141 345.354 112.416 344.629C111.691 343.903 111.328 342.965 111.328 341.812C111.328 340.661 111.691 339.701 112.416 338.933C113.141 338.207 114.037 337.845 115.104 337.845ZM92.896 338.549V345.077H76.128C76.0427 344.778 75.936 344.351 75.808 343.797C75.68 343.285 75.616 342.709 75.616 342.069C75.616 340.917 75.8293 340.042 76.256 339.445C76.7253 338.847 77.5147 338.549 78.624 338.549H92.896ZM89.632 345.077V338.549H105.696C105.824 338.847 105.931 339.253 106.016 339.765C106.144 340.319 106.208 340.917 106.208 341.557C106.208 342.751 105.973 343.626 105.504 344.181C105.077 344.778 104.309 345.077 103.2 345.077H89.632ZM101.472 368.947C101.472 366.216 100.555 363.934 98.72 362.099C96.928 360.264 94.3253 359.347 90.912 359.347C87.4987 359.347 84.896 360.222 83.104 361.971C81.312 363.763 80.416 366.067 80.416 368.883C80.416 370.59 80.6293 372.019 81.056 373.171C81.5253 374.323 82.0373 375.326 82.592 376.179C82.2507 376.734 81.8453 377.16 81.376 377.459C80.9493 377.8 80.3947 377.971 79.712 377.971C78.432 377.971 77.344 377.096 76.448 375.347C75.5947 373.598 75.168 371.358 75.168 368.627C75.168 365.512 75.744 362.76 76.896 360.371C78.048 357.982 79.776 356.104 82.08 354.739C84.4267 353.416 87.3707 352.755 90.912 352.755C94.4107 352.755 97.3333 353.459 99.68 354.867C102.069 356.275 103.84 358.174 104.992 360.563C106.187 362.952 106.784 365.576 106.784 368.435C106.784 371.166 106.315 373.384 105.376 375.091C104.437 376.798 103.307 377.651 101.984 377.651C101.429 377.651 100.917 377.502 100.448 377.203C99.9787 376.904 99.616 376.499 99.36 375.987C99.9147 375.091 100.405 374.088 100.832 372.979C101.259 371.912 101.472 370.568 101.472 368.947ZM90.976 426.524C87.7333 426.524 84.9173 425.905 82.528 424.668C80.1813 423.431 78.3467 421.681 77.024 419.42C75.744 417.159 75.104 414.513 75.104 411.484C75.104 408.412 75.744 405.745 77.024 403.484C78.3467 401.223 80.1813 399.473 82.528 398.236C84.9173 396.999 87.7333 396.38 90.976 396.38C94.2187 396.38 97.0133 396.999 99.36 398.236C101.707 399.516 103.52 401.287 104.8 403.548C106.123 405.809 106.784 408.455 106.784 411.484C106.784 414.471 106.123 417.095 104.8 419.356C103.52 421.617 101.707 423.367 99.36 424.604C97.0133 425.884 94.2187 426.524 90.976 426.524ZM101.536 411.484C101.536 408.881 100.597 406.812 98.72 405.276C96.8427 403.74 94.2613 402.972 90.976 402.972C87.6053 402.972 84.9813 403.719 83.104 405.212C81.2693 406.705 80.352 408.796 80.352 411.484C80.352 414.129 81.2907 416.177 83.168 417.628C85.0453 419.121 87.648 419.868 90.976 419.868C94.2613 419.868 96.8427 419.121 98.72 417.628C100.597 416.135 101.536 414.087 101.536 411.484ZM98.976 439.167H104.096V452.415C103.84 452.586 103.477 452.735 103.008 452.863C102.581 453.034 102.091 453.119 101.536 453.119C100.683 453.119 100.043 452.906 99.616 452.479C99.1893 452.052 98.976 451.476 98.976 450.751V439.167ZM107.68 440.255H99.808V433.983H107.936C110.539 433.983 112.651 434.474 114.272 435.455C115.893 436.479 117.088 437.887 117.856 439.679C118.624 441.514 119.008 443.647 119.008 446.079C119.008 448.682 118.667 450.687 117.984 452.095C117.301 453.546 116.363 454.271 115.168 454.271C114.613 454.271 114.101 454.143 113.632 453.887C113.205 453.674 112.821 453.375 112.48 452.991C112.864 452.223 113.163 451.284 113.376 450.175C113.632 449.108 113.76 448.042 113.76 446.975C113.76 444.543 113.269 442.815 112.288 441.791C111.349 440.767 109.813 440.255 107.68 440.255ZM102.304 433.983V440.447H76.128C76.0427 440.148 75.936 439.722 75.808 439.167C75.68 438.655 75.616 438.1 75.616 437.503C75.616 436.308 75.8293 435.412 76.256 434.815C76.7253 434.26 77.5147 433.983 78.624 433.983H102.304ZM115.104 472.22C116.171 472.22 117.067 472.582 117.792 473.308C118.517 474.076 118.88 475.036 118.88 476.188C118.88 477.34 118.517 478.278 117.792 479.004C117.067 479.729 116.171 480.092 115.104 480.092C114.037 480.092 113.141 479.729 112.416 479.004C111.691 478.278 111.328 477.34 111.328 476.188C111.328 475.036 111.691 474.076 112.416 473.308C113.141 472.582 114.037 472.22 115.104 472.22ZM92.896 472.924V479.452H76.128C76.0427 479.153 75.936 478.726 75.808 478.172C75.68 477.66 75.616 477.084 75.616 476.444C75.616 475.292 75.8293 474.417 76.256 473.82C76.7253 473.222 77.5147 472.924 78.624 472.924H92.896ZM89.632 479.452V472.924H105.696C105.824 473.222 105.931 473.628 106.016 474.14C106.144 474.694 106.208 475.292 106.208 475.932C106.208 477.126 105.973 478.001 105.504 478.556C105.077 479.153 104.309 479.452 103.2 479.452H89.632ZM95.648 515.482H89.248V509.018H95.392C97.5253 509.018 99.0827 508.399 100.064 507.162C101.045 505.967 101.536 504.346 101.536 502.298C101.536 500.805 101.344 499.461 100.96 498.266C100.619 497.071 100.192 496.047 99.68 495.194H89.248V488.73H99.808C100.789 488.73 101.579 488.922 102.176 489.306C102.773 489.69 103.371 490.33 103.968 491.226C104.693 492.421 105.333 493.978 105.888 495.898C106.485 497.818 106.784 499.973 106.784 502.362C106.784 506.458 105.845 509.658 103.968 511.962C102.133 514.309 99.36 515.482 95.648 515.482ZM92.576 488.73V495.194H76.128C76.0427 494.895 75.936 494.469 75.808 493.914C75.68 493.402 75.616 492.847 75.616 492.25C75.616 491.055 75.8293 490.159 76.256 489.562C76.7253 489.007 77.5147 488.73 78.624 488.73H92.576ZM92.576 509.018V515.482H76.128C76.0427 515.226 75.936 514.821 75.808 514.266C75.68 513.711 75.616 513.135 75.616 512.538C75.616 511.301 75.8293 510.405 76.256 509.85C76.7253 509.295 77.5147 509.018 78.624 509.018H92.576ZM92.896 524.482L92.896 530.946H84.704C83.1253 530.946 82.016 531.394 81.376 532.29C80.736 533.186 80.416 534.444 80.416 536.066C80.416 536.791 80.5227 537.559 80.736 538.37C80.9493 539.223 81.2053 539.948 81.504 540.546C81.2053 540.844 80.8427 541.1 80.416 541.314C79.9893 541.527 79.4773 541.634 78.88 541.634C77.7707 541.634 76.8747 541.058 76.192 539.906C75.5093 538.796 75.168 537.132 75.168 534.914C75.168 531.756 75.872 529.218 77.28 527.298C78.688 525.42 81.0133 524.482 84.256 524.482H92.896ZM100.064 528.13H105.248L105.248 540.93C105.035 541.058 104.693 541.207 104.224 541.378C103.755 541.548 103.264 541.634 102.752 541.634C101.856 541.634 101.173 541.42 100.704 540.994C100.277 540.567 100.064 539.991 100.064 539.266L100.064 528.13ZM91.04 530.946L91.04 524.482H114.208C114.293 524.738 114.379 525.143 114.464 525.698C114.592 526.252 114.656 526.85 114.656 527.49C114.656 528.642 114.421 529.495 113.952 530.05C113.525 530.647 112.779 530.946 111.712 530.946H91.04ZM87.328 550.479L92.064 550.223L94.688 568.463C96.6933 568.292 98.3573 567.567 99.68 566.287C101.045 565.007 101.728 563.194 101.728 560.847C101.728 558.415 100.875 556.41 99.168 554.831C97.4613 553.252 95.008 552.442 91.808 552.399L89.504 552.527C86.432 552.826 84.128 553.892 82.592 555.727C81.056 557.604 80.288 560.058 80.288 563.087C80.288 564.879 80.5653 566.5 81.12 567.951C81.6747 569.444 82.2933 570.639 82.976 571.535C82.6347 572.047 82.208 572.452 81.696 572.751C81.2267 573.092 80.6933 573.263 80.096 573.263C79.1573 573.263 78.304 572.794 77.536 571.855C76.768 570.916 76.1707 569.636 75.744 568.015C75.3173 566.436 75.104 564.666 75.104 562.703C75.104 559.375 75.7013 556.474 76.896 553.999C78.1333 551.567 79.9467 549.668 82.336 548.303C84.768 546.938 87.7333 546.255 91.232 546.255C93.7493 546.255 95.968 546.618 97.888 547.343C99.8507 548.111 101.472 549.156 102.752 550.479C104.075 551.802 105.077 553.359 105.76 555.151C106.443 556.943 106.784 558.863 106.784 560.911C106.784 563.599 106.208 565.967 105.056 568.015C103.947 570.063 102.389 571.663 100.384 572.815C98.4213 574.01 96.1387 574.607 93.536 574.607C92.512 574.607 91.744 574.33 91.232 573.775C90.7627 573.263 90.464 572.559 90.336 571.663L87.328 550.479ZM99.552 588.007H90.144V581.543H99.68C100.704 581.543 101.536 581.756 102.176 582.183C102.859 582.609 103.499 583.271 104.096 584.167C104.864 585.361 105.504 586.919 106.016 588.839C106.528 590.801 106.784 592.935 106.784 595.239C106.784 598.951 105.739 600.807 103.648 600.807C103.136 600.807 102.667 600.721 102.24 600.551C101.813 600.423 101.451 600.231 101.152 599.975C101.237 599.548 101.301 598.993 101.344 598.311C101.429 597.671 101.472 597.009 101.472 596.327C101.472 594.577 101.28 592.977 100.896 591.527C100.555 590.119 100.107 588.945 99.552 588.007ZM92.896 581.543L92.32 588.007H76.128C76.0427 587.708 75.936 587.281 75.808 586.727C75.68 586.215 75.616 585.66 75.616 585.062C75.616 583.868 75.8293 582.972 76.256 582.375C76.7253 581.82 77.5147 581.543 78.624 581.543H92.896ZM84.192 628.498C81.3333 628.498 79.0933 627.431 77.472 625.298C75.8933 623.207 75.104 620.156 75.104 616.146C75.104 612.818 75.616 610.087 76.64 607.954C77.664 605.863 78.88 604.818 80.288 604.818C80.928 604.818 81.5253 604.967 82.08 605.266C82.6347 605.607 83.0613 606.055 83.36 606.61C82.592 607.804 81.888 609.17 81.248 610.706C80.608 612.242 80.288 614.012 80.288 616.018C80.288 620.071 81.5893 622.098 84.192 622.098C85.2587 622.098 86.1333 621.735 86.816 621.01C87.4987 620.327 88.0107 619.303 88.352 617.938L89.504 613.394C90.144 610.535 91.168 608.423 92.576 607.058C93.984 605.735 95.7973 605.074 98.016 605.074C100.491 605.074 102.56 606.076 104.224 608.082C105.931 610.13 106.784 613.074 106.784 616.914C106.784 618.919 106.571 620.69 106.144 622.226C105.76 623.804 105.205 625.02 104.48 625.874C103.797 626.77 103.008 627.218 102.112 627.218C101.472 627.218 100.896 627.068 100.384 626.77C99.872 626.471 99.488 626.087 99.232 625.618C99.5733 625.106 99.9147 624.423 100.256 623.57C100.64 622.759 100.96 621.799 101.216 620.69C101.515 619.623 101.664 618.492 101.664 617.298C101.664 615.506 101.344 614.076 100.704 613.01C100.064 611.986 99.168 611.474 98.016 611.474C97.1627 611.474 96.4373 611.772 95.84 612.37C95.2427 612.967 94.7733 613.97 94.432 615.378L93.536 619.218C92.768 622.375 91.616 624.7 90.08 626.194C88.5867 627.73 86.624 628.498 84.192 628.498ZM92.896 635.794V642.258H84.704C83.1253 642.258 82.016 642.706 81.376 643.602C80.736 644.498 80.416 645.757 80.416 647.378C80.416 648.103 80.5227 648.871 80.736 649.682C80.9493 650.535 81.2053 651.261 81.504 651.858C81.2053 652.157 80.8427 652.413 80.416 652.626C79.9893 652.839 79.4773 652.946 78.88 652.946C77.7707 652.946 76.8747 652.37 76.192 651.218C75.5093 650.109 75.168 648.445 75.168 646.226C75.168 643.069 75.872 640.53 77.28 638.61C78.688 636.733 81.0133 635.794 84.256 635.794H92.896ZM100.064 639.442H105.248V652.242C105.035 652.37 104.693 652.519 104.224 652.69C103.755 652.861 103.264 652.946 102.752 652.946C101.856 652.946 101.173 652.733 100.704 652.306C100.277 651.879 100.064 651.303 100.064 650.578V639.442ZM91.04 642.258V635.794H114.208C114.293 636.05 114.379 636.455 114.464 637.01C114.592 637.565 114.656 638.162 114.656 638.802C114.656 639.954 114.421 640.807 113.952 641.362C113.525 641.959 112.779 642.258 111.712 642.258H91.04ZM84.192 682.31C81.3333 682.31 79.0933 681.243 77.472 679.11C75.8933 677.019 75.104 673.969 75.104 669.958C75.104 666.63 75.616 663.899 76.64 661.766C77.664 659.675 78.88 658.63 80.288 658.63C80.928 658.63 81.5253 658.779 82.08 659.078C82.6347 659.419 83.0613 659.867 83.36 660.422C82.592 661.617 81.888 662.982 81.248 664.518C80.608 666.054 80.288 667.825 80.288 669.83C80.288 673.883 81.5893 675.91 84.192 675.91C85.2587 675.91 86.1333 675.547 86.816 674.822C87.4987 674.139 88.0107 673.115 88.352 671.75L89.504 667.206C90.144 664.347 91.168 662.235 92.576 660.87C93.984 659.547 95.7973 658.886 98.016 658.886C100.491 658.886 102.56 659.889 104.224 661.894C105.931 663.942 106.784 666.886 106.784 670.726C106.784 672.731 106.571 674.502 106.144 676.038C105.76 677.617 105.205 678.833 104.48 679.686C103.797 680.582 103.008 681.03 102.112 681.03C101.472 681.03 100.896 680.881 100.384 680.582C99.872 680.283 99.488 679.899 99.232 679.43C99.5733 678.918 99.9147 678.235 100.256 677.382C100.64 676.571 100.96 675.611 101.216 674.502C101.515 673.435 101.664 672.305 101.664 671.11C101.664 669.318 101.344 667.889 100.704 666.822C100.064 665.798 99.168 665.286 98.016 665.286C97.1627 665.286 96.4373 665.585 95.84 666.182C95.2427 666.779 94.7733 667.782 94.432 669.19L93.536 673.03C92.768 676.187 91.616 678.513 90.08 680.006C88.5867 681.542 86.624 682.31 84.192 682.31Z" fill="black"/>
</svg>
