<svg width="110" height="110" viewBox="0 0 110 110" fill="none" xmlns="http://www.w3.org/2000/svg">
<path d="M35.7144 50.8069C40.2376 49.4228 42.9202 44.7764 41.8573 40.1672C40.9686 36.3134 45.6051 33.6366 48.4981 36.3331C51.9584 39.5582 57.3236 39.5582 60.7839 36.3331C63.677 33.6366 68.3134 36.3134 67.4247 40.1672C66.3618 44.7764 69.0444 49.4228 73.5676 50.8069C77.3494 51.9642 77.3494 57.3179 73.5676 58.4751C69.0444 59.8592 66.3618 64.5056 67.4247 69.1149C68.3134 72.9686 63.677 75.6455 60.7839 72.949C57.3236 69.7238 51.9584 69.7238 48.4981 72.949C45.6051 75.6455 40.9686 72.9686 41.8573 69.1149C42.9202 64.5056 40.2376 59.8592 35.7144 58.4751C31.9326 57.3179 31.9326 51.9642 35.7144 50.8069Z" fill="#D9D9D9" stroke="black" stroke-width="5"/>
<circle cx="55.141" cy="55.507" r="13.5" transform="rotate(-30 55.141 55.507)" fill="#D9D9D9" stroke="black" stroke-width="3"/>
</svg>
