<svg width="618" height="21" viewBox="0 0 618 21" fill="none" xmlns="http://www.w3.org/2000/svg">
<path opacity="0.4" d="M12.2647 3.016C12.2647 3.224 12.1927 3.416 12.0487 3.592C11.9207 3.752 11.7687 3.872 11.5927 3.952C11.1927 3.664 10.7047 3.392 10.1287 3.136C9.56866 2.88 8.84066 2.752 7.94466 2.752C6.96866 2.752 6.08866 2.976 5.30466 3.424C4.53666 3.872 3.92066 4.544 3.45666 5.44C3.00866 6.32 2.78466 7.416 2.78466 8.728C2.78466 10.696 3.26466 12.176 4.22466 13.168C5.20066 14.16 6.46466 14.656 8.01666 14.656C8.84866 14.656 9.57666 14.536 10.2007 14.296C10.8247 14.056 11.3367 13.784 11.7367 13.48C11.8967 13.544 12.0487 13.664 12.1927 13.84C12.3367 14 12.4087 14.192 12.4087 14.416C12.4087 14.576 12.3607 14.736 12.2647 14.896C12.1847 15.04 12.0407 15.184 11.8327 15.328C11.4647 15.584 10.9607 15.808 10.3207 16C9.68066 16.208 8.86466 16.312 7.87266 16.312C6.54466 16.312 5.33666 16.032 4.24866 15.472C3.17666 14.896 2.32866 14.048 1.70466 12.928C1.08066 11.808 0.768656 10.408 0.768656 8.728C0.768656 7.048 1.08866 5.64 1.72866 4.504C2.38466 3.368 3.24066 2.52 4.29666 1.96C5.36866 1.384 6.53666 1.096 7.80066 1.096C8.68066 1.096 9.45666 1.192 10.1287 1.384C10.8007 1.576 11.3207 1.824 11.6887 2.128C12.0727 2.416 12.2647 2.712 12.2647 3.016ZM28.5637 8.704C28.5637 10.368 28.2597 11.768 27.6517 12.904C27.0437 14.024 26.2117 14.872 25.1557 15.448C24.1157 16.024 22.9317 16.312 21.6037 16.312C20.2917 16.312 19.1077 16.024 18.0517 15.448C16.9957 14.872 16.1637 14.024 15.5557 12.904C14.9477 11.768 14.6437 10.368 14.6437 8.704C14.6437 7.04 14.9557 5.648 15.5797 4.528C16.2037 3.392 17.0357 2.536 18.0757 1.96C19.1317 1.384 20.3077 1.096 21.6037 1.096C22.9157 1.096 24.0917 1.384 25.1317 1.96C26.1877 2.536 27.0197 3.392 27.6277 4.528C28.2517 5.648 28.5637 7.04 28.5637 8.704ZM26.5717 8.704C26.5717 6.8 26.1157 5.336 25.2037 4.312C24.3077 3.272 23.1077 2.752 21.6037 2.752C20.1157 2.752 18.9157 3.272 18.0037 4.312C17.1077 5.336 16.6597 6.8 16.6597 8.704C16.6597 10.608 17.1077 12.08 18.0037 13.12C18.8997 14.144 20.0997 14.656 21.6037 14.656C23.1237 14.656 24.3317 14.144 25.2277 13.12C26.1237 12.08 26.5717 10.608 26.5717 8.704ZM32.0305 10.792V2.464C32.0305 2.208 32.0945 2.016 32.2225 1.888C32.3665 1.744 32.5665 1.632 32.8225 1.552C33.2865 1.408 33.8465 1.304 34.5025 1.24C35.1745 1.176 35.8225 1.144 36.4465 1.144C38.4785 1.144 39.9585 1.576 40.8865 2.44C41.8305 3.288 42.3025 4.44 42.3025 5.896C42.3025 6.888 42.0865 7.752 41.6545 8.488C41.2385 9.224 40.5985 9.792 39.7345 10.192C38.8705 10.592 37.7665 10.792 36.4225 10.792H32.0305ZM33.0865 16.12C32.7345 16.12 32.4705 16.048 32.2945 15.904C32.1185 15.76 32.0305 15.536 32.0305 15.232V9.856H33.9985V15.952C33.9025 15.984 33.7745 16.016 33.6145 16.048C33.4545 16.096 33.2785 16.12 33.0865 16.12ZM33.9745 9.16H36.3025C37.5825 9.16 38.5745 8.896 39.2785 8.368C39.9825 7.824 40.3345 7.008 40.3345 5.92C40.3345 4.832 39.9905 4.04 39.3025 3.544C38.6305 3.032 37.6625 2.776 36.3985 2.776C35.9665 2.776 35.5345 2.8 35.1025 2.848C34.6865 2.88 34.3105 2.928 33.9745 2.992V9.16ZM51.0477 10.768H49.3437C48.8957 10.096 48.4237 9.392 47.9277 8.656C47.4477 7.904 46.9677 7.144 46.4877 6.376C46.0237 5.608 45.5757 4.856 45.1437 4.12C44.7277 3.368 44.3517 2.672 44.0157 2.032C44.0797 1.856 44.1997 1.688 44.3757 1.528C44.5517 1.352 44.7837 1.264 45.0717 1.264C45.3757 1.264 45.6077 1.344 45.7677 1.504C45.9437 1.664 46.1197 1.904 46.2957 2.224C46.5037 2.592 46.7357 3.008 46.9917 3.472C47.2637 3.92 47.5437 4.4 47.8317 4.912C48.1197 5.408 48.4077 5.904 48.6957 6.4C48.9837 6.896 49.2477 7.36 49.4877 7.792C49.7437 8.224 49.9677 8.6 50.1597 8.92H50.2557C50.8157 7.992 51.3277 7.112 51.7917 6.28C52.2557 5.448 52.7037 4.632 53.1357 3.832C53.5677 3.032 53.9917 2.232 54.4077 1.432C54.5037 1.368 54.6237 1.328 54.7677 1.312C54.9117 1.28 55.0397 1.264 55.1517 1.264C55.4557 1.264 55.6797 1.336 55.8237 1.48C55.9837 1.624 56.0637 1.824 56.0637 2.08C56.0637 2.24 55.9357 2.584 55.6797 3.112C55.4397 3.624 55.0957 4.272 54.6477 5.056C54.1997 5.824 53.6717 6.696 53.0637 7.672C52.4557 8.648 51.7837 9.68 51.0477 10.768ZM49.2237 9.832H51.1677V15.952C51.0877 15.984 50.9597 16.016 50.7837 16.048C50.6237 16.096 50.4557 16.12 50.2797 16.12C49.9277 16.12 49.6637 16.048 49.4877 15.904C49.3117 15.76 49.2237 15.536 49.2237 15.232V9.832ZM60.787 8.848H63.547C64.731 8.848 65.659 8.592 66.331 8.08C67.003 7.568 67.339 6.808 67.339 5.8C67.339 4.808 66.987 4.056 66.283 3.544C65.579 3.032 64.571 2.776 63.259 2.776C62.827 2.776 62.387 2.8 61.939 2.848C61.507 2.88 61.123 2.928 60.787 2.992V8.848ZM63.547 10.48H58.843V2.464C58.843 2.208 58.907 2.016 59.035 1.888C59.179 1.744 59.379 1.632 59.635 1.552C60.099 1.408 60.667 1.304 61.339 1.24C62.027 1.176 62.691 1.144 63.331 1.144C65.331 1.144 66.827 1.552 67.819 2.368C68.811 3.184 69.307 4.328 69.307 5.8C69.307 6.744 69.091 7.568 68.659 8.272C68.227 8.976 67.587 9.52 66.739 9.904C65.891 10.288 64.827 10.48 63.547 10.48ZM63.595 9.856L65.035 9.136C65.483 9.696 65.947 10.28 66.427 10.888C66.907 11.496 67.371 12.088 67.819 12.664C68.267 13.24 68.667 13.76 69.019 14.224C69.371 14.672 69.643 15.024 69.835 15.28C69.771 15.552 69.627 15.768 69.403 15.928C69.195 16.088 68.979 16.168 68.755 16.168C68.483 16.168 68.259 16.104 68.083 15.976C67.907 15.832 67.723 15.632 67.531 15.376L63.595 9.856ZM58.843 9.952H60.811V15.952C60.715 15.984 60.587 16.016 60.427 16.048C60.267 16.096 60.091 16.12 59.899 16.12C59.547 16.12 59.283 16.048 59.107 15.904C58.931 15.76 58.843 15.536 58.843 15.232V9.952ZM72.9998 7.288H74.9438V15.952C74.8638 15.984 74.7438 16.016 74.5838 16.048C74.4238 16.096 74.2478 16.12 74.0558 16.12C73.7038 16.12 73.4398 16.048 73.2638 15.904C73.0878 15.76 72.9998 15.536 72.9998 15.232V7.288ZM74.9438 8.896H72.9998V1.456C73.0798 1.424 73.1998 1.392 73.3598 1.36C73.5358 1.312 73.7198 1.288 73.9118 1.288C74.2638 1.288 74.5198 1.36 74.6798 1.504C74.8558 1.632 74.9438 1.856 74.9438 2.176V8.896ZM90.8011 9.112V14.32C90.8011 14.608 90.7131 14.856 90.5371 15.064C90.3771 15.256 90.1291 15.432 89.7931 15.592C89.3931 15.8 88.8411 15.968 88.1371 16.096C87.4331 16.24 86.7211 16.312 86.0011 16.312C84.5131 16.312 83.1931 16.04 82.0411 15.496C80.9051 14.952 80.0171 14.12 79.3771 13C78.7371 11.88 78.4171 10.456 78.4171 8.728C78.4171 7.016 78.7451 5.6 79.4011 4.48C80.0731 3.344 80.9611 2.496 82.0651 1.936C83.1691 1.376 84.3771 1.096 85.6891 1.096C86.6011 1.096 87.4011 1.192 88.0891 1.384C88.7771 1.576 89.3131 1.816 89.6971 2.104C90.0811 2.392 90.2731 2.688 90.2731 2.992C90.2731 3.2 90.2091 3.392 90.0811 3.568C89.9531 3.728 89.8011 3.848 89.6251 3.928C89.1931 3.64 88.6811 3.376 88.0891 3.136C87.4971 2.88 86.7371 2.752 85.8091 2.752C84.8011 2.752 83.8891 2.976 83.0731 3.424C82.2571 3.872 81.6091 4.544 81.1291 5.44C80.6651 6.32 80.4331 7.416 80.4331 8.728C80.4331 10.104 80.6731 11.232 81.1531 12.112C81.6491 12.976 82.3211 13.616 83.1691 14.032C84.0171 14.448 84.9691 14.656 86.0251 14.656C86.6011 14.656 87.1451 14.608 87.6571 14.512C88.1691 14.416 88.5691 14.296 88.8571 14.152V9.736H85.2331C85.1851 9.656 85.1371 9.552 85.0891 9.424C85.0411 9.28 85.0171 9.128 85.0171 8.968C85.0171 8.696 85.0811 8.488 85.2091 8.344C85.3371 8.184 85.5211 8.104 85.7611 8.104H89.7691C90.0571 8.104 90.2971 8.2 90.4891 8.392C90.6971 8.568 90.8011 8.808 90.8011 9.112ZM94.5852 7.312H96.5532V15.952C96.4572 15.984 96.3292 16.016 96.1692 16.048C96.0092 16.096 95.8332 16.12 95.6412 16.12C95.2892 16.12 95.0252 16.048 94.8492 15.904C94.6732 15.76 94.5852 15.536 94.5852 15.232V7.312ZM96.5532 8.92H94.5852V1.456C94.6652 1.424 94.7852 1.392 94.9452 1.36C95.1212 1.312 95.3052 1.288 95.4972 1.288C95.8492 1.288 96.1132 1.36 96.2892 1.504C96.4652 1.632 96.5532 1.856 96.5532 2.176V8.92ZM104.041 7.312H106.009V15.952C105.913 15.984 105.785 16.016 105.625 16.048C105.465 16.096 105.289 16.12 105.097 16.12C104.745 16.12 104.481 16.048 104.305 15.904C104.129 15.76 104.041 15.536 104.041 15.232V7.312ZM106.009 8.92H104.041V1.456C104.121 1.424 104.241 1.392 104.401 1.36C104.577 1.312 104.761 1.288 104.953 1.288C105.305 1.288 105.569 1.36 105.745 1.504C105.921 1.632 106.009 1.856 106.009 2.176V8.92ZM105.073 9.424H95.7612V7.792H105.073V9.424ZM114.416 3.064L114.296 1.408H119.888C119.936 1.472 119.984 1.576 120.032 1.72C120.08 1.864 120.104 2.016 120.104 2.176C120.104 2.432 120.04 2.648 119.912 2.824C119.784 2.984 119.6 3.064 119.36 3.064H114.416ZM114.464 1.408L114.584 3.064H108.968C108.92 2.984 108.872 2.872 108.824 2.728C108.776 2.584 108.752 2.432 108.752 2.272C108.752 2 108.816 1.792 108.944 1.648C109.072 1.488 109.256 1.408 109.496 1.408H114.464ZM113.456 2.416H115.4V15.952C115.32 15.984 115.192 16.016 115.016 16.048C114.856 16.096 114.688 16.12 114.512 16.12C114.16 16.12 113.896 16.048 113.72 15.904C113.544 15.76 113.456 15.536 113.456 15.232V2.416ZM132.264 4.6C133.256 4.6 134.144 4.816 134.928 5.248C135.728 5.664 136.352 6.304 136.8 7.168C137.264 8.032 137.496 9.128 137.496 10.456C137.496 11.8 137.256 12.904 136.776 13.768C136.312 14.632 135.664 15.272 134.832 15.688C134 16.104 133.032 16.312 131.928 16.312C131.144 16.312 130.432 16.216 129.792 16.024C129.168 15.832 128.656 15.624 128.256 15.4C127.92 15.176 127.688 14.968 127.56 14.776C127.432 14.584 127.368 14.32 127.368 13.984V5.992H129.288V13.984C129.528 14.16 129.88 14.328 130.344 14.488C130.808 14.648 131.336 14.728 131.928 14.728C133.016 14.728 133.888 14.384 134.544 13.696C135.216 13.008 135.552 11.928 135.552 10.456C135.552 8.968 135.216 7.888 134.544 7.216C133.872 6.528 133.016 6.184 131.976 6.184C131.336 6.184 130.768 6.312 130.272 6.568C129.776 6.808 129.368 7.088 129.048 7.408L128.688 5.848C129.04 5.576 129.512 5.304 130.104 5.032C130.696 4.744 131.416 4.6 132.264 4.6ZM129.288 6.376H127.368V0.448C127.448 0.415999 127.568 0.383999 127.728 0.352C127.904 0.303999 128.088 0.279999 128.28 0.279999C128.616 0.279999 128.864 0.351999 129.024 0.495999C129.2 0.624 129.288 0.84 129.288 1.144V6.376ZM142.443 13.528C142.171 13.016 141.843 12.328 141.459 11.464C141.075 10.584 140.675 9.608 140.259 8.536C139.859 7.448 139.475 6.344 139.107 5.224C139.219 5.064 139.363 4.936 139.539 4.84C139.731 4.744 139.931 4.696 140.139 4.696C140.411 4.696 140.635 4.768 140.811 4.912C140.987 5.056 141.131 5.296 141.243 5.632C141.723 6.976 142.227 8.312 142.755 9.64C143.283 10.968 143.867 12.344 144.507 13.768H144.603C144.939 13.096 145.291 12.256 145.659 11.248C146.027 10.24 146.379 9.176 146.715 8.056C147.051 6.936 147.331 5.88 147.555 4.888C147.667 4.84 147.787 4.8 147.915 4.768C148.059 4.72 148.211 4.696 148.371 4.696C148.643 4.696 148.867 4.768 149.043 4.912C149.219 5.04 149.307 5.24 149.307 5.512C149.307 5.768 149.235 6.2 149.091 6.808C148.947 7.4 148.747 8.096 148.491 8.896C148.251 9.68 147.963 10.52 147.627 11.416C147.307 12.296 146.955 13.168 146.571 14.032C146.203 14.88 145.827 15.648 145.443 16.336C144.707 17.696 144.035 18.736 143.427 19.456C142.819 20.192 142.259 20.56 141.747 20.56C141.379 20.56 141.091 20.464 140.883 20.272C140.691 20.08 140.571 19.856 140.523 19.6C140.875 19.296 141.267 18.888 141.699 18.376C142.147 17.88 142.571 17.336 142.971 16.744C143.387 16.168 143.723 15.616 143.979 15.088C143.707 15.008 143.451 14.864 143.211 14.656C142.987 14.448 142.731 14.072 142.443 13.528ZM167.726 3.016C167.726 3.224 167.654 3.416 167.51 3.592C167.382 3.752 167.23 3.872 167.054 3.952C166.654 3.664 166.166 3.392 165.59 3.136C165.03 2.88 164.302 2.752 163.406 2.752C162.43 2.752 161.55 2.976 160.766 3.424C159.998 3.872 159.382 4.544 158.918 5.44C158.47 6.32 158.246 7.416 158.246 8.728C158.246 10.696 158.726 12.176 159.686 13.168C160.662 14.16 161.926 14.656 163.478 14.656C164.31 14.656 165.038 14.536 165.662 14.296C166.286 14.056 166.798 13.784 167.198 13.48C167.358 13.544 167.51 13.664 167.654 13.84C167.798 14 167.87 14.192 167.87 14.416C167.87 14.576 167.822 14.736 167.726 14.896C167.646 15.04 167.502 15.184 167.294 15.328C166.926 15.584 166.422 15.808 165.782 16C165.142 16.208 164.326 16.312 163.334 16.312C162.006 16.312 160.798 16.032 159.71 15.472C158.638 14.896 157.79 14.048 157.166 12.928C156.542 11.808 156.23 10.408 156.23 8.728C156.23 7.048 156.55 5.64 157.19 4.504C157.846 3.368 158.702 2.52 159.758 1.96C160.83 1.384 161.998 1.096 163.262 1.096C164.142 1.096 164.918 1.192 165.59 1.384C166.262 1.576 166.782 1.824 167.15 2.128C167.534 2.416 167.726 2.712 167.726 3.016ZM171.203 7.288H173.147V15.952C173.067 15.984 172.947 16.016 172.787 16.048C172.627 16.096 172.451 16.12 172.259 16.12C171.907 16.12 171.643 16.048 171.467 15.904C171.291 15.76 171.203 15.536 171.203 15.232V7.288ZM173.147 8.896H171.203V1.456C171.283 1.424 171.403 1.392 171.563 1.36C171.739 1.312 171.923 1.288 172.115 1.288C172.467 1.288 172.723 1.36 172.883 1.504C173.059 1.632 173.147 1.856 173.147 2.176V8.896ZM181.588 3.064L181.468 1.408H187.06C187.108 1.472 187.156 1.576 187.204 1.72C187.252 1.864 187.276 2.016 187.276 2.176C187.276 2.432 187.212 2.648 187.084 2.824C186.956 2.984 186.772 3.064 186.532 3.064H181.588ZM181.636 1.408L181.756 3.064H176.14C176.092 2.984 176.044 2.872 175.996 2.728C175.948 2.584 175.924 2.432 175.924 2.272C175.924 2 175.988 1.792 176.116 1.648C176.244 1.488 176.428 1.408 176.668 1.408H181.636ZM180.628 2.416H182.572V15.952C182.492 15.984 182.364 16.016 182.188 16.048C182.028 16.096 181.86 16.12 181.684 16.12C181.332 16.12 181.068 16.048 180.892 15.904C180.716 15.76 180.628 15.536 180.628 15.232V2.416ZM194.827 7.312H196.795V15.952C196.699 15.984 196.571 16.016 196.411 16.048C196.251 16.096 196.075 16.12 195.883 16.12C195.531 16.12 195.267 16.048 195.091 15.904C194.915 15.76 194.827 15.536 194.827 15.232V7.312ZM196.795 8.92H194.827V1.456C194.907 1.424 195.027 1.392 195.187 1.36C195.363 1.312 195.547 1.288 195.739 1.288C196.091 1.288 196.355 1.36 196.531 1.504C196.707 1.632 196.795 1.856 196.795 2.176V8.92ZM204.283 7.312H206.251V15.952C206.155 15.984 206.027 16.016 205.867 16.048C205.707 16.096 205.531 16.12 205.339 16.12C204.987 16.12 204.723 16.048 204.547 15.904C204.371 15.76 204.283 15.536 204.283 15.232V7.312ZM206.251 8.92H204.283V1.456C204.363 1.424 204.483 1.392 204.643 1.36C204.819 1.312 205.003 1.288 205.195 1.288C205.547 1.288 205.811 1.36 205.987 1.504C206.163 1.632 206.251 1.856 206.251 2.176V8.92ZM205.315 9.424H196.003V7.792H205.315V9.424ZM214.155 16.336C212.651 16.336 211.483 16.04 210.651 15.448C209.835 14.856 209.427 14 209.427 12.88C209.427 11.84 209.771 11.048 210.459 10.504C211.163 9.944 212.131 9.608 213.363 9.496L216.771 9.16V8.488C216.771 7.688 216.531 7.104 216.051 6.736C215.571 6.368 214.923 6.184 214.107 6.184C213.451 6.184 212.819 6.28 212.211 6.472C211.619 6.664 211.091 6.88 210.627 7.12C210.499 7.008 210.379 6.88 210.267 6.736C210.171 6.576 210.123 6.416 210.123 6.256C210.123 5.84 210.355 5.52 210.819 5.296C211.251 5.072 211.747 4.904 212.307 4.792C212.883 4.664 213.491 4.6 214.131 4.6C215.523 4.6 216.627 4.912 217.443 5.536C218.259 6.16 218.667 7.144 218.667 8.488V14.176C218.667 14.528 218.595 14.8 218.451 14.992C218.323 15.168 218.123 15.336 217.851 15.496C217.467 15.704 216.955 15.896 216.315 16.072C215.675 16.248 214.955 16.336 214.155 16.336ZM214.155 14.752C214.827 14.752 215.379 14.688 215.811 14.56C216.259 14.416 216.579 14.28 216.771 14.152V10.672L213.795 10.984C212.963 11.048 212.347 11.232 211.947 11.536C211.547 11.84 211.347 12.28 211.347 12.856C211.347 13.448 211.579 13.912 212.043 14.248C212.523 14.584 213.227 14.752 214.155 14.752ZM227.307 6.208C226.219 6.208 225.315 6.576 224.595 7.312C223.875 8.048 223.515 9.104 223.515 10.48C223.515 11.84 223.859 12.888 224.547 13.624C225.251 14.36 226.171 14.728 227.307 14.728C227.979 14.728 228.539 14.64 228.987 14.464C229.435 14.272 229.835 14.056 230.187 13.816C230.363 13.912 230.507 14.032 230.619 14.176C230.731 14.32 230.787 14.496 230.787 14.704C230.787 15.152 230.451 15.536 229.779 15.856C229.123 16.16 228.299 16.312 227.307 16.312C226.203 16.312 225.211 16.104 224.331 15.688C223.467 15.256 222.787 14.608 222.291 13.744C221.795 12.88 221.547 11.792 221.547 10.48C221.547 9.184 221.803 8.104 222.315 7.24C222.827 6.36 223.515 5.704 224.379 5.272C225.259 4.824 226.219 4.6 227.259 4.6C228.251 4.6 229.067 4.768 229.707 5.104C230.363 5.44 230.691 5.824 230.691 6.256C230.691 6.448 230.635 6.616 230.523 6.76C230.411 6.904 230.267 7.016 230.091 7.096C229.739 6.856 229.347 6.648 228.915 6.472C228.499 6.296 227.963 6.208 227.307 6.208ZM236.584 10.936L235.384 10L240.856 4.696C241.24 4.712 241.536 4.808 241.744 4.984C241.968 5.144 242.08 5.36 242.08 5.632C242.08 5.856 242.008 6.056 241.864 6.232C241.736 6.408 241.544 6.6 241.288 6.808L236.584 10.936ZM235.336 10.312L236.68 9.52L242.776 14.992C242.744 15.344 242.632 15.624 242.44 15.832C242.264 16.04 242.024 16.144 241.72 16.144C241.48 16.144 241.256 16.08 241.048 15.952C240.856 15.824 240.656 15.656 240.448 15.448L235.336 10.312ZM233.68 9.568L235.6 9.856V15.952C235.52 15.984 235.4 16.016 235.24 16.048C235.08 16.096 234.904 16.12 234.712 16.12C234.376 16.12 234.12 16.056 233.944 15.928C233.768 15.784 233.68 15.56 233.68 15.256V9.568ZM235.6 10.792L233.68 10.504V0.448C233.76 0.415999 233.88 0.383999 234.04 0.352C234.216 0.303999 234.4 0.279999 234.592 0.279999C234.928 0.279999 235.176 0.351999 235.336 0.495999C235.512 0.624 235.6 0.84 235.6 1.144V10.792ZM245.234 9.664H247.154V12.976C247.154 13.616 247.338 14.072 247.706 14.344C248.074 14.6 248.578 14.728 249.218 14.728C249.49 14.728 249.794 14.68 250.13 14.584C250.466 14.488 250.746 14.376 250.97 14.248C251.066 14.344 251.154 14.464 251.234 14.608C251.314 14.752 251.354 14.92 251.354 15.112C251.354 15.464 251.146 15.752 250.73 15.976C250.314 16.2 249.738 16.312 249.002 16.312C247.882 16.312 246.97 16.064 246.266 15.568C245.578 15.072 245.234 14.248 245.234 13.096V9.664ZM246.218 6.736V5.152H251.09C251.138 5.216 251.186 5.32 251.234 5.464C251.282 5.608 251.306 5.76 251.306 5.92C251.306 6.176 251.242 6.376 251.114 6.52C250.986 6.664 250.81 6.736 250.586 6.736H246.218ZM247.154 10.384H245.234V1.696C245.314 1.664 245.434 1.632 245.594 1.6C245.77 1.552 245.954 1.528 246.146 1.528C246.482 1.528 246.73 1.6 246.89 1.744C247.066 1.872 247.154 2.088 247.154 2.392V10.384ZM263.764 11.224H261.844V9.016C261.844 8.056 261.572 7.344 261.028 6.88C260.5 6.416 259.812 6.184 258.964 6.184C258.34 6.184 257.756 6.304 257.212 6.544C256.684 6.784 256.236 7.072 255.868 7.408L255.508 5.848C255.892 5.576 256.396 5.304 257.02 5.032C257.66 4.744 258.396 4.6 259.228 4.6C260.556 4.6 261.644 4.96 262.492 5.68C263.34 6.4 263.764 7.496 263.764 8.968V11.224ZM254.188 9.664H256.108V15.952C256.028 15.984 255.908 16.016 255.748 16.048C255.588 16.096 255.412 16.12 255.22 16.12C254.884 16.12 254.628 16.056 254.452 15.928C254.276 15.784 254.188 15.56 254.188 15.256V9.664ZM261.844 9.688L263.764 9.712V15.952C263.684 15.984 263.556 16.016 263.38 16.048C263.22 16.096 263.052 16.12 262.876 16.12C262.524 16.12 262.26 16.056 262.084 15.928C261.924 15.784 261.844 15.56 261.844 15.256V9.688ZM256.108 10.6H254.188V0.448C254.268 0.415999 254.388 0.383999 254.548 0.352C254.724 0.303999 254.908 0.279999 255.1 0.279999C255.436 0.279999 255.684 0.351999 255.844 0.495999C256.02 0.624 256.108 0.84 256.108 1.144V10.6ZM277.655 10.456C277.655 11.64 277.431 12.672 276.983 13.552C276.535 14.432 275.903 15.112 275.087 15.592C274.271 16.072 273.311 16.312 272.207 16.312C271.103 16.312 270.135 16.072 269.303 15.592C268.487 15.112 267.855 14.432 267.407 13.552C266.959 12.672 266.735 11.64 266.735 10.456C266.735 9.256 266.959 8.224 267.407 7.36C267.871 6.48 268.511 5.8 269.327 5.32C270.159 4.84 271.119 4.6 272.207 4.6C273.295 4.6 274.247 4.84 275.063 5.32C275.879 5.8 276.511 6.48 276.959 7.36C277.423 8.224 277.655 9.256 277.655 10.456ZM272.207 6.184C271.135 6.184 270.279 6.568 269.639 7.336C269.015 8.088 268.703 9.128 268.703 10.456C268.703 11.8 269.007 12.848 269.615 13.6C270.239 14.352 271.103 14.728 272.207 14.728C273.295 14.728 274.143 14.352 274.751 13.6C275.375 12.832 275.687 11.784 275.687 10.456C275.687 9.128 275.375 8.088 274.751 7.336C274.143 6.568 273.295 6.184 272.207 6.184ZM290.224 8.68V11.128H288.304V8.776C288.304 7.88 288.048 7.224 287.536 6.808C287.04 6.392 286.368 6.184 285.52 6.184C284.88 6.184 284.312 6.264 283.816 6.424C283.32 6.584 282.896 6.768 282.544 6.976V11.128H280.624V7.072C280.624 6.736 280.688 6.464 280.816 6.256C280.96 6.032 281.2 5.816 281.536 5.608C281.952 5.368 282.504 5.144 283.192 4.936C283.88 4.712 284.656 4.6 285.52 4.6C286.976 4.6 288.12 4.936 288.952 5.608C289.8 6.264 290.224 7.288 290.224 8.68ZM280.624 9.808H282.544V15.952C282.464 15.984 282.344 16.016 282.184 16.048C282.024 16.096 281.848 16.12 281.656 16.12C281.32 16.12 281.064 16.056 280.888 15.928C280.712 15.784 280.624 15.56 280.624 15.256V9.808ZM288.304 9.808H290.224V15.952C290.144 15.984 290.016 16.016 289.84 16.048C289.68 16.096 289.512 16.12 289.336 16.12C288.984 16.12 288.72 16.056 288.544 15.928C288.384 15.784 288.304 15.56 288.304 15.256V9.808ZM310.504 9.112V14.32C310.504 14.608 310.416 14.856 310.24 15.064C310.08 15.256 309.832 15.432 309.496 15.592C309.096 15.8 308.544 15.968 307.84 16.096C307.136 16.24 306.424 16.312 305.704 16.312C304.216 16.312 302.896 16.04 301.744 15.496C300.608 14.952 299.72 14.12 299.08 13C298.44 11.88 298.12 10.456 298.12 8.728C298.12 7.016 298.448 5.6 299.104 4.48C299.776 3.344 300.664 2.496 301.768 1.936C302.872 1.376 304.08 1.096 305.392 1.096C306.304 1.096 307.104 1.192 307.792 1.384C308.48 1.576 309.016 1.816 309.4 2.104C309.784 2.392 309.976 2.688 309.976 2.992C309.976 3.2 309.912 3.392 309.784 3.568C309.656 3.728 309.504 3.848 309.328 3.928C308.896 3.64 308.384 3.376 307.792 3.136C307.2 2.88 306.44 2.752 305.512 2.752C304.504 2.752 303.592 2.976 302.776 3.424C301.96 3.872 301.312 4.544 300.832 5.44C300.368 6.32 300.136 7.416 300.136 8.728C300.136 10.104 300.376 11.232 300.856 12.112C301.352 12.976 302.024 13.616 302.872 14.032C303.72 14.448 304.672 14.656 305.728 14.656C306.304 14.656 306.848 14.608 307.36 14.512C307.872 14.416 308.272 14.296 308.56 14.152V9.736H304.936C304.888 9.656 304.84 9.552 304.792 9.424C304.744 9.28 304.72 9.128 304.72 8.968C304.72 8.696 304.784 8.488 304.912 8.344C305.04 8.184 305.224 8.104 305.464 8.104H309.472C309.76 8.104 310 8.2 310.192 8.392C310.4 8.568 310.504 8.808 310.504 9.112ZM315.919 6.976V10.768H313.999V7.12C313.999 6.752 314.063 6.464 314.191 6.256C314.335 6.032 314.567 5.816 314.887 5.608C315.303 5.336 315.871 5.104 316.591 4.912C317.311 4.704 318.111 4.6 318.991 4.6C320.271 4.6 320.911 4.92 320.911 5.56C320.911 5.72 320.887 5.872 320.839 6.016C320.791 6.144 320.727 6.256 320.647 6.352C320.487 6.32 320.279 6.288 320.023 6.256C319.767 6.224 319.511 6.208 319.255 6.208C318.519 6.208 317.871 6.288 317.311 6.448C316.751 6.592 316.287 6.768 315.919 6.976ZM313.999 9.664L315.919 9.952V15.952C315.839 15.984 315.719 16.016 315.559 16.048C315.399 16.096 315.223 16.12 315.031 16.12C314.695 16.12 314.439 16.056 314.263 15.928C314.087 15.784 313.999 15.56 313.999 15.256V9.664ZM333.225 10.456C333.225 11.64 333.001 12.672 332.553 13.552C332.105 14.432 331.473 15.112 330.657 15.592C329.841 16.072 328.881 16.312 327.777 16.312C326.673 16.312 325.705 16.072 324.873 15.592C324.057 15.112 323.425 14.432 322.977 13.552C322.529 12.672 322.305 11.64 322.305 10.456C322.305 9.256 322.529 8.224 322.977 7.36C323.441 6.48 324.081 5.8 324.897 5.32C325.729 4.84 326.689 4.6 327.777 4.6C328.865 4.6 329.817 4.84 330.633 5.32C331.449 5.8 332.081 6.48 332.529 7.36C332.993 8.224 333.225 9.256 333.225 10.456ZM327.777 6.184C326.705 6.184 325.849 6.568 325.209 7.336C324.585 8.088 324.273 9.128 324.273 10.456C324.273 11.8 324.577 12.848 325.185 13.6C325.809 14.352 326.673 14.728 327.777 14.728C328.865 14.728 329.713 14.352 330.321 13.6C330.945 12.832 331.257 11.784 331.257 10.456C331.257 9.128 330.945 8.088 330.321 7.336C329.713 6.568 328.865 6.184 327.777 6.184ZM336.195 11.944V9.76H338.115V11.848C338.115 12.872 338.387 13.608 338.931 14.056C339.475 14.504 340.227 14.728 341.187 14.728C341.827 14.728 342.371 14.664 342.819 14.536C343.267 14.392 343.619 14.248 343.875 14.104V9.76H345.795V14.032C345.795 14.368 345.747 14.64 345.651 14.848C345.571 15.04 345.363 15.232 345.027 15.424C344.675 15.632 344.171 15.832 343.515 16.024C342.859 16.216 342.075 16.312 341.163 16.312C340.107 16.312 339.203 16.16 338.451 15.856C337.715 15.536 337.155 15.056 336.771 14.416C336.387 13.76 336.195 12.936 336.195 11.944ZM345.795 11.008H343.875V4.96C343.955 4.928 344.075 4.896 344.235 4.864C344.411 4.816 344.587 4.792 344.763 4.792C345.115 4.792 345.371 4.864 345.531 5.008C345.707 5.136 345.795 5.36 345.795 5.68V11.008ZM338.115 11.008H336.195V4.96C336.275 4.928 336.395 4.896 336.555 4.864C336.731 4.816 336.915 4.792 337.107 4.792C337.443 4.792 337.691 4.864 337.851 5.008C338.027 5.136 338.115 5.36 338.115 5.68V11.008ZM354.118 16.312C353.43 16.312 352.782 16.208 352.174 16C351.582 15.808 351.15 15.592 350.878 15.352V13.576C351.198 13.88 351.598 14.152 352.078 14.392C352.574 14.616 353.166 14.728 353.854 14.728C354.974 14.728 355.87 14.392 356.542 13.72C357.23 13.032 357.574 11.936 357.574 10.432C357.574 9.376 357.398 8.544 357.046 7.936C356.71 7.312 356.254 6.864 355.678 6.592C355.118 6.32 354.51 6.184 353.854 6.184C353.278 6.184 352.79 6.256 352.39 6.4C351.99 6.544 351.63 6.704 351.31 6.88V14.848H349.39V6.928C349.39 6.608 349.446 6.352 349.558 6.16C349.67 5.968 349.902 5.768 350.254 5.56C350.686 5.32 351.198 5.104 351.79 4.912C352.398 4.704 353.086 4.6 353.854 4.6C354.91 4.6 355.862 4.808 356.71 5.224C357.574 5.624 358.254 6.256 358.75 7.12C359.262 7.968 359.518 9.072 359.518 10.432C359.518 11.744 359.286 12.84 358.822 13.72C358.374 14.584 357.742 15.232 356.926 15.664C356.11 16.096 355.174 16.312 354.118 16.312ZM350.422 20.488C350.086 20.488 349.83 20.416 349.654 20.272C349.478 20.128 349.39 19.904 349.39 19.6V14.152L351.31 14.2V20.32C351.23 20.352 351.11 20.384 350.95 20.416C350.79 20.464 350.614 20.488 350.422 20.488ZM361.651 6.592C361.651 6.208 361.763 5.888 361.987 5.632C362.227 5.376 362.547 5.248 362.947 5.248C363.363 5.248 363.683 5.376 363.907 5.632C364.147 5.888 364.267 6.208 364.267 6.592C364.267 6.976 364.147 7.296 363.907 7.552C363.683 7.792 363.363 7.912 362.947 7.912C362.547 7.912 362.227 7.792 361.987 7.552C361.763 7.296 361.651 6.976 361.651 6.592ZM361.651 14.992C361.651 14.608 361.763 14.288 361.987 14.032C362.211 13.776 362.531 13.648 362.947 13.648C363.363 13.648 363.683 13.776 363.907 14.032C364.147 14.288 364.267 14.608 364.267 14.992C364.267 15.36 364.147 15.672 363.907 15.928C363.683 16.184 363.363 16.312 362.947 16.312C362.531 16.312 362.211 16.184 361.987 15.928C361.763 15.672 361.651 15.36 361.651 14.992ZM373.691 8.56L375.203 7.6C376.899 9.232 378.355 10.688 379.571 11.968C380.803 13.248 381.843 14.272 382.691 15.04C382.675 15.392 382.571 15.672 382.379 15.88C382.187 16.072 381.947 16.168 381.659 16.168C381.387 16.168 381.139 16.088 380.915 15.928C380.707 15.768 380.491 15.584 380.267 15.376L373.691 8.56ZM375.467 9.232L373.523 8.8L380.747 1.312C381.163 1.328 381.475 1.432 381.683 1.624C381.891 1.816 381.995 2.04 381.995 2.296C381.995 2.504 381.939 2.704 381.827 2.896C381.731 3.072 381.571 3.256 381.347 3.448L375.467 9.232ZM372.179 7.192H374.147V15.976C374.051 16.008 373.923 16.04 373.763 16.072C373.603 16.12 373.427 16.144 373.235 16.144C372.883 16.144 372.619 16.072 372.443 15.928C372.267 15.784 372.179 15.56 372.179 15.256V7.192ZM374.147 8.8H372.179V1.456C372.259 1.424 372.379 1.392 372.539 1.36C372.715 1.312 372.899 1.288 373.091 1.288C373.443 1.288 373.707 1.36 373.883 1.504C374.059 1.632 374.147 1.856 374.147 2.176V8.8ZM387.717 10.096L385.773 10.072V2.464C385.773 2.144 385.869 1.888 386.061 1.696C386.253 1.504 386.509 1.408 386.829 1.408C387.005 1.408 387.181 1.432 387.357 1.48C387.533 1.528 387.653 1.568 387.717 1.6V10.096ZM386.829 9.712V8.056H393.957C394.005 8.136 394.053 8.248 394.101 8.392C394.149 8.52 394.173 8.664 394.173 8.824C394.173 9.08 394.109 9.296 393.981 9.472C393.853 9.632 393.669 9.712 393.429 9.712H386.829ZM386.829 3.064V1.408H394.797C394.845 1.472 394.893 1.576 394.941 1.72C394.989 1.864 395.013 2.016 395.013 2.176C395.013 2.432 394.949 2.648 394.821 2.824C394.693 2.984 394.509 3.064 394.269 3.064H386.829ZM385.773 7.456H387.741V15.976C387.661 15.992 387.533 16.016 387.357 16.048C387.197 16.096 387.029 16.12 386.853 16.12C386.501 16.12 386.229 16.048 386.037 15.904C385.861 15.76 385.773 15.544 385.773 15.256V7.456ZM408.382 3.016C408.382 3.224 408.31 3.416 408.166 3.592C408.038 3.752 407.886 3.872 407.71 3.952C407.31 3.664 406.822 3.392 406.246 3.136C405.686 2.88 404.958 2.752 404.062 2.752C403.086 2.752 402.206 2.976 401.422 3.424C400.654 3.872 400.038 4.544 399.574 5.44C399.126 6.32 398.902 7.416 398.902 8.728C398.902 10.696 399.382 12.176 400.342 13.168C401.318 14.16 402.582 14.656 404.134 14.656C404.966 14.656 405.694 14.536 406.318 14.296C406.942 14.056 407.454 13.784 407.854 13.48C408.014 13.544 408.166 13.664 408.31 13.84C408.454 14 408.526 14.192 408.526 14.416C408.526 14.576 408.478 14.736 408.382 14.896C408.302 15.04 408.158 15.184 407.95 15.328C407.582 15.584 407.078 15.808 406.438 16C405.798 16.208 404.982 16.312 403.99 16.312C402.662 16.312 401.454 16.032 400.366 15.472C399.294 14.896 398.446 14.048 397.822 12.928C397.198 11.808 396.886 10.408 396.886 8.728C396.886 7.048 397.206 5.64 397.846 4.504C398.502 3.368 399.358 2.52 400.414 1.96C401.486 1.384 402.654 1.096 403.918 1.096C404.798 1.096 405.574 1.192 406.246 1.384C406.918 1.576 407.438 1.824 407.806 2.128C408.19 2.416 408.382 2.712 408.382 3.016ZM427.296 3.016C427.296 3.224 427.224 3.416 427.08 3.592C426.952 3.752 426.8 3.872 426.624 3.952C426.224 3.664 425.736 3.392 425.16 3.136C424.6 2.88 423.872 2.752 422.976 2.752C422 2.752 421.12 2.976 420.336 3.424C419.568 3.872 418.952 4.544 418.488 5.44C418.04 6.32 417.816 7.416 417.816 8.728C417.816 10.696 418.296 12.176 419.256 13.168C420.232 14.16 421.496 14.656 423.048 14.656C423.88 14.656 424.608 14.536 425.232 14.296C425.856 14.056 426.368 13.784 426.768 13.48C426.928 13.544 427.08 13.664 427.224 13.84C427.368 14 427.44 14.192 427.44 14.416C427.44 14.576 427.392 14.736 427.296 14.896C427.216 15.04 427.072 15.184 426.864 15.328C426.496 15.584 425.992 15.808 425.352 16C424.712 16.208 423.896 16.312 422.904 16.312C421.576 16.312 420.368 16.032 419.28 15.472C418.208 14.896 417.36 14.048 416.736 12.928C416.112 11.808 415.8 10.408 415.8 8.728C415.8 7.048 416.12 5.64 416.76 4.504C417.416 3.368 418.272 2.52 419.328 1.96C420.4 1.384 421.568 1.096 422.832 1.096C423.712 1.096 424.488 1.192 425.16 1.384C425.832 1.576 426.352 1.824 426.72 2.128C427.104 2.416 427.296 2.712 427.296 3.016ZM432.216 6.976V10.768H430.296V7.12C430.296 6.752 430.36 6.464 430.488 6.256C430.632 6.032 430.864 5.816 431.184 5.608C431.6 5.336 432.168 5.104 432.888 4.912C433.608 4.704 434.408 4.6 435.288 4.6C436.568 4.6 437.208 4.92 437.208 5.56C437.208 5.72 437.184 5.872 437.136 6.016C437.088 6.144 437.024 6.256 436.944 6.352C436.784 6.32 436.576 6.288 436.32 6.256C436.064 6.224 435.808 6.208 435.552 6.208C434.816 6.208 434.168 6.288 433.608 6.448C433.048 6.592 432.584 6.768 432.216 6.976ZM430.296 9.664L432.216 9.952V15.952C432.136 15.984 432.016 16.016 431.856 16.048C431.696 16.096 431.52 16.12 431.328 16.12C430.992 16.12 430.736 16.056 430.56 15.928C430.384 15.784 430.296 15.56 430.296 15.256V9.664ZM443.303 16.336C441.799 16.336 440.631 16.04 439.799 15.448C438.983 14.856 438.575 14 438.575 12.88C438.575 11.84 438.919 11.048 439.607 10.504C440.311 9.944 441.279 9.608 442.511 9.496L445.919 9.16V8.488C445.919 7.688 445.679 7.104 445.199 6.736C444.719 6.368 444.071 6.184 443.255 6.184C442.599 6.184 441.967 6.28 441.359 6.472C440.767 6.664 440.239 6.88 439.775 7.12C439.647 7.008 439.527 6.88 439.415 6.736C439.319 6.576 439.271 6.416 439.271 6.256C439.271 5.84 439.503 5.52 439.967 5.296C440.399 5.072 440.895 4.904 441.455 4.792C442.031 4.664 442.639 4.6 443.279 4.6C444.671 4.6 445.775 4.912 446.591 5.536C447.407 6.16 447.815 7.144 447.815 8.488V14.176C447.815 14.528 447.743 14.8 447.599 14.992C447.471 15.168 447.271 15.336 446.999 15.496C446.615 15.704 446.103 15.896 445.463 16.072C444.823 16.248 444.103 16.336 443.303 16.336ZM443.303 14.752C443.975 14.752 444.527 14.688 444.959 14.56C445.407 14.416 445.727 14.28 445.919 14.152V10.672L442.943 10.984C442.111 11.048 441.495 11.232 441.095 11.536C440.695 11.84 440.495 12.28 440.495 12.856C440.495 13.448 440.727 13.912 441.191 14.248C441.671 14.584 442.375 14.752 443.303 14.752ZM451.752 16H450.984C450.872 15.904 450.776 15.784 450.696 15.64C450.632 15.48 450.6 15.32 450.6 15.16C450.6 14.968 450.64 14.792 450.72 14.632C450.816 14.456 450.92 14.288 451.032 14.128L458.4 4.912H459.144C459.272 5.024 459.368 5.152 459.432 5.296C459.512 5.44 459.552 5.6 459.552 5.776C459.552 5.952 459.512 6.12 459.432 6.28C459.352 6.44 459.24 6.608 459.096 6.784L451.752 16ZM458.88 4.912V6.496H450.96C450.912 6.416 450.864 6.304 450.816 6.16C450.768 6.016 450.744 5.864 450.744 5.704C450.744 5.432 450.808 5.232 450.936 5.104C451.064 4.976 451.24 4.912 451.464 4.912H458.88ZM451.128 16V14.44H459.504C459.552 14.504 459.6 14.608 459.648 14.752C459.696 14.88 459.72 15.032 459.72 15.208C459.72 15.464 459.656 15.664 459.528 15.808C459.4 15.936 459.216 16 458.976 16H451.128ZM464.661 13.528C464.389 13.016 464.061 12.328 463.677 11.464C463.293 10.584 462.893 9.608 462.477 8.536C462.077 7.448 461.693 6.344 461.325 5.224C461.437 5.064 461.581 4.936 461.757 4.84C461.949 4.744 462.149 4.696 462.357 4.696C462.629 4.696 462.853 4.768 463.029 4.912C463.205 5.056 463.349 5.296 463.461 5.632C463.941 6.976 464.445 8.312 464.973 9.64C465.501 10.968 466.085 12.344 466.725 13.768H466.821C467.157 13.096 467.509 12.256 467.877 11.248C468.245 10.24 468.597 9.176 468.933 8.056C469.269 6.936 469.549 5.88 469.773 4.888C469.885 4.84 470.005 4.8 470.133 4.768C470.277 4.72 470.429 4.696 470.589 4.696C470.861 4.696 471.085 4.768 471.261 4.912C471.437 5.04 471.525 5.24 471.525 5.512C471.525 5.768 471.453 6.2 471.309 6.808C471.165 7.4 470.965 8.096 470.709 8.896C470.469 9.68 470.181 10.52 469.845 11.416C469.525 12.296 469.173 13.168 468.789 14.032C468.421 14.88 468.045 15.648 467.661 16.336C466.925 17.696 466.253 18.736 465.645 19.456C465.037 20.192 464.477 20.56 463.965 20.56C463.597 20.56 463.309 20.464 463.101 20.272C462.909 20.08 462.789 19.856 462.741 19.6C463.093 19.296 463.485 18.888 463.917 18.376C464.365 17.88 464.789 17.336 465.189 16.744C465.605 16.168 465.941 15.616 466.197 15.088C465.925 15.008 465.669 14.864 465.429 14.656C465.205 14.448 464.949 14.072 464.661 13.528ZM483.416 3.064L483.296 1.408H488.888C488.936 1.472 488.984 1.576 489.032 1.72C489.08 1.864 489.104 2.016 489.104 2.176C489.104 2.432 489.04 2.648 488.912 2.824C488.784 2.984 488.6 3.064 488.36 3.064H483.416ZM483.464 1.408L483.584 3.064H477.968C477.92 2.984 477.872 2.872 477.824 2.728C477.776 2.584 477.752 2.432 477.752 2.272C477.752 2 477.816 1.792 477.944 1.648C478.072 1.488 478.256 1.408 478.496 1.408H483.464ZM482.456 2.416H484.4V15.952C484.32 15.984 484.192 16.016 484.016 16.048C483.856 16.096 483.688 16.12 483.512 16.12C483.16 16.12 482.896 16.048 482.72 15.904C482.544 15.76 482.456 15.536 482.456 15.232V2.416ZM501.139 11.224H499.219V9.016C499.219 8.056 498.947 7.344 498.403 6.88C497.875 6.416 497.187 6.184 496.339 6.184C495.715 6.184 495.131 6.304 494.587 6.544C494.059 6.784 493.611 7.072 493.243 7.408L492.883 5.848C493.267 5.576 493.771 5.304 494.395 5.032C495.035 4.744 495.771 4.6 496.603 4.6C497.931 4.6 499.019 4.96 499.867 5.68C500.715 6.4 501.139 7.496 501.139 8.968V11.224ZM491.563 9.664H493.483V15.952C493.403 15.984 493.283 16.016 493.123 16.048C492.963 16.096 492.787 16.12 492.595 16.12C492.259 16.12 492.003 16.056 491.827 15.928C491.651 15.784 491.563 15.56 491.563 15.256V9.664ZM499.219 9.688L501.139 9.712V15.952C501.059 15.984 500.931 16.016 500.755 16.048C500.595 16.096 500.427 16.12 500.251 16.12C499.899 16.12 499.635 16.056 499.459 15.928C499.299 15.784 499.219 15.56 499.219 15.256V9.688ZM493.483 10.6H491.563V0.448C491.643 0.415999 491.763 0.383999 491.923 0.352C492.099 0.303999 492.283 0.279999 492.475 0.279999C492.811 0.279999 493.059 0.351999 493.219 0.495999C493.395 0.624 493.483 0.84 493.483 1.144V10.6ZM504.734 11.944V9.76H506.654V11.848C506.654 12.872 506.926 13.608 507.47 14.056C508.014 14.504 508.766 14.728 509.726 14.728C510.366 14.728 510.91 14.664 511.358 14.536C511.806 14.392 512.158 14.248 512.414 14.104V9.76H514.334V14.032C514.334 14.368 514.286 14.64 514.19 14.848C514.11 15.04 513.902 15.232 513.566 15.424C513.214 15.632 512.71 15.832 512.054 16.024C511.398 16.216 510.614 16.312 509.702 16.312C508.646 16.312 507.742 16.16 506.99 15.856C506.254 15.536 505.694 15.056 505.31 14.416C504.926 13.76 504.734 12.936 504.734 11.944ZM514.334 11.008H512.414V4.96C512.494 4.928 512.614 4.896 512.774 4.864C512.95 4.816 513.126 4.792 513.302 4.792C513.654 4.792 513.91 4.864 514.07 5.008C514.246 5.136 514.334 5.36 514.334 5.68V11.008ZM506.654 11.008H504.734V4.96C504.814 4.928 504.934 4.896 505.094 4.864C505.27 4.816 505.454 4.792 505.646 4.792C505.982 4.792 506.23 4.864 506.39 5.008C506.566 5.136 506.654 5.36 506.654 5.68V11.008ZM519.849 6.976V10.768H517.929V7.12C517.929 6.752 517.993 6.464 518.121 6.256C518.265 6.032 518.497 5.816 518.817 5.608C519.233 5.336 519.801 5.104 520.521 4.912C521.241 4.704 522.041 4.6 522.921 4.6C524.201 4.6 524.841 4.92 524.841 5.56C524.841 5.72 524.817 5.872 524.769 6.016C524.721 6.144 524.657 6.256 524.577 6.352C524.417 6.32 524.209 6.288 523.953 6.256C523.697 6.224 523.441 6.208 523.185 6.208C522.449 6.208 521.801 6.288 521.241 6.448C520.681 6.592 520.217 6.768 519.849 6.976ZM517.929 9.664L519.849 9.952V15.952C519.769 15.984 519.649 16.016 519.489 16.048C519.329 16.096 519.153 16.12 518.961 16.12C518.625 16.12 518.369 16.056 518.193 15.928C518.017 15.784 517.929 15.56 517.929 15.256V9.664ZM534.917 13.048C534.917 14.072 534.541 14.872 533.789 15.448C533.037 16.024 531.949 16.312 530.525 16.312C529.309 16.312 528.317 16.128 527.549 15.76C526.781 15.376 526.397 14.96 526.397 14.512C526.397 14.32 526.445 14.136 526.541 13.96C526.653 13.768 526.813 13.616 527.021 13.504C527.453 13.808 527.957 14.088 528.533 14.344C529.109 14.6 529.765 14.728 530.501 14.728C532.165 14.728 532.997 14.168 532.997 13.048C532.997 12.584 532.853 12.208 532.565 11.92C532.293 11.616 531.885 11.4 531.341 11.272L529.349 10.744C528.373 10.504 527.661 10.136 527.213 9.64C526.765 9.128 526.541 8.496 526.541 7.744C526.541 6.896 526.885 6.16 527.573 5.536C528.261 4.912 529.309 4.6 530.717 4.6C531.469 4.6 532.125 4.68 532.685 4.84C533.245 4.984 533.677 5.184 533.981 5.44C534.301 5.68 534.461 5.944 534.461 6.232C534.461 6.44 534.405 6.624 534.293 6.784C534.197 6.944 534.061 7.064 533.885 7.144C533.693 7.016 533.445 6.88 533.141 6.736C532.853 6.576 532.509 6.448 532.109 6.352C531.709 6.24 531.269 6.184 530.789 6.184C530.085 6.184 529.517 6.32 529.085 6.592C528.653 6.864 528.437 7.248 528.437 7.744C528.437 8.096 528.557 8.408 528.797 8.68C529.053 8.936 529.453 9.128 529.997 9.256L531.653 9.664C532.741 9.92 533.557 10.328 534.101 10.888C534.645 11.432 534.917 12.152 534.917 13.048ZM545.505 14.104V6.04L547.425 6.016V14.176C547.425 14.48 547.353 14.728 547.209 14.92C547.081 15.096 546.873 15.272 546.585 15.448C546.265 15.656 545.809 15.848 545.217 16.024C544.625 16.216 543.945 16.312 543.177 16.312C542.025 16.312 541.009 16.112 540.129 15.712C539.249 15.312 538.561 14.688 538.065 13.84C537.569 12.976 537.321 11.864 537.321 10.504C537.321 9.112 537.561 7.984 538.041 7.12C538.537 6.256 539.201 5.624 540.033 5.224C540.865 4.808 541.777 4.6 542.769 4.6C543.393 4.6 543.985 4.688 544.545 4.864C545.105 5.04 545.545 5.256 545.865 5.512V7.288C545.561 6.984 545.161 6.728 544.665 6.52C544.185 6.296 543.617 6.184 542.961 6.184C542.305 6.184 541.697 6.328 541.137 6.616C540.577 6.888 540.129 7.344 539.793 7.984C539.457 8.624 539.289 9.48 539.289 10.552C539.289 12.008 539.641 13.072 540.345 13.744C541.049 14.4 541.985 14.728 543.153 14.728C543.713 14.728 544.169 14.672 544.521 14.56C544.889 14.432 545.217 14.28 545.505 14.104ZM547.425 6.496L545.505 6.52V0.448C545.585 0.415999 545.705 0.383999 545.865 0.352C546.041 0.303999 546.217 0.279999 546.393 0.279999C546.745 0.279999 547.001 0.351999 547.161 0.495999C547.337 0.624 547.425 0.84 547.425 1.144V6.496ZM555.03 16.336C553.526 16.336 552.358 16.04 551.526 15.448C550.71 14.856 550.302 14 550.302 12.88C550.302 11.84 550.646 11.048 551.334 10.504C552.038 9.944 553.006 9.608 554.238 9.496L557.646 9.16V8.488C557.646 7.688 557.406 7.104 556.926 6.736C556.446 6.368 555.798 6.184 554.982 6.184C554.326 6.184 553.694 6.28 553.086 6.472C552.494 6.664 551.966 6.88 551.502 7.12C551.374 7.008 551.254 6.88 551.142 6.736C551.046 6.576 550.998 6.416 550.998 6.256C550.998 5.84 551.23 5.52 551.694 5.296C552.126 5.072 552.622 4.904 553.182 4.792C553.758 4.664 554.366 4.6 555.006 4.6C556.398 4.6 557.502 4.912 558.318 5.536C559.134 6.16 559.542 7.144 559.542 8.488V14.176C559.542 14.528 559.47 14.8 559.326 14.992C559.198 15.168 558.998 15.336 558.726 15.496C558.342 15.704 557.83 15.896 557.19 16.072C556.55 16.248 555.83 16.336 555.03 16.336ZM555.03 14.752C555.702 14.752 556.254 14.688 556.686 14.56C557.134 14.416 557.454 14.28 557.646 14.152V10.672L554.67 10.984C553.838 11.048 553.222 11.232 552.822 11.536C552.422 11.84 552.222 12.28 552.222 12.856C552.222 13.448 552.454 13.912 552.918 14.248C553.398 14.584 554.102 14.752 555.03 14.752ZM565.021 13.528C564.749 13.016 564.421 12.328 564.037 11.464C563.653 10.584 563.253 9.608 562.837 8.536C562.437 7.448 562.053 6.344 561.685 5.224C561.797 5.064 561.941 4.936 562.117 4.84C562.309 4.744 562.509 4.696 562.717 4.696C562.989 4.696 563.213 4.768 563.389 4.912C563.565 5.056 563.709 5.296 563.821 5.632C564.301 6.976 564.805 8.312 565.333 9.64C565.861 10.968 566.445 12.344 567.085 13.768H567.181C567.517 13.096 567.869 12.256 568.237 11.248C568.605 10.24 568.957 9.176 569.293 8.056C569.629 6.936 569.909 5.88 570.133 4.888C570.245 4.84 570.365 4.8 570.493 4.768C570.637 4.72 570.789 4.696 570.949 4.696C571.221 4.696 571.445 4.768 571.621 4.912C571.797 5.04 571.885 5.24 571.885 5.512C571.885 5.768 571.813 6.2 571.669 6.808C571.525 7.4 571.325 8.096 571.069 8.896C570.829 9.68 570.541 10.52 570.205 11.416C569.885 12.296 569.533 13.168 569.149 14.032C568.781 14.88 568.405 15.648 568.021 16.336C567.285 17.696 566.613 18.736 566.005 19.456C565.397 20.192 564.837 20.56 564.325 20.56C563.957 20.56 563.669 20.464 563.461 20.272C563.269 20.08 563.149 19.856 563.101 19.6C563.453 19.296 563.845 18.888 564.277 18.376C564.725 17.88 565.149 17.336 565.549 16.744C565.965 16.168 566.301 15.616 566.557 15.088C566.285 15.008 566.029 14.864 565.789 14.656C565.565 14.448 565.309 14.072 565.021 13.528ZM585.84 15.808C585.76 15.872 585.608 15.936 585.384 16C585.16 16.08 584.912 16.12 584.64 16.12C584.336 16.12 584.064 16.08 583.824 16C583.584 15.904 583.424 15.768 583.344 15.592C583.088 15.096 582.784 14.432 582.432 13.6C582.096 12.768 581.728 11.84 581.328 10.816C580.944 9.776 580.56 8.72 580.176 7.648C579.792 6.56 579.432 5.512 579.096 4.504C578.776 3.48 578.496 2.576 578.256 1.792C578.352 1.664 578.496 1.544 578.688 1.432C578.88 1.32 579.096 1.264 579.336 1.264C579.64 1.264 579.864 1.336 580.008 1.48C580.152 1.624 580.272 1.84 580.368 2.128C581.072 4.208 581.752 6.232 582.408 8.2C583.08 10.168 583.808 12.152 584.592 14.152H584.688C585.152 12.936 585.632 11.624 586.128 10.216C586.64 8.792 587.128 7.328 587.592 5.824C588.072 4.32 588.496 2.856 588.864 1.432C588.976 1.368 589.096 1.328 589.224 1.312C589.368 1.28 589.52 1.264 589.68 1.264C589.968 1.264 590.2 1.336 590.376 1.48C590.552 1.624 590.64 1.84 590.64 2.128C590.64 2.368 590.552 2.816 590.376 3.472C590.2 4.128 589.96 4.904 589.656 5.8C589.368 6.696 589.048 7.64 588.696 8.632C588.344 9.624 587.984 10.6 587.616 11.56C587.248 12.504 586.912 13.352 586.608 14.104C586.304 14.84 586.048 15.408 585.84 15.808ZM596.4 1.408L595.752 2.824L595.344 7.36C595.616 7.216 595.992 7.08 596.472 6.952C596.968 6.808 597.488 6.736 598.032 6.736C598.992 6.736 599.856 6.92 600.624 7.288C601.392 7.64 602 8.168 602.448 8.872C602.912 9.56 603.144 10.416 603.144 11.44C603.144 12.368 602.928 13.2 602.496 13.936C602.08 14.672 601.464 15.256 600.648 15.688C599.848 16.104 598.864 16.312 597.696 16.312C596.784 16.312 595.984 16.208 595.296 16C594.608 15.792 594.072 15.536 593.688 15.232C593.304 14.928 593.112 14.632 593.112 14.344C593.112 14.088 593.192 13.864 593.352 13.672C593.528 13.48 593.704 13.352 593.88 13.288C594.232 13.592 594.728 13.904 595.368 14.224C596.008 14.544 596.784 14.704 597.696 14.704C598.8 14.704 599.656 14.4 600.264 13.792C600.872 13.168 601.176 12.384 601.176 11.44C601.176 10.464 600.864 9.704 600.24 9.16C599.616 8.616 598.8 8.344 597.792 8.344C597.232 8.344 596.72 8.432 596.256 8.608C595.792 8.784 595.36 8.984 594.96 9.208C594.528 9.176 594.176 9.048 593.904 8.824C593.648 8.584 593.52 8.28 593.52 7.912C593.52 7.816 593.52 7.696 593.52 7.552C593.536 7.392 593.552 7.24 593.568 7.096L593.976 2.512C594.008 2.176 594.112 1.912 594.288 1.72C594.464 1.512 594.72 1.408 595.056 1.408H596.4ZM595.392 3.04V1.408H602.4C602.448 1.472 602.496 1.576 602.544 1.72C602.592 1.864 602.616 2.016 602.616 2.176C602.616 2.432 602.552 2.64 602.424 2.8C602.296 2.96 602.112 3.04 601.872 3.04H595.392ZM611.519 16.312C610.399 16.312 609.407 16.04 608.543 15.496C607.695 14.936 607.031 14.096 606.551 12.976C606.071 11.84 605.831 10.416 605.831 8.704C605.831 6.864 606.103 5.392 606.647 4.288C607.191 3.184 607.895 2.384 608.759 1.888C609.623 1.376 610.543 1.12 611.519 1.12C612.511 1.12 613.439 1.376 614.303 1.888C615.183 2.4 615.887 3.216 616.415 4.336C616.959 5.44 617.231 6.896 617.231 8.704C617.231 10.4 616.991 11.816 616.511 12.952C616.031 14.072 615.359 14.912 614.495 15.472C613.647 16.032 612.655 16.312 611.519 16.312ZM611.519 14.68C612.703 14.68 613.623 14.168 614.279 13.144C614.935 12.104 615.263 10.624 615.263 8.704C615.263 7.28 615.087 6.136 614.735 5.272C614.399 4.392 613.951 3.752 613.391 3.352C612.831 2.952 612.207 2.752 611.519 2.752C610.847 2.752 610.223 2.96 609.647 3.376C609.087 3.776 608.639 4.416 608.303 5.296C607.967 6.176 607.799 7.312 607.799 8.704C607.799 10.624 608.127 12.104 608.783 13.144C609.439 14.168 610.351 14.68 611.519 14.68Z" fill="black"/>
</svg>
