<svg width="189" height="16" viewBox="0 0 189 16" fill="none" xmlns="http://www.w3.org/2000/svg">
<path d="M5.25394 13.68C6.32594 13.68 7.13394 13.44 7.67794 12.96C8.23794 12.464 8.51794 11.832 8.51794 11.064C8.51794 10.408 8.30194 9.864 7.86994 9.432C7.45394 9 6.78994 8.656 5.87794 8.4L3.78994 7.776C3.11794 7.568 2.53394 7.304 2.03794 6.984C1.54194 6.648 1.15794 6.24 0.885938 5.76C0.629938 5.264 0.501938 4.688 0.501938 4.032C0.501938 2.8 0.949938 1.84 1.84594 1.152C2.74194 0.447999 3.93394 0.0959988 5.42194 0.0959988C6.28594 0.0959988 7.05394 0.191999 7.72594 0.383999C8.41394 0.559999 8.94994 0.791999 9.33394 1.08C9.73394 1.368 9.93394 1.672 9.93394 1.992C9.93394 2.2 9.87794 2.392 9.76594 2.568C9.65394 2.728 9.50994 2.856 9.33394 2.952C8.93394 2.632 8.38994 2.352 7.70194 2.112C7.02994 1.872 6.29394 1.752 5.49394 1.752C4.56594 1.752 3.82994 1.96 3.28594 2.376C2.74194 2.776 2.46994 3.328 2.46994 4.032C2.46994 4.592 2.66194 5.048 3.04594 5.4C3.44594 5.752 4.08594 6.056 4.96594 6.312L6.42994 6.744C7.69394 7.096 8.68594 7.608 9.40594 8.28C10.1419 8.952 10.5099 9.88 10.5099 11.064C10.5099 12.328 10.0459 13.352 9.11794 14.136C8.20594 14.92 6.91794 15.312 5.25394 15.312C4.27794 15.312 3.42194 15.208 2.68594 15C1.96594 14.776 1.39794 14.504 0.981938 14.184C0.581938 13.848 0.381938 13.52 0.381938 13.2C0.381938 12.928 0.461938 12.704 0.621938 12.528C0.797938 12.336 0.997938 12.2 1.22194 12.12C1.58994 12.472 2.10994 12.824 2.78194 13.176C3.45394 13.512 4.27794 13.68 5.25394 13.68ZM17.5374 2.064L17.4174 0.407999H23.0094C23.0574 0.471999 23.1054 0.575999 23.1534 0.719999C23.2014 0.863999 23.2254 1.016 23.2254 1.176C23.2254 1.432 23.1614 1.648 23.0334 1.824C22.9054 1.984 22.7214 2.064 22.4814 2.064H17.5374ZM17.5854 0.407999L17.7054 2.064H12.0894C12.0414 1.984 11.9934 1.872 11.9454 1.728C11.8974 1.584 11.8734 1.432 11.8734 1.272C11.8734 0.999999 11.9374 0.791999 12.0654 0.647999C12.1934 0.487999 12.3774 0.407999 12.6174 0.407999H17.5854ZM16.5774 1.416H18.5214V14.952C18.4414 14.984 18.3134 15.016 18.1374 15.048C17.9774 15.096 17.8094 15.12 17.6334 15.12C17.2814 15.12 17.0174 15.048 16.8414 14.904C16.6654 14.76 16.5774 14.536 16.5774 14.232V1.416ZM30.027 1.92H29.931C29.691 2.592 29.403 3.392 29.067 4.32C28.747 5.248 28.411 6.208 28.059 7.2C27.723 8.176 27.403 9.088 27.099 9.936L26.979 10.296C26.883 10.584 26.763 10.944 26.619 11.376C26.475 11.808 26.323 12.264 26.163 12.744C26.003 13.208 25.851 13.648 25.707 14.064C25.563 14.464 25.451 14.792 25.371 15.048C25.259 15.096 25.139 15.128 25.011 15.144C24.899 15.176 24.755 15.192 24.579 15.192C24.323 15.192 24.091 15.128 23.883 15C23.691 14.856 23.595 14.632 23.595 14.328C23.595 14.184 23.619 14.04 23.667 13.896C23.715 13.736 23.771 13.568 23.835 13.392C24.027 12.848 24.259 12.184 24.531 11.4C24.819 10.616 25.131 9.76 25.467 8.832C25.803 7.904 26.155 6.952 26.523 5.976C26.891 5 27.251 4.048 27.603 3.12C27.955 2.192 28.283 1.344 28.587 0.576C28.715 0.512 28.907 0.447999 29.163 0.383999C29.419 0.319999 29.683 0.287999 29.955 0.287999C30.275 0.287999 30.579 0.335999 30.867 0.431999C31.171 0.527999 31.363 0.688 31.443 0.912C31.827 1.84 32.235 2.896 32.667 4.08C33.115 5.248 33.563 6.472 34.011 7.752C34.459 9.016 34.883 10.248 35.283 11.448C35.699 12.648 36.067 13.736 36.387 14.712C36.275 14.856 36.123 14.968 35.931 15.048C35.755 15.144 35.555 15.192 35.331 15.192C35.027 15.192 34.795 15.128 34.635 15C34.475 14.856 34.339 14.624 34.227 14.304L32.907 10.392L32.715 9.72C32.395 8.744 32.059 7.76 31.707 6.768C31.371 5.776 31.051 4.856 30.747 4.008C30.459 3.16 30.219 2.464 30.027 1.92ZM26.043 11.112L26.667 9.504H33.363L33.747 11.112H26.043ZM41.1581 7.848H43.9181C45.1021 7.848 46.0301 7.592 46.7021 7.08C47.3741 6.568 47.7101 5.808 47.7101 4.8C47.7101 3.808 47.3581 3.056 46.6541 2.544C45.9501 2.032 44.9421 1.776 43.6301 1.776C43.1981 1.776 42.7581 1.8 42.3101 1.848C41.8781 1.88 41.4941 1.928 41.1581 1.992V7.848ZM43.9181 9.48H39.2141V1.464C39.2141 1.208 39.2781 1.016 39.4061 0.888C39.5501 0.744 39.7501 0.631999 40.0061 0.551999C40.4701 0.408 41.0381 0.304 41.7101 0.24C42.3981 0.176 43.0621 0.144 43.7021 0.144C45.7021 0.144 47.1981 0.552 48.1901 1.368C49.1821 2.184 49.6781 3.328 49.6781 4.8C49.6781 5.744 49.4621 6.568 49.0301 7.272C48.5981 7.976 47.9581 8.52 47.1101 8.904C46.2621 9.288 45.1981 9.48 43.9181 9.48ZM43.9661 8.856L45.4061 8.136C45.8541 8.696 46.3181 9.28 46.7981 9.888C47.2781 10.496 47.7421 11.088 48.1901 11.664C48.6381 12.24 49.0381 12.76 49.3901 13.224C49.7421 13.672 50.0141 14.024 50.2061 14.28C50.1421 14.552 49.9981 14.768 49.7741 14.928C49.5661 15.088 49.3501 15.168 49.1261 15.168C48.8541 15.168 48.6301 15.104 48.4541 14.976C48.2781 14.832 48.0941 14.632 47.9021 14.376L43.9661 8.856ZM39.2141 8.952H41.1821V14.952C41.0861 14.984 40.9581 15.016 40.7981 15.048C40.6381 15.096 40.4621 15.12 40.2701 15.12C39.9181 15.12 39.6541 15.048 39.4781 14.904C39.3021 14.76 39.2141 14.536 39.2141 14.232V8.952ZM57.1234 2.064L57.0034 0.407999H62.5954C62.6434 0.471999 62.6914 0.575999 62.7394 0.719999C62.7874 0.863999 62.8114 1.016 62.8114 1.176C62.8114 1.432 62.7474 1.648 62.6194 1.824C62.4914 1.984 62.3074 2.064 62.0674 2.064H57.1234ZM57.1714 0.407999L57.2914 2.064H51.6754C51.6274 1.984 51.5794 1.872 51.5314 1.728C51.4834 1.584 51.4594 1.432 51.4594 1.272C51.4594 0.999999 51.5234 0.791999 51.6514 0.647999C51.7794 0.487999 51.9634 0.407999 52.2034 0.407999H57.1714ZM56.1634 1.416H58.1074V14.952C58.0274 14.984 57.8994 15.016 57.7234 15.048C57.5634 15.096 57.3954 15.12 57.2194 15.12C56.8674 15.12 56.6034 15.048 56.4274 14.904C56.2514 14.76 56.1634 14.536 56.1634 14.232V1.416ZM72.3066 9.096L70.3626 9.072V1.464C70.3626 1.144 70.4586 0.887999 70.6506 0.696C70.8426 0.503999 71.0986 0.407999 71.4186 0.407999C71.5946 0.407999 71.7706 0.431999 71.9466 0.48C72.1226 0.527999 72.2426 0.567999 72.3066 0.599999V9.096ZM71.4186 8.712V7.056H78.5466C78.5946 7.136 78.6426 7.248 78.6906 7.392C78.7386 7.52 78.7626 7.664 78.7626 7.824C78.7626 8.08 78.6986 8.296 78.5706 8.472C78.4426 8.632 78.2586 8.712 78.0186 8.712H71.4186ZM71.4186 2.064V0.407999H79.3866C79.4346 0.471999 79.4826 0.575999 79.5306 0.719999C79.5786 0.863999 79.6026 1.016 79.6026 1.176C79.6026 1.432 79.5386 1.648 79.4106 1.824C79.2826 1.984 79.0986 2.064 78.8586 2.064H71.4186ZM70.3626 6.456H72.3306V14.976C72.2506 14.992 72.1226 15.016 71.9466 15.048C71.7866 15.096 71.6186 15.12 71.4426 15.12C71.0906 15.12 70.8186 15.048 70.6266 14.904C70.4506 14.76 70.3626 14.544 70.3626 14.256V6.456ZM84.705 7.848H87.465C88.649 7.848 89.577 7.592 90.249 7.08C90.921 6.568 91.257 5.808 91.257 4.8C91.257 3.808 90.905 3.056 90.201 2.544C89.497 2.032 88.489 1.776 87.177 1.776C86.745 1.776 86.305 1.8 85.857 1.848C85.425 1.88 85.041 1.928 84.705 1.992V7.848ZM87.465 9.48H82.761V1.464C82.761 1.208 82.825 1.016 82.953 0.888C83.097 0.744 83.297 0.631999 83.553 0.551999C84.017 0.408 84.585 0.304 85.257 0.24C85.945 0.176 86.609 0.144 87.249 0.144C89.249 0.144 90.745 0.552 91.737 1.368C92.729 2.184 93.225 3.328 93.225 4.8C93.225 5.744 93.009 6.568 92.577 7.272C92.145 7.976 91.505 8.52 90.657 8.904C89.809 9.288 88.745 9.48 87.465 9.48ZM87.513 8.856L88.953 8.136C89.401 8.696 89.865 9.28 90.345 9.888C90.825 10.496 91.289 11.088 91.737 11.664C92.185 12.24 92.585 12.76 92.937 13.224C93.289 13.672 93.561 14.024 93.753 14.28C93.689 14.552 93.545 14.768 93.321 14.928C93.113 15.088 92.897 15.168 92.673 15.168C92.401 15.168 92.177 15.104 92.001 14.976C91.825 14.832 91.641 14.632 91.449 14.376L87.513 8.856ZM82.761 8.952H84.729V14.952C84.633 14.984 84.505 15.016 84.345 15.048C84.185 15.096 84.009 15.12 83.817 15.12C83.465 15.12 83.201 15.048 83.025 14.904C82.849 14.76 82.761 14.536 82.761 14.232V8.952ZM109.833 7.704C109.833 9.368 109.529 10.768 108.921 11.904C108.313 13.024 107.481 13.872 106.425 14.448C105.385 15.024 104.201 15.312 102.873 15.312C101.561 15.312 100.377 15.024 99.3212 14.448C98.2652 13.872 97.4332 13.024 96.8252 11.904C96.2172 10.768 95.9132 9.368 95.9132 7.704C95.9132 6.04 96.2252 4.648 96.8492 3.528C97.4732 2.392 98.3052 1.536 99.3452 0.959999C100.401 0.383999 101.577 0.0959988 102.873 0.0959988C104.185 0.0959988 105.361 0.383999 106.401 0.959999C107.457 1.536 108.289 2.392 108.897 3.528C109.521 4.648 109.833 6.04 109.833 7.704ZM107.841 7.704C107.841 5.8 107.385 4.336 106.473 3.312C105.577 2.272 104.377 1.752 102.873 1.752C101.385 1.752 100.185 2.272 99.2732 3.312C98.3772 4.336 97.9292 5.8 97.9292 7.704C97.9292 9.608 98.3772 11.08 99.2732 12.12C100.169 13.144 101.369 13.656 102.873 13.656C104.393 13.656 105.601 13.144 106.497 12.12C107.393 11.08 107.841 9.608 107.841 7.704ZM121.487 11.208C121.375 11.288 121.223 11.36 121.031 11.424C120.855 11.488 120.655 11.52 120.431 11.52C120.175 11.52 119.943 11.48 119.735 11.4C119.543 11.32 119.407 11.192 119.327 11.016C118.479 9.224 117.735 7.584 117.095 6.096C116.471 4.608 115.967 3.376 115.583 2.4H115.487C115.439 3.6 115.383 4.72 115.319 5.76C115.271 6.8 115.215 7.808 115.151 8.784C115.087 9.744 115.023 10.736 114.959 11.76C114.911 12.768 114.847 13.848 114.767 15C114.671 15.032 114.543 15.064 114.383 15.096C114.239 15.128 114.079 15.144 113.903 15.144C113.551 15.144 113.303 15.072 113.159 14.928C113.015 14.768 112.943 14.56 112.943 14.304C112.943 14.112 112.959 13.672 112.991 12.984C113.039 12.28 113.087 11.424 113.135 10.416C113.199 9.408 113.271 8.336 113.351 7.2C113.431 6.048 113.511 4.92 113.591 3.816C113.687 2.696 113.775 1.688 113.855 0.792C113.983 0.679999 114.167 0.575999 114.407 0.48C114.647 0.384 114.919 0.336 115.223 0.336C115.591 0.336 115.903 0.408 116.159 0.551999C116.415 0.695999 116.615 0.919999 116.759 1.224C117.175 2.04 117.591 2.928 118.007 3.888C118.423 4.848 118.831 5.808 119.231 6.768C119.631 7.728 120.015 8.632 120.383 9.48H120.479C121.183 7.784 121.879 6.152 122.567 4.584C123.271 3.016 123.863 1.68 124.343 0.576C124.487 0.496 124.671 0.44 124.895 0.407999C125.119 0.36 125.327 0.336 125.519 0.336C125.887 0.336 126.175 0.4 126.383 0.527999C126.607 0.639999 126.751 0.831999 126.815 1.104C126.879 1.376 126.951 1.84 127.031 2.496C127.111 3.152 127.191 3.928 127.271 4.824C127.351 5.704 127.423 6.632 127.487 7.608C127.567 8.584 127.639 9.544 127.703 10.488C127.767 11.432 127.823 12.288 127.871 13.056C127.935 13.808 127.975 14.408 127.991 14.856C127.847 14.952 127.695 15.024 127.535 15.072C127.375 15.12 127.191 15.144 126.983 15.144C126.743 15.144 126.527 15.088 126.335 14.976C126.159 14.848 126.055 14.624 126.023 14.304C125.927 12.752 125.831 11.224 125.735 9.72C125.655 8.2 125.583 6.808 125.519 5.544C125.455 4.28 125.399 3.248 125.351 2.448H125.255C124.903 3.328 124.423 4.464 123.815 5.856C123.207 7.232 122.431 9.016 121.487 11.208ZM136.714 6.312H138.682V14.952C138.586 14.984 138.458 15.016 138.298 15.048C138.138 15.096 137.962 15.12 137.77 15.12C137.418 15.12 137.154 15.048 136.978 14.904C136.802 14.76 136.714 14.536 136.714 14.232V6.312ZM138.682 7.92H136.714V0.456C136.794 0.423999 136.914 0.391999 137.074 0.36C137.25 0.311999 137.434 0.287999 137.626 0.287999C137.978 0.287999 138.242 0.359999 138.418 0.503999C138.594 0.631999 138.682 0.855999 138.682 1.176V7.92ZM146.17 6.312H148.138V14.952C148.042 14.984 147.914 15.016 147.754 15.048C147.594 15.096 147.418 15.12 147.226 15.12C146.874 15.12 146.61 15.048 146.434 14.904C146.258 14.76 146.17 14.536 146.17 14.232V6.312ZM148.138 7.92H146.17V0.456C146.25 0.423999 146.37 0.391999 146.53 0.36C146.706 0.311999 146.89 0.287999 147.082 0.287999C147.434 0.287999 147.698 0.359999 147.874 0.503999C148.05 0.631999 148.138 0.855999 148.138 1.176V7.92ZM147.202 8.424H137.89V6.792H147.202V8.424ZM152.417 6.216H154.361V14.808C154.297 14.824 154.177 14.864 154.001 14.928C153.825 14.976 153.649 15 153.473 15C153.153 15 152.897 14.904 152.705 14.712C152.513 14.504 152.417 14.248 152.417 13.944V6.216ZM154.361 9.048L152.417 9.024V1.464C152.417 1.144 152.513 0.887999 152.705 0.696C152.897 0.503999 153.153 0.407999 153.473 0.407999C153.649 0.407999 153.825 0.431999 154.001 0.48C154.177 0.527999 154.297 0.567999 154.361 0.599999V9.048ZM153.473 8.328V6.696H160.697C160.745 6.76 160.793 6.864 160.841 7.008C160.889 7.152 160.913 7.304 160.913 7.464C160.913 7.72 160.849 7.928 160.721 8.088C160.593 8.248 160.409 8.328 160.169 8.328H153.473ZM153.473 15V13.368H161.561C161.609 13.432 161.657 13.536 161.705 13.68C161.753 13.808 161.777 13.96 161.777 14.136C161.777 14.392 161.713 14.6 161.585 14.76C161.457 14.92 161.273 15 161.033 15H153.473ZM153.473 2.064V0.407999H161.441C161.489 0.471999 161.537 0.575999 161.585 0.719999C161.633 0.863999 161.657 1.016 161.657 1.176C161.657 1.432 161.593 1.648 161.465 1.824C161.337 1.984 161.153 2.064 160.913 2.064H153.473ZM167.111 7.848H169.871C171.055 7.848 171.983 7.592 172.655 7.08C173.327 6.568 173.663 5.808 173.663 4.8C173.663 3.808 173.311 3.056 172.607 2.544C171.903 2.032 170.895 1.776 169.583 1.776C169.151 1.776 168.711 1.8 168.263 1.848C167.831 1.88 167.447 1.928 167.111 1.992V7.848ZM169.871 9.48H165.167V1.464C165.167 1.208 165.231 1.016 165.359 0.888C165.503 0.744 165.703 0.631999 165.959 0.551999C166.423 0.408 166.991 0.304 167.663 0.24C168.351 0.176 169.015 0.144 169.655 0.144C171.655 0.144 173.151 0.552 174.143 1.368C175.135 2.184 175.631 3.328 175.631 4.8C175.631 5.744 175.415 6.568 174.983 7.272C174.551 7.976 173.911 8.52 173.063 8.904C172.215 9.288 171.151 9.48 169.871 9.48ZM169.919 8.856L171.359 8.136C171.807 8.696 172.271 9.28 172.751 9.888C173.231 10.496 173.695 11.088 174.143 11.664C174.591 12.24 174.991 12.76 175.343 13.224C175.695 13.672 175.967 14.024 176.159 14.28C176.095 14.552 175.951 14.768 175.727 14.928C175.519 15.088 175.303 15.168 175.079 15.168C174.807 15.168 174.583 15.104 174.407 14.976C174.231 14.832 174.047 14.632 173.855 14.376L169.919 8.856ZM165.167 8.952H167.135V14.952C167.039 14.984 166.911 15.016 166.751 15.048C166.591 15.096 166.415 15.12 166.223 15.12C165.871 15.12 165.607 15.048 165.431 14.904C165.255 14.76 165.167 14.536 165.167 14.232V8.952ZM179.3 6.216H181.244V14.808C181.18 14.824 181.06 14.864 180.884 14.928C180.708 14.976 180.532 15 180.356 15C180.036 15 179.78 14.904 179.588 14.712C179.396 14.504 179.3 14.248 179.3 13.944V6.216ZM181.244 9.048L179.3 9.024V1.464C179.3 1.144 179.396 0.887999 179.588 0.696C179.78 0.503999 180.036 0.407999 180.356 0.407999C180.532 0.407999 180.708 0.431999 180.884 0.48C181.06 0.527999 181.18 0.567999 181.244 0.599999V9.048ZM180.356 8.328V6.696H187.58C187.628 6.76 187.676 6.864 187.724 7.008C187.772 7.152 187.796 7.304 187.796 7.464C187.796 7.72 187.732 7.928 187.604 8.088C187.476 8.248 187.292 8.328 187.052 8.328H180.356ZM180.356 15V13.368H188.444C188.492 13.432 188.54 13.536 188.588 13.68C188.636 13.808 188.66 13.96 188.66 14.136C188.66 14.392 188.596 14.6 188.468 14.76C188.34 14.92 188.156 15 187.916 15H180.356ZM180.356 2.064V0.407999H188.324C188.372 0.471999 188.42 0.575999 188.468 0.719999C188.516 0.863999 188.54 1.016 188.54 1.176C188.54 1.432 188.476 1.648 188.348 1.824C188.22 1.984 188.036 2.064 187.796 2.064H180.356Z" fill="white"/>
</svg>
