<svg width="833" height="260" viewBox="0 0 833 260" fill="none" xmlns="http://www.w3.org/2000/svg">
<path d="M24.48 115.56V102.76H57.6C58.0267 103.4 58.4 104.307 58.72 105.48C59.1467 106.547 59.36 107.773 59.36 109.16C59.36 111.293 58.8267 112.893 57.76 113.96C56.6933 115.027 55.2533 115.56 53.44 115.56H24.48ZM27.2 93.8V113.48H11.52V93.16C11.52 86.6533 12.7467 81.3733 15.2 77.32C17.76 73.2667 21.28 70.28 25.76 68.36C30.3467 66.44 35.68 65.48 41.76 65.48C48.2667 65.48 53.28 66.3333 56.8 68.04C60.4267 69.7467 62.24 72.0933 62.24 75.08C62.24 76.4667 61.92 77.7467 61.28 78.92C60.7467 79.9867 60 80.9467 59.04 81.8C57.12 80.84 54.7733 80.0933 52 79.56C49.3333 78.92 46.6667 78.6 44 78.6C37.92 78.6 33.6 79.8267 31.04 82.28C28.48 84.6267 27.2 88.4667 27.2 93.8ZM11.52 107.24H27.68V172.68C26.9333 172.893 25.8667 173.16 24.48 173.48C23.2 173.8 21.8133 173.96 20.32 173.96C17.3333 173.96 15.0933 173.427 13.6 172.36C12.2133 171.187 11.52 169.213 11.52 166.44V107.24ZM143.029 135.56C143.029 143.667 141.482 150.707 138.389 156.68C135.295 162.547 130.922 167.133 125.269 170.44C119.615 173.64 113.002 175.24 105.429 175.24C97.7488 175.24 91.0821 173.64 85.4288 170.44C79.7754 167.133 75.4021 162.547 72.3088 156.68C69.2154 150.707 67.6688 143.667 67.6688 135.56C67.6688 127.453 69.2154 120.467 72.3088 114.6C75.5088 108.733 79.9354 104.2 85.5888 101C91.2421 97.6933 97.8554 96.04 105.429 96.04C112.895 96.04 119.455 97.6933 125.109 101C130.762 104.2 135.135 108.733 138.229 114.6C141.429 120.467 143.029 127.453 143.029 135.56ZM105.429 109.16C98.9221 109.16 93.7488 111.507 89.9088 116.2C86.0688 120.893 84.1488 127.347 84.1488 135.56C84.1488 143.987 86.0154 150.547 89.7488 155.24C93.4821 159.827 98.7088 162.12 105.429 162.12C112.042 162.12 117.162 159.773 120.789 155.08C124.522 150.387 126.389 143.88 126.389 135.56C126.389 127.347 124.522 120.893 120.789 116.2C117.055 111.507 111.935 109.16 105.429 109.16ZM177.516 114.12V137.64H161.356V113.8C161.356 111.24 161.89 109.16 162.956 107.56C164.023 105.853 165.676 104.253 167.916 102.76C170.903 100.84 174.796 99.24 179.596 97.96C184.503 96.68 189.836 96.04 195.596 96.04C204.876 96.04 209.516 98.6533 209.516 103.88C209.516 105.16 209.303 106.333 208.876 107.4C208.556 108.467 208.076 109.373 207.436 110.12C206.37 109.907 204.983 109.747 203.276 109.64C201.676 109.427 200.023 109.32 198.316 109.32C193.943 109.32 189.943 109.8 186.316 110.76C182.796 111.613 179.863 112.733 177.516 114.12ZM161.356 130.76L177.516 132.2V172.68C176.77 172.893 175.703 173.16 174.316 173.48C173.036 173.8 171.65 173.96 170.156 173.96C167.17 173.96 164.93 173.427 163.436 172.36C162.05 171.187 161.356 169.213 161.356 166.44V130.76ZM269.815 155.72C268.108 152.307 266.028 147.827 263.575 142.28C261.228 136.627 258.775 130.28 256.215 123.24C253.655 116.2 251.202 108.68 248.855 100.68C249.708 99.5067 250.882 98.5467 252.375 97.8C253.975 97.0533 255.628 96.68 257.335 96.68C259.682 96.68 261.548 97.2667 262.935 98.44C264.428 99.5067 265.602 101.373 266.455 104.04C269.442 112.68 272.535 121.267 275.735 129.8C278.935 138.227 282.402 146.92 286.135 155.88H286.775C288.908 151.293 291.095 145.747 293.335 139.24C295.575 132.733 297.708 125.907 299.735 118.76C301.868 111.613 303.575 104.84 304.855 98.44C305.922 97.9067 306.988 97.48 308.055 97.16C309.228 96.84 310.508 96.68 311.895 96.68C314.135 96.68 316.002 97.2133 317.495 98.28C319.095 99.3467 319.895 101.053 319.895 103.4C319.895 105.533 319.415 108.68 318.455 112.84C317.495 116.893 316.215 121.533 314.615 126.76C313.015 131.987 311.148 137.48 309.015 143.24C306.882 148.893 304.588 154.44 302.135 159.88C299.788 165.32 297.388 170.227 294.935 174.6C289.815 183.987 285.068 191.133 280.695 196.04C276.428 200.947 272.375 203.4 268.535 203.4C265.655 203.4 263.362 202.6 261.655 201C259.948 199.4 258.935 197.427 258.615 195.08C260.855 193.053 263.362 190.493 266.135 187.4C268.908 184.307 271.575 180.947 274.135 177.32C276.802 173.8 278.988 170.44 280.695 167.24C278.882 166.707 277.122 165.693 275.415 164.2C273.815 162.6 271.948 159.773 269.815 155.72ZM406.466 135.56C406.466 143.667 404.92 150.707 401.826 156.68C398.733 162.547 394.36 167.133 388.706 170.44C383.053 173.64 376.44 175.24 368.866 175.24C361.186 175.24 354.52 173.64 348.866 170.44C343.213 167.133 338.84 162.547 335.746 156.68C332.653 150.707 331.106 143.667 331.106 135.56C331.106 127.453 332.653 120.467 335.746 114.6C338.946 108.733 343.373 104.2 349.026 101C354.68 97.6933 361.293 96.04 368.866 96.04C376.333 96.04 382.893 97.6933 388.546 101C394.2 104.2 398.573 108.733 401.666 114.6C404.866 120.467 406.466 127.453 406.466 135.56ZM368.866 109.16C362.36 109.16 357.186 111.507 353.346 116.2C349.506 120.893 347.586 127.347 347.586 135.56C347.586 143.987 349.453 150.547 353.186 155.24C356.92 159.827 362.146 162.12 368.866 162.12C375.48 162.12 380.6 159.773 384.226 155.08C387.96 150.387 389.826 143.88 389.826 135.56C389.826 127.347 387.96 120.893 384.226 116.2C380.493 111.507 375.373 109.16 368.866 109.16ZM424.794 145V131.4H440.954V144.52C440.954 150.813 442.554 155.347 445.754 158.12C449.06 160.787 453.647 162.12 459.514 162.12C463.354 162.12 466.607 161.747 469.274 161C471.94 160.147 474.02 159.293 475.514 158.44V131.4H491.674V159.08C491.674 161.427 491.3 163.347 490.554 164.84C489.914 166.333 488.474 167.72 486.234 169C483.567 170.6 479.94 172.04 475.354 173.32C470.767 174.6 465.434 175.24 459.354 175.24C452.207 175.24 446.02 174.173 440.794 172.04C435.567 169.907 431.567 166.6 428.794 162.12C426.127 157.64 424.794 151.933 424.794 145ZM491.674 139.4H475.514V98.44C476.154 98.2267 477.167 98.0133 478.554 97.8C479.94 97.48 481.38 97.32 482.874 97.32C485.967 97.32 488.207 97.9067 489.594 99.08C490.98 100.147 491.674 102.067 491.674 104.84V139.4ZM440.954 139.4H424.794V98.44C425.434 98.2267 426.447 98.0133 427.834 97.8C429.22 97.48 430.714 97.32 432.314 97.32C435.194 97.32 437.327 97.9067 438.714 99.08C440.207 100.147 440.954 102.067 440.954 104.84V139.4Z" fill="black"/>
<path d="M713 187L593 67H713V187Z" fill="#D291CC"/>
<path d="M833 187L713 67H833V187Z" fill="#1F822F"/>
<path d="M522.526 156.216C527.135 157.279 531.782 154.597 533.166 150.073C534.323 146.292 539.677 146.292 540.834 150.073C542.218 154.597 546.865 157.279 551.474 156.216C555.328 155.328 558.004 159.964 555.308 162.857C552.083 166.317 552.083 171.683 555.308 175.143C558.004 178.036 555.328 182.672 551.474 181.784C546.865 180.721 542.218 183.403 540.834 187.927C539.677 191.708 534.323 191.708 533.166 187.927C531.782 183.403 527.135 180.721 522.526 181.784C518.672 182.672 515.996 178.036 518.692 175.143C521.917 171.683 521.917 166.317 518.692 162.857C515.996 159.964 518.672 155.328 522.526 156.216Z" fill="#D9D9D9" stroke="black" stroke-width="5"/>
<circle cx="537" cy="170" r="13.5" fill="#D9D9D9" stroke="black" stroke-width="3"/>
<line x1="15.4581" y1="188.458" x2="487.458" y2="185.426" stroke="#FFCE6D" stroke-width="13" stroke-linecap="round"/>
</svg>
